{"glyphs":{"0":{"ha":990,"x_min":0,"x_max":0,"o":"m 494 -26 b 919 542 751 -26 919 196 b 494 1110 919 889 751 1110 b 71 542 239 1110 71 889 b 494 -26 71 196 239 -26 z m 494 110 b 235 542 335 110 235 268 b 494 974 235 818 335 974 b 756 542 657 974 756 818 b 494 110 756 268 657 110 z "},"1":{"ha":582,"x_min":0,"x_max":0,"o":"m 451 0 l 451 1083 l 335 1083 b 32 822 297 956 188 860 l 32 672 b 294 810 136 694 239 750 l 294 0 z "},"2":{"ha":865,"x_min":0,"x_max":0,"o":"m 796 0 l 796 132 l 251 132 b 514 456 268 265 335 356 b 789 814 718 575 789 664 b 454 1110 789 989 654 1110 b 69 750 231 1113 89 969 l 225 750 b 451 979 238 896 317 979 b 638 817 564 979 638 913 b 439 579 638 721 592 663 b 63 0 165 426 74 272 z "},"3":{"ha":893,"x_min":0,"x_max":0,"o":"m 458 -26 b 825 299 678 -26 825 107 b 611 575 825 428 746 536 b 782 821 718 618 782 706 b 456 1110 782 992 647 1110 b 85 793 236 1110 113 976 l 242 793 b 451 979 257 908 336 979 b 631 807 561 979 631 911 b 435 631 631 696 557 631 l 301 631 l 301 504 l 440 504 b 672 307 583 504 672 429 b 454 106 672 183 589 106 b 206 315 321 106 224 182 l 46 315 b 458 -26 71 108 222 -26 z "},"4":{"ha":897,"x_min":0,"x_max":0,"o":"m 711 0 l 711 271 l 842 271 l 842 403 l 711 403 l 711 1083 l 547 1083 l 31 413 l 31 271 l 560 271 l 560 0 z m 560 907 l 560 403 l 178 403 z "},"5":{"ha":914,"x_min":0,"x_max":0,"o":"m 471 -28 b 860 365 701 -28 860 138 b 506 719 860 572 714 719 b 256 608 404 719 310 681 l 306 951 l 775 951 l 775 1083 l 176 1083 l 90 488 l 253 488 b 464 599 297 558 374 599 b 704 357 608 599 704 500 b 467 106 704 207 611 106 b 207 315 328 106 231 189 l 47 315 b 471 -28 81 114 229 -28 z "},"6":{"ha":942,"x_min":0,"x_max":0,"o":"m 490 -26 b 871 347 713 -26 871 131 b 521 701 871 553 724 701 b 229 528 389 701 279 635 b 503 979 235 806 311 979 b 701 796 610 979 683 913 l 858 796 b 507 1110 831 994 700 1110 b 74 486 219 1110 74 888 b 490 -26 74 160 231 -26 z m 485 103 b 251 342 349 103 251 201 b 486 582 251 483 351 582 b 717 342 619 582 717 483 b 485 103 717 199 622 103 z "},"7":{"ha":804,"x_min":0,"x_max":0,"o":"m 326 0 b 794 1079 415 357 568 736 l 794 1083 l 28 1083 l 28 951 l 551 951 b 160 0 399 714 240 336 z "},"8":{"ha":918,"x_min":0,"x_max":0,"o":"m 460 -26 b 853 294 692 -26 853 100 b 629 578 853 429 763 538 b 799 824 735 618 799 707 b 460 1110 799 993 663 1110 b 119 824 254 1110 119 993 b 289 578 119 707 182 618 b 65 294 154 538 65 429 b 460 -26 65 100 226 -26 z m 460 629 b 265 810 344 629 264 700 b 460 986 265 917 344 986 b 653 810 575 986 653 917 b 460 629 654 700 575 629 z m 460 100 b 219 308 311 100 219 181 b 460 514 219 432 315 514 b 699 308 603 514 699 432 b 460 100 699 181 608 100 z "},"9":{"ha":940,"x_min":0,"x_max":0,"o":"m 464 -25 b 867 601 729 -25 867 186 b 454 1111 867 919 713 1111 b 71 744 232 1111 71 961 b 426 393 71 538 219 393 b 711 560 556 393 661 454 b 461 107 711 258 628 107 b 240 289 346 107 263 174 l 85 289 b 464 -25 114 94 254 -25 z m 458 513 b 226 747 325 513 226 608 b 460 983 226 890 322 983 b 689 749 594 983 689 889 b 458 513 689 610 592 513 z "},"A":{"ha":1043,"x_min":0,"x_max":0,"o":"m 185 0 l 286 278 l 751 278 l 851 0 l 1036 0 l 636 1083 l 407 1083 l 7 0 z m 518 956 l 713 406 l 324 406 z "},"Á":{"ha":1043,"x_min":0,"x_max":0,"o":"m 7 0 l 407 1083 l 636 1083 l 1036 0 l 851 0 l 751 278 l 286 278 l 185 0 z m 324 406 l 713 406 l 518 956 z m 601 1165 l 888 1396 l 682 1396 l 440 1165 z "},"Ă":{"ha":1043,"x_min":0,"x_max":0,"o":"m 185 0 l 286 278 l 751 278 l 851 0 l 1036 0 l 636 1083 l 407 1083 l 7 0 z m 518 956 l 713 406 l 324 406 z m 518 1165 b 772 1382 667 1165 761 1247 l 667 1382 b 518 1268 650 1310 601 1268 b 369 1382 435 1268 386 1310 l 264 1382 b 518 1165 275 1247 369 1165 z "},"Ắ":{"ha":1043,"x_min":0,"x_max":0,"o":"m 185 0 l 286 278 l 751 278 l 851 0 l 1036 0 l 636 1083 l 407 1083 l 7 0 z m 518 956 l 713 406 l 324 406 z m 518 1158 b 757 1363 658 1158 747 1239 l 654 1363 b 518 1260 639 1297 596 1260 b 382 1363 440 1260 399 1297 l 279 1363 b 518 1158 289 1235 379 1158 z m 572 1397 l 778 1615 l 611 1615 l 447 1397 z "},"Ặ":{"ha":1043,"x_min":0,"x_max":0,"o":"m 185 0 l 286 278 l 751 278 l 851 0 l 1036 0 l 636 1083 l 407 1083 l 7 0 z m 518 956 l 713 406 l 324 406 z m 519 -283 b 614 -193 576 -283 614 -243 b 519 -101 614 -142 576 -101 b 424 -193 463 -101 424 -142 b 519 -283 424 -243 463 -283 z m 518 1165 b 772 1382 667 1165 761 1247 l 667 1382 b 518 1268 650 1310 601 1268 b 369 1382 435 1268 386 1310 l 264 1382 b 518 1165 275 1247 369 1165 z "},"Ằ":{"ha":1043,"x_min":0,"x_max":0,"o":"m 7 0 l 407 1083 l 636 1083 l 1036 0 l 851 0 l 751 278 l 286 278 l 185 0 z m 324 406 l 713 406 l 518 956 z m 518 1158 b 279 1363 379 1158 289 1235 l 382 1363 b 518 1260 399 1297 440 1260 b 654 1363 596 1260 639 1297 l 757 1363 b 518 1158 747 1239 658 1158 z m 578 1397 l 414 1615 l 247 1615 l 453 1397 z "},"Ẳ":{"ha":1043,"x_min":0,"x_max":0,"o":"m 185 0 l 286 278 l 751 278 l 851 0 l 1036 0 l 636 1083 l 407 1083 l 7 0 z m 518 956 l 713 406 l 324 406 z m 518 1158 b 757 1363 658 1158 747 1239 l 654 1363 b 518 1260 639 1297 596 1260 b 382 1363 440 1260 399 1297 l 279 1363 b 518 1158 289 1235 379 1158 z m 472 1379 b 699 1536 611 1389 699 1447 b 529 1664 699 1618 633 1664 b 376 1628 474 1664 415 1649 l 376 1544 b 501 1572 414 1561 461 1572 b 585 1524 557 1572 585 1556 b 472 1451 585 1490 544 1464 z "},"Ẵ":{"ha":1043,"x_min":0,"x_max":0,"o":"m 185 0 l 286 278 l 751 278 l 851 0 l 1036 0 l 636 1083 l 407 1083 l 7 0 z m 518 956 l 713 406 l 324 406 z m 518 1158 b 757 1363 658 1158 747 1239 l 654 1363 b 518 1260 639 1297 596 1260 b 382 1363 440 1260 399 1297 l 279 1363 b 518 1158 289 1235 379 1158 z m 617 1404 b 772 1581 704 1404 757 1475 l 683 1581 b 619 1506 674 1536 654 1506 b 421 1593 561 1506 513 1593 b 265 1418 336 1593 278 1524 l 353 1418 b 417 1492 363 1463 383 1492 b 617 1404 474 1492 524 1404 z "},"Ǎ":{"ha":1043,"x_min":0,"x_max":0,"o":"m 7 0 l 407 1083 l 636 1083 l 1036 0 l 851 0 l 751 278 l 286 278 l 185 0 z m 324 406 l 713 406 l 518 956 z m 243 1404 l 442 1165 l 594 1165 l 794 1404 l 667 1404 l 536 1278 b 518 1269 529 1272 524 1269 b 501 1278 514 1269 508 1272 l 371 1404 z "},"Â":{"ha":1043,"x_min":0,"x_max":0,"o":"m 185 0 l 286 278 l 751 278 l 851 0 l 1036 0 l 636 1083 l 407 1083 l 7 0 z m 518 956 l 713 406 l 324 406 z m 371 1165 l 501 1292 b 518 1300 508 1297 514 1300 b 536 1292 524 1300 529 1297 l 667 1165 l 794 1165 l 594 1404 l 442 1404 l 243 1165 z "},"Ấ":{"ha":1043,"x_min":0,"x_max":0,"o":"m 185 0 l 286 278 l 751 278 l 851 0 l 1036 0 l 636 1083 l 407 1083 l 7 0 z m 518 956 l 713 406 l 324 406 z m 388 1165 l 501 1274 b 518 1281 506 1278 511 1281 b 535 1274 524 1281 529 1278 l 649 1165 l 778 1165 l 594 1381 l 442 1381 l 258 1165 z m 803 1350 l 1008 1568 l 842 1568 l 678 1350 z "},"Ậ":{"ha":1043,"x_min":0,"x_max":0,"o":"m 185 0 l 286 278 l 751 278 l 851 0 l 1036 0 l 636 1083 l 407 1083 l 7 0 z m 518 956 l 713 406 l 324 406 z m 519 -283 b 614 -193 576 -283 614 -243 b 519 -101 614 -142 576 -101 b 424 -193 463 -101 424 -142 b 519 -283 424 -243 463 -283 z m 371 1165 l 501 1292 b 518 1300 508 1297 514 1300 b 536 1292 524 1300 529 1297 l 667 1165 l 794 1165 l 594 1404 l 442 1404 l 243 1165 z "},"Ầ":{"ha":1043,"x_min":0,"x_max":0,"o":"m 7 0 l 407 1083 l 636 1083 l 1036 0 l 851 0 l 751 278 l 286 278 l 185 0 z m 324 406 l 713 406 l 518 956 z m 258 1165 l 442 1381 l 594 1381 l 778 1165 l 649 1165 l 535 1274 b 518 1281 529 1278 524 1281 b 501 1274 511 1281 506 1278 l 388 1165 z m 878 1350 l 714 1568 l 547 1568 l 753 1350 z "},"Ẩ":{"ha":1043,"x_min":0,"x_max":0,"o":"m 185 0 l 286 278 l 751 278 l 851 0 l 1036 0 l 636 1083 l 407 1083 l 7 0 z m 518 956 l 713 406 l 324 406 z m 388 1165 l 501 1274 b 518 1281 506 1278 511 1281 b 535 1274 524 1281 529 1278 l 649 1165 l 778 1165 l 594 1381 l 442 1381 l 258 1165 z m 719 1340 b 946 1497 858 1350 946 1408 b 776 1625 946 1579 881 1625 b 624 1589 721 1625 663 1610 l 624 1506 b 749 1533 661 1522 708 1533 b 832 1485 804 1533 832 1517 b 719 1413 832 1451 792 1425 z "},"Ẫ":{"ha":1043,"x_min":0,"x_max":0,"o":"m 185 0 l 286 278 l 751 278 l 851 0 l 1036 0 l 636 1083 l 407 1083 l 7 0 z m 518 956 l 713 406 l 324 406 z m 388 1165 l 501 1274 b 518 1281 506 1278 511 1281 b 535 1274 524 1281 529 1278 l 649 1165 l 778 1165 l 594 1381 l 442 1381 l 258 1165 z m 617 1438 b 772 1614 704 1438 757 1508 l 683 1614 b 619 1539 674 1569 654 1539 b 421 1626 561 1539 513 1626 b 265 1451 336 1626 278 1557 l 353 1451 b 417 1525 363 1496 383 1525 b 617 1438 474 1525 524 1438 z "},"Ä":{"ha":1043,"x_min":0,"x_max":0,"o":"m 185 0 l 286 278 l 751 278 l 851 0 l 1036 0 l 636 1083 l 407 1083 l 7 0 z m 518 956 l 713 406 l 324 406 z m 693 1197 b 789 1288 750 1197 789 1238 b 693 1379 789 1339 750 1379 b 599 1288 636 1379 599 1339 b 693 1197 599 1238 636 1197 z m 343 1197 b 438 1288 399 1197 438 1238 b 343 1379 438 1339 399 1379 b 247 1288 286 1379 247 1339 b 343 1197 247 1238 286 1197 z "},"Ǟ":{"ha":1043,"x_min":0,"x_max":0,"o":"m 185 0 l 286 278 l 751 278 l 851 0 l 1036 0 l 636 1083 l 407 1083 l 7 0 z m 518 956 l 713 406 l 324 406 z m 674 1188 b 761 1272 728 1188 761 1226 b 674 1357 761 1318 725 1357 b 586 1272 619 1357 586 1318 b 674 1188 586 1226 619 1188 z m 363 1188 b 450 1272 417 1188 450 1226 b 363 1357 450 1318 414 1357 b 275 1272 308 1357 275 1318 b 363 1188 275 1226 308 1188 z m 736 1449 l 736 1554 l 300 1554 l 300 1449 z "},"Ȧ":{"ha":1043,"x_min":0,"x_max":0,"o":"m 185 0 l 286 278 l 751 278 l 851 0 l 1036 0 l 636 1083 l 407 1083 l 7 0 z m 518 956 l 713 406 l 324 406 z m 518 1185 b 613 1275 575 1185 613 1225 b 518 1367 613 1326 575 1367 b 422 1275 461 1367 422 1326 b 518 1185 422 1225 461 1185 z "},"Ạ":{"ha":1043,"x_min":0,"x_max":0,"o":"m 185 0 l 286 278 l 751 278 l 851 0 l 1036 0 l 636 1083 l 407 1083 l 7 0 z m 518 956 l 713 406 l 324 406 z m 519 -283 b 614 -193 576 -283 614 -243 b 519 -101 614 -142 576 -101 b 424 -193 463 -101 424 -142 b 519 -283 424 -243 463 -283 z "},"À":{"ha":1043,"x_min":0,"x_max":0,"o":"m 185 0 l 286 278 l 751 278 l 851 0 l 1036 0 l 636 1083 l 407 1083 l 7 0 z m 518 956 l 713 406 l 324 406 z m 596 1165 l 354 1396 l 149 1396 l 435 1165 z "},"Ả":{"ha":1043,"x_min":0,"x_max":0,"o":"m 185 0 l 286 278 l 751 278 l 851 0 l 1036 0 l 636 1083 l 407 1083 l 7 0 z m 518 956 l 713 406 l 324 406 z m 468 1153 b 715 1322 619 1163 715 1224 b 531 1461 715 1411 643 1461 b 361 1421 468 1461 401 1443 l 361 1331 b 501 1363 407 1351 454 1363 b 596 1308 564 1363 596 1344 b 469 1231 596 1269 554 1243 z "},"Ɑ":{"ha":1333,"x_min":0,"x_max":0,"o":"m 610 -28 b 1004 149 781 -28 908 33 b 1047 182 1028 178 1036 182 b 1074 139 1064 182 1069 172 b 1085 0 1079 107 1085 32 l 1207 0 l 1207 1083 l 1085 1083 b 1074 943 1085 1051 1079 974 b 1047 900 1069 911 1064 900 b 1004 933 1036 900 1028 906 b 610 1110 908 1049 782 1110 b 58 542 294 1110 58 867 b 610 -28 58 215 294 -28 z m 640 119 b 235 542 403 119 235 296 b 640 963 235 789 403 963 b 1043 542 879 963 1043 792 b 640 119 1043 292 879 119 z "},"Ā":{"ha":1043,"x_min":0,"x_max":0,"o":"m 185 0 l 286 278 l 751 278 l 851 0 l 1036 0 l 636 1083 l 407 1083 l 7 0 z m 518 956 l 713 406 l 324 406 z m 751 1196 l 751 1306 l 285 1306 l 285 1196 z "},"Ą":{"ha":1043,"x_min":0,"x_max":0,"o":"m 185 0 l 286 278 l 751 278 l 851 0 l 1036 0 l 636 1083 l 407 1083 l 7 0 z m 518 956 l 713 406 l 324 406 z m 976 -349 b 1075 -332 1013 -349 1046 -343 l 1075 -225 b 999 -237 1051 -233 1025 -237 b 915 -169 947 -237 915 -212 b 1035 0 915 -119 950 -72 l 972 44 b 785 -194 840 -32 785 -112 b 976 -349 785 -290 861 -349 z "},"Å":{"ha":1043,"x_min":0,"x_max":0,"o":"m 185 0 l 286 278 l 751 278 l 851 0 l 1036 0 l 636 1083 l 407 1083 l 7 0 z m 518 956 l 713 406 l 324 406 z m 518 1149 b 696 1317 622 1149 696 1218 b 518 1483 696 1413 624 1483 b 340 1317 414 1483 340 1413 b 518 1149 340 1218 414 1149 z m 518 1238 b 440 1317 474 1238 440 1271 b 518 1394 440 1361 474 1394 b 596 1317 563 1394 596 1361 b 518 1238 596 1271 563 1238 z "},"Ǻ":{"ha":1043,"x_min":0,"x_max":0,"o":"m 185 0 l 286 278 l 751 278 l 851 0 l 1036 0 l 636 1083 l 407 1083 l 7 0 z m 518 956 l 713 406 l 324 406 z m 518 1158 b 682 1310 614 1158 682 1222 b 518 1463 682 1399 613 1463 b 354 1310 422 1463 354 1399 b 518 1158 354 1222 422 1158 z m 518 1242 b 449 1310 478 1242 449 1271 b 518 1379 449 1350 478 1379 b 588 1310 557 1379 588 1350 b 518 1242 588 1271 557 1242 z m 572 1411 l 778 1629 l 611 1629 l 447 1411 z "},"Ḁ":{"ha":1043,"x_min":0,"x_max":0,"o":"m 185 0 l 286 278 l 751 278 l 851 0 l 1036 0 l 636 1083 l 407 1083 l 7 0 z m 518 956 l 713 406 l 324 406 z m 519 -399 b 697 -231 624 -399 697 -329 b 519 -64 697 -135 625 -64 b 342 -231 415 -64 342 -135 b 519 -399 342 -329 415 -399 z m 519 -310 b 442 -231 475 -310 442 -276 b 519 -153 442 -186 475 -153 b 597 -231 564 -153 597 -186 b 519 -310 597 -276 564 -310 z "},"Ã":{"ha":1043,"x_min":0,"x_max":0,"o":"m 185 0 l 286 278 l 751 278 l 851 0 l 1036 0 l 636 1083 l 407 1083 l 7 0 z m 518 956 l 713 406 l 324 406 z m 632 1176 b 800 1368 725 1176 783 1253 l 704 1368 b 633 1286 694 1318 671 1286 b 403 1385 567 1286 513 1385 b 235 1193 310 1385 251 1308 l 331 1193 b 403 1276 342 1243 364 1276 b 632 1176 467 1276 522 1176 z "},"Æ":{"ha":1483,"x_min":0,"x_max":0,"o":"m 158 0 l 372 350 l 726 350 l 726 0 l 1436 0 l 1436 139 l 893 139 l 893 482 l 1338 482 l 1338 617 l 893 617 l 893 944 l 1408 944 l 1408 1083 l 625 1083 l -39 0 z m 726 951 l 726 483 l 444 483 z "},"Ǽ":{"ha":1483,"x_min":0,"x_max":0,"o":"m -39 0 l 625 1083 l 1408 1083 l 1408 944 l 893 944 l 893 617 l 1338 617 l 1338 482 l 893 482 l 893 139 l 1436 139 l 1436 0 l 726 0 l 726 350 l 372 350 l 158 0 z m 444 483 l 726 483 l 726 951 z m 1040 1165 l 1326 1396 l 1121 1396 l 879 1165 z "},"B":{"ha":1004,"x_min":0,"x_max":0,"o":"m 578 0 b 929 306 807 0 929 111 b 724 574 929 439 858 535 b 888 803 831 611 888 693 b 550 1083 888 975 771 1083 l 115 1083 l 115 0 z m 282 951 l 526 951 b 724 788 658 951 724 892 b 525 624 724 681 654 624 l 282 624 z m 281 493 l 554 493 b 763 313 688 493 763 429 b 556 132 763 197 690 132 l 281 132 z "},"Ḅ":{"ha":1004,"x_min":0,"x_max":0,"o":"m 578 0 b 929 306 807 0 929 111 b 724 574 929 439 858 535 b 888 803 831 611 888 693 b 550 1083 888 975 771 1083 l 115 1083 l 115 0 z m 282 951 l 526 951 b 724 788 658 951 724 892 b 525 624 724 681 654 624 l 282 624 z m 281 493 l 554 493 b 763 313 688 493 763 429 b 556 132 763 197 690 132 l 281 132 z m 494 -283 b 589 -193 551 -283 589 -243 b 494 -101 589 -142 551 -101 b 399 -193 438 -101 399 -142 b 494 -283 399 -243 438 -283 z "},"Ɓ":{"ha":1231,"x_min":0,"x_max":0,"o":"m 817 0 b 1165 306 1044 0 1165 111 b 963 572 1165 439 1096 535 b 1125 803 1071 611 1125 688 b 792 1083 1125 975 1008 1083 l 282 1083 b 19 863 115 1083 19 1007 b 82 651 19 792 44 711 l 207 651 b 163 833 175 728 163 783 b 289 951 163 913 204 951 l 356 951 l 356 0 z m 521 951 l 768 951 b 965 785 897 951 965 890 b 765 617 965 675 894 617 l 521 617 z m 521 500 l 794 500 b 1003 315 928 500 1003 433 b 796 132 1003 199 931 132 l 521 132 z "},"Ḇ":{"ha":1004,"x_min":0,"x_max":0,"o":"m 578 0 b 929 306 807 0 929 111 b 724 574 929 439 858 535 b 888 803 831 611 888 693 b 550 1083 888 975 771 1083 l 115 1083 l 115 0 z m 282 951 l 526 951 b 724 788 658 951 724 892 b 525 624 724 681 654 624 l 282 624 z m 281 493 l 554 493 b 763 313 688 493 763 429 b 556 132 763 197 690 132 l 281 132 z m 728 -224 l 728 -114 l 261 -114 l 261 -224 z "},"Ƀ":{"ha":1054,"x_min":0,"x_max":0,"o":"m 642 0 b 990 306 868 0 990 111 b 788 574 990 439 921 536 b 950 804 894 613 950 693 b 615 1083 950 975 833 1083 l 179 1083 l 179 372 l 26 372 l 26 264 l 179 264 l 179 0 z m 346 951 l 592 951 b 789 786 721 951 789 893 b 590 621 789 681 719 621 l 346 621 z m 346 269 l 658 269 l 658 367 l 346 367 l 346 504 l 618 504 b 826 318 751 504 826 439 b 619 132 826 200 757 132 l 346 132 z "},"C":{"ha":1225,"x_min":0,"x_max":0,"o":"m 632 -28 b 1179 415 929 -28 1135 149 l 1003 415 b 636 117 969 232 832 117 b 236 542 397 117 236 290 b 636 967 236 794 397 967 b 1003 668 832 967 969 853 l 1179 668 b 632 1111 1135 936 929 1111 b 58 542 296 1111 58 869 b 632 -28 58 215 296 -28 z "},"Ć":{"ha":1225,"x_min":0,"x_max":0,"o":"m 632 -28 b 58 542 296 -28 58 215 b 632 1111 58 869 296 1111 b 1179 668 929 1111 1135 936 l 1003 668 b 636 967 969 853 832 967 b 236 542 397 967 236 794 b 636 117 236 290 397 117 b 1003 415 832 117 969 232 l 1179 415 b 632 -28 1135 149 929 -28 z m 706 1165 l 992 1396 l 786 1396 l 544 1165 z "},"Č":{"ha":1225,"x_min":0,"x_max":0,"o":"m 632 -28 b 58 542 296 -28 58 215 b 632 1111 58 869 296 1111 b 1179 668 929 1111 1135 936 l 1003 668 b 636 967 969 853 832 967 b 236 542 397 967 236 794 b 636 117 236 290 397 117 b 1003 415 832 117 969 232 l 1179 415 b 632 -28 1135 149 929 -28 z m 347 1404 l 546 1165 l 699 1165 l 899 1404 l 771 1404 l 640 1278 b 622 1269 633 1272 628 1269 b 606 1278 618 1269 613 1272 l 475 1404 z "},"Ç":{"ha":1225,"x_min":0,"x_max":0,"o":"m 632 -28 b 1179 415 929 -28 1135 149 l 1003 415 b 636 117 969 232 832 117 b 236 542 397 117 236 290 b 636 967 236 794 397 967 b 1003 668 832 967 969 853 l 1179 668 b 632 1111 1135 936 929 1111 b 58 542 296 1111 58 869 b 632 -28 58 215 296 -28 z m 635 -361 b 835 -193 757 -361 835 -292 b 664 13 835 -106 768 -31 l 546 0 b 717 -179 658 -57 717 -122 b 632 -258 717 -229 686 -258 b 529 -151 572 -258 535 -219 l 407 -151 b 635 -361 414 -279 496 -361 z "},"Ĉ":{"ha":1225,"x_min":0,"x_max":0,"o":"m 632 -28 b 1179 415 929 -28 1135 149 l 1003 415 b 636 117 969 232 832 117 b 236 542 397 117 236 290 b 636 967 236 794 397 967 b 1003 668 832 967 969 853 l 1179 668 b 632 1111 1135 936 929 1111 b 58 542 296 1111 58 869 b 632 -28 58 215 296 -28 z m 475 1165 l 606 1292 b 622 1300 613 1297 618 1300 b 640 1292 628 1300 633 1297 l 771 1165 l 899 1165 l 699 1404 l 546 1404 l 347 1165 z "},"Ċ":{"ha":1225,"x_min":0,"x_max":0,"o":"m 632 -28 b 1179 415 929 -28 1135 149 l 1003 415 b 636 117 969 232 832 117 b 236 542 397 117 236 290 b 636 967 236 794 397 967 b 1003 668 832 967 969 853 l 1179 668 b 632 1111 1135 936 929 1111 b 58 542 296 1111 58 869 b 632 -28 58 215 296 -28 z m 622 1185 b 717 1275 679 1185 717 1225 b 622 1367 717 1326 679 1367 b 526 1275 565 1367 526 1326 b 622 1185 526 1225 565 1185 z "},"Ƈ":{"ha":1208,"x_min":0,"x_max":0,"o":"m 632 -28 b 1181 415 931 -28 1136 149 l 1003 415 b 636 117 969 232 832 117 b 236 542 397 117 236 290 b 636 967 236 794 397 967 b 1003 668 832 967 969 853 l 1181 668 b 1103 886 1168 747 1146 813 b 1032 1021 1068 943 1044 988 b 1013 1119 1019 1054 1013 1088 b 1142 1244 1013 1201 1065 1244 b 1271 1213 1186 1244 1231 1235 l 1271 1336 b 1108 1379 1225 1365 1171 1379 b 875 1186 965 1379 875 1299 b 917 1042 875 1136 889 1090 b 632 1111 836 1088 742 1111 b 58 542 299 1111 58 869 b 632 -28 58 215 299 -28 z "},"D":{"ha":1167,"x_min":0,"x_max":0,"o":"m 543 0 b 1107 542 881 0 1107 218 b 543 1083 1107 867 881 1083 l 126 1083 l 126 0 z m 296 946 l 533 946 b 929 542 781 946 929 790 b 533 138 929 290 781 138 l 296 138 z "},"Ɖ":{"ha":1228,"x_min":0,"x_max":0,"o":"m 604 0 b 1168 542 940 0 1168 218 b 604 1083 1168 867 940 1083 l 188 1083 l 188 607 l 14 607 l 14 481 l 188 481 l 188 0 z m 356 481 l 669 481 l 669 607 l 356 607 l 356 946 l 593 946 b 990 542 840 946 990 790 b 593 138 990 290 840 138 l 356 138 z "},"Ð":{"ha":1228,"x_min":0,"x_max":0,"o":"m 604 0 b 1168 542 940 0 1168 218 b 604 1083 1168 867 940 1083 l 188 1083 l 188 607 l 14 607 l 14 481 l 188 481 l 188 0 z m 356 481 l 669 481 l 669 607 l 356 607 l 356 946 l 593 946 b 990 542 840 946 990 790 b 593 138 990 290 840 138 l 356 138 z "},"Ď":{"ha":1167,"x_min":0,"x_max":0,"o":"m 126 0 l 126 1083 l 543 1083 b 1107 542 881 1083 1107 867 b 543 0 1107 218 881 0 z m 296 138 l 533 138 b 929 542 781 138 929 290 b 533 946 929 790 781 946 l 296 946 z m 274 1404 l 472 1165 l 625 1165 l 825 1404 l 697 1404 l 567 1278 b 549 1269 560 1272 554 1269 b 532 1278 544 1269 539 1272 l 401 1404 z "},"Ḑ":{"ha":1167,"x_min":0,"x_max":0,"o":"m 543 0 b 1107 542 881 0 1107 218 b 543 1083 1107 867 881 1083 l 126 1083 l 126 0 z m 296 946 l 533 946 b 929 542 781 946 929 790 b 533 138 929 290 781 138 l 296 138 z m 526 -365 l 619 -82 l 476 -82 l 418 -365 z "},"Ḓ":{"ha":1167,"x_min":0,"x_max":0,"o":"m 543 0 b 1107 542 881 0 1107 218 b 543 1083 1107 867 881 1083 l 126 1083 l 126 0 z m 296 946 l 533 946 b 929 542 781 946 929 790 b 533 138 929 290 781 138 l 296 138 z m 401 4818 l 532 4944 b 549 4953 539 4950 544 4953 b 567 4944 554 4953 560 4950 l 697 4818 l 825 4818 l 625 5057 l 472 5057 l 274 4818 z "},"Đ":{"ha":1228,"x_min":0,"x_max":0,"o":"m 604 0 b 1168 542 940 0 1168 218 b 604 1083 1168 867 940 1083 l 188 1083 l 188 607 l 14 607 l 14 481 l 188 481 l 188 0 z m 356 481 l 669 481 l 669 607 l 356 607 l 356 946 l 593 946 b 990 542 840 946 990 790 b 593 138 990 290 840 138 l 356 138 z "},"Ḍ":{"ha":1167,"x_min":0,"x_max":0,"o":"m 543 0 b 1107 542 881 0 1107 218 b 543 1083 1107 867 881 1083 l 126 1083 l 126 0 z m 296 946 l 533 946 b 929 542 781 946 929 790 b 533 138 929 290 781 138 l 296 138 z m 550 -283 b 644 -193 607 -283 644 -243 b 550 -101 644 -142 607 -101 b 454 -193 493 -101 454 -142 b 550 -283 454 -243 493 -283 z "},"Ɗ":{"ha":1396,"x_min":0,"x_max":0,"o":"m 772 0 b 1336 542 1108 0 1336 218 b 772 1083 1336 867 1108 1083 l 282 1083 b 19 863 115 1083 19 1007 b 82 651 19 792 44 711 l 207 651 b 163 833 175 728 163 783 b 289 951 163 913 204 951 l 354 951 l 354 0 z m 524 946 l 761 946 b 1158 542 1008 946 1158 790 b 761 138 1158 290 1008 138 l 524 138 z "},"Ḏ":{"ha":1167,"x_min":0,"x_max":0,"o":"m 543 0 b 1107 542 881 0 1107 218 b 543 1083 1107 867 881 1083 l 126 1083 l 126 0 z m 296 946 l 533 946 b 929 542 781 946 929 790 b 533 138 929 290 781 138 l 296 138 z m 783 -224 l 783 -114 l 317 -114 l 317 -224 z "},"E":{"ha":910,"x_min":0,"x_max":0,"o":"m 863 0 l 863 139 l 293 139 l 293 482 l 764 482 l 764 617 l 293 617 l 293 944 l 835 944 l 835 1083 l 126 1083 l 126 0 z "},"É":{"ha":910,"x_min":0,"x_max":0,"o":"m 126 0 l 126 1083 l 835 1083 l 835 944 l 293 944 l 293 617 l 764 617 l 764 482 l 293 482 l 293 139 l 863 139 l 863 0 z m 569 1165 l 856 1396 l 650 1396 l 408 1165 z "},"Ĕ":{"ha":910,"x_min":0,"x_max":0,"o":"m 863 0 l 863 139 l 293 139 l 293 482 l 764 482 l 764 617 l 293 617 l 293 944 l 835 944 l 835 1083 l 126 1083 l 126 0 z m 486 1165 b 740 1382 635 1165 729 1247 l 635 1382 b 486 1268 618 1310 569 1268 b 338 1382 403 1268 354 1310 l 232 1382 b 486 1165 243 1247 338 1165 z "},"Ě":{"ha":910,"x_min":0,"x_max":0,"o":"m 126 0 l 126 1083 l 835 1083 l 835 944 l 293 944 l 293 617 l 764 617 l 764 482 l 293 482 l 293 139 l 863 139 l 863 0 z m 211 1404 l 410 1165 l 563 1165 l 763 1404 l 635 1404 l 504 1278 b 486 1269 497 1272 492 1269 b 469 1278 482 1269 476 1272 l 339 1404 z "},"Ȩ":{"ha":910,"x_min":0,"x_max":0,"o":"m 863 0 l 863 139 l 293 139 l 293 482 l 764 482 l 764 617 l 293 617 l 293 944 l 835 944 l 835 1083 l 126 1083 l 126 0 z m 538 -361 b 738 -193 660 -361 738 -292 b 567 13 738 -106 671 -31 l 449 0 b 619 -179 561 -57 619 -122 b 535 -258 619 -229 589 -258 b 432 -151 475 -258 438 -219 l 310 -151 b 538 -361 317 -279 399 -361 z "},"Ê":{"ha":910,"x_min":0,"x_max":0,"o":"m 863 0 l 863 139 l 293 139 l 293 482 l 764 482 l 764 617 l 293 617 l 293 944 l 835 944 l 835 1083 l 126 1083 l 126 0 z m 339 1165 l 469 1292 b 486 1300 476 1297 482 1300 b 504 1292 492 1300 497 1297 l 635 1165 l 763 1165 l 563 1404 l 410 1404 l 211 1165 z "},"Ế":{"ha":910,"x_min":0,"x_max":0,"o":"m 863 0 l 863 139 l 293 139 l 293 482 l 764 482 l 764 617 l 293 617 l 293 944 l 835 944 l 835 1083 l 126 1083 l 126 0 z m 356 1165 l 469 1274 b 486 1281 474 1278 479 1281 b 503 1274 492 1281 497 1278 l 617 1165 l 746 1165 l 563 1381 l 410 1381 l 226 1165 z m 768 1350 l 974 1568 l 807 1568 l 643 1350 z "},"Ệ":{"ha":910,"x_min":0,"x_max":0,"o":"m 863 0 l 863 139 l 293 139 l 293 482 l 764 482 l 764 617 l 293 617 l 293 944 l 835 944 l 835 1083 l 126 1083 l 126 0 z m 519 -283 b 614 -193 576 -283 614 -243 b 519 -101 614 -142 576 -101 b 424 -193 463 -101 424 -142 b 519 -283 424 -243 463 -283 z m 339 1165 l 469 1292 b 486 1300 476 1297 482 1300 b 504 1292 492 1300 497 1297 l 635 1165 l 763 1165 l 563 1404 l 410 1404 l 211 1165 z "},"Ề":{"ha":910,"x_min":0,"x_max":0,"o":"m 126 0 l 126 1083 l 835 1083 l 835 944 l 293 944 l 293 617 l 764 617 l 764 482 l 293 482 l 293 139 l 863 139 l 863 0 z m 226 1165 l 410 1381 l 563 1381 l 746 1165 l 617 1165 l 503 1274 b 486 1281 497 1278 492 1281 b 469 1274 479 1281 474 1278 l 356 1165 z m 814 1350 l 650 1568 l 483 1568 l 689 1350 z "},"Ể":{"ha":910,"x_min":0,"x_max":0,"o":"m 863 0 l 863 139 l 293 139 l 293 482 l 764 482 l 764 617 l 293 617 l 293 944 l 835 944 l 835 1083 l 126 1083 l 126 0 z m 356 1165 l 469 1274 b 486 1281 474 1278 479 1281 b 503 1274 492 1281 497 1278 l 617 1165 l 746 1165 l 563 1381 l 410 1381 l 226 1165 z m 660 1340 b 886 1497 799 1350 886 1408 b 717 1625 886 1579 821 1625 b 564 1589 661 1625 603 1610 l 564 1506 b 689 1533 601 1522 649 1533 b 772 1485 744 1533 772 1517 b 660 1413 772 1451 732 1425 z "},"Ễ":{"ha":910,"x_min":0,"x_max":0,"o":"m 863 0 l 863 139 l 293 139 l 293 482 l 764 482 l 764 617 l 293 617 l 293 944 l 835 944 l 835 1083 l 126 1083 l 126 0 z m 356 1165 l 469 1274 b 486 1281 474 1278 479 1281 b 503 1274 492 1281 497 1278 l 617 1165 l 746 1165 l 563 1381 l 410 1381 l 226 1165 z m 585 1438 b 740 1614 672 1438 725 1508 l 651 1614 b 588 1539 642 1569 622 1539 b 389 1626 529 1539 481 1626 b 233 1451 304 1626 246 1557 l 321 1451 b 385 1525 331 1496 351 1525 b 585 1438 442 1525 492 1438 z "},"Ë":{"ha":910,"x_min":0,"x_max":0,"o":"m 863 0 l 863 139 l 293 139 l 293 482 l 764 482 l 764 617 l 293 617 l 293 944 l 835 944 l 835 1083 l 126 1083 l 126 0 z m 661 1197 b 757 1288 718 1197 757 1238 b 661 1379 757 1339 718 1379 b 567 1288 604 1379 567 1339 b 661 1197 567 1238 604 1197 z m 311 1197 b 406 1288 367 1197 406 1238 b 311 1379 406 1339 367 1379 b 215 1288 254 1379 215 1339 b 311 1197 215 1238 254 1197 z "},"Ė":{"ha":910,"x_min":0,"x_max":0,"o":"m 863 0 l 863 139 l 293 139 l 293 482 l 764 482 l 764 617 l 293 617 l 293 944 l 835 944 l 835 1083 l 126 1083 l 126 0 z m 486 1185 b 581 1275 543 1185 581 1225 b 486 1367 581 1326 543 1367 b 390 1275 429 1367 390 1326 b 486 1185 390 1225 429 1185 z "},"Ẹ":{"ha":910,"x_min":0,"x_max":0,"o":"m 863 0 l 863 139 l 293 139 l 293 482 l 764 482 l 764 617 l 293 617 l 293 944 l 835 944 l 835 1083 l 126 1083 l 126 0 z m 519 -283 b 614 -193 576 -283 614 -243 b 519 -101 614 -142 576 -101 b 424 -193 463 -101 424 -142 b 519 -283 424 -243 463 -283 z "},"È":{"ha":910,"x_min":0,"x_max":0,"o":"m 863 0 l 863 139 l 293 139 l 293 482 l 764 482 l 764 617 l 293 617 l 293 944 l 835 944 l 835 1083 l 126 1083 l 126 0 z m 564 1165 l 322 1396 l 117 1396 l 403 1165 z "},"Ẻ":{"ha":910,"x_min":0,"x_max":0,"o":"m 863 0 l 863 139 l 293 139 l 293 482 l 764 482 l 764 617 l 293 617 l 293 944 l 835 944 l 835 1083 l 126 1083 l 126 0 z m 436 1153 b 683 1322 588 1163 683 1224 b 499 1461 683 1411 611 1461 b 329 1421 436 1461 369 1443 l 329 1331 b 469 1363 375 1351 422 1363 b 564 1308 532 1363 564 1344 b 438 1231 564 1269 522 1243 z "},"Ē":{"ha":910,"x_min":0,"x_max":0,"o":"m 863 0 l 863 139 l 293 139 l 293 482 l 764 482 l 764 617 l 293 617 l 293 944 l 835 944 l 835 1083 l 126 1083 l 126 0 z m 719 1196 l 719 1306 l 253 1306 l 253 1196 z "},"Ę":{"ha":910,"x_min":0,"x_max":0,"o":"m 863 0 l 863 139 l 293 139 l 293 482 l 764 482 l 764 617 l 293 617 l 293 944 l 835 944 l 835 1083 l 126 1083 l 126 0 z m 804 -349 b 903 -332 840 -349 874 -343 l 903 -225 b 826 -237 879 -233 853 -237 b 743 -169 775 -237 743 -212 b 863 0 743 -119 778 -72 l 800 44 b 613 -194 668 -32 613 -112 b 804 -349 613 -290 689 -349 z "},"Ɛ":{"ha":924,"x_min":0,"x_max":0,"o":"m 472 -28 b 886 321 713 -28 865 103 l 719 321 b 478 110 704 186 624 110 b 232 317 329 110 232 185 b 475 508 232 435 325 508 l 651 508 l 651 629 l 478 629 b 274 806 356 629 274 700 b 472 975 274 910 351 975 b 683 799 596 975 667 911 l 843 799 b 465 1110 826 997 682 1110 b 107 822 246 1110 107 993 b 294 578 107 706 179 611 b 58 299 146 543 58 442 b 472 -28 58 97 233 -28 z "},"Ǝ":{"ha":910,"x_min":0,"x_max":0,"o":"m 783 1083 l 75 1083 l 75 944 l 617 944 l 617 617 l 146 617 l 146 482 l 617 482 l 617 139 l 47 139 l 47 0 l 783 0 z "},"Ʃ":{"ha":793,"x_min":0,"x_max":0,"o":"m 747 0 l 747 139 l 292 139 l 599 550 l 300 944 l 740 944 l 740 1083 l 14 1083 l 14 1079 l 408 551 l 7 3 l 7 0 z "},"Ẽ":{"ha":910,"x_min":0,"x_max":0,"o":"m 863 0 l 863 139 l 293 139 l 293 482 l 764 482 l 764 617 l 293 617 l 293 944 l 835 944 l 835 1083 l 126 1083 l 126 0 z m 601 1176 b 769 1368 694 1176 753 1253 l 674 1368 b 603 1286 664 1318 640 1286 b 372 1385 536 1286 482 1385 b 204 1193 279 1385 221 1308 l 300 1193 b 372 1276 311 1243 333 1276 b 601 1176 436 1276 492 1176 z "},"Ḛ":{"ha":910,"x_min":0,"x_max":0,"o":"m 863 0 l 863 139 l 293 139 l 293 482 l 764 482 l 764 617 l 293 617 l 293 944 l 835 944 l 835 1083 l 126 1083 l 126 0 z m 635 -301 b 803 -110 728 -301 786 -225 l 707 -110 b 636 -192 697 -160 674 -192 b 406 -93 569 -192 515 -93 b 238 -285 313 -93 254 -169 l 333 -285 b 406 -201 344 -235 367 -201 b 635 -301 469 -201 525 -301 z "},"Ʒ":{"ha":854,"x_min":0,"x_max":0,"o":"m 422 -28 b 800 321 653 -28 800 119 b 460 660 800 511 669 649 l 753 1081 l 753 1083 l 92 1083 l 92 944 l 492 944 l 207 536 l 207 533 l 394 533 b 633 318 539 533 633 450 b 422 110 633 194 551 110 b 189 306 293 110 207 185 l 22 306 b 422 -28 44 101 210 -28 z "},"Ǯ":{"ha":854,"x_min":0,"x_max":0,"o":"m 422 -28 b 22 306 210 -28 44 101 l 189 306 b 422 110 207 185 293 110 b 633 318 551 110 633 194 b 394 533 633 450 539 533 l 207 533 l 207 536 l 492 944 l 92 944 l 92 1083 l 753 1083 l 753 1081 l 460 660 b 800 321 669 649 800 511 b 422 -28 800 119 653 -28 z m 139 1404 l 338 1165 l 490 1165 l 690 1404 l 563 1404 l 432 1278 b 414 1269 425 1272 419 1269 b 397 1278 410 1269 404 1272 l 267 1404 z "},"F":{"ha":842,"x_min":0,"x_max":0,"o":"m 293 0 l 293 460 l 753 460 l 753 597 l 293 597 l 293 946 l 806 946 l 806 1083 l 126 1083 l 126 0 z "},"Ƒ":{"ha":842,"x_min":0,"x_max":0,"o":"m 60 -349 b 293 -64 225 -349 293 -264 l 293 460 l 753 460 l 753 597 l 293 597 l 293 946 l 806 946 l 806 1083 l 126 1083 l 126 -65 b 21 -208 126 -169 97 -208 b -114 -179 -21 -208 -65 -199 l -114 -310 b 60 -349 -71 -332 3 -349 z "},"G":{"ha":1244,"x_min":0,"x_max":0,"o":"m 607 -25 b 975 144 768 -25 896 40 b 1008 169 990 165 997 169 b 1032 135 1019 169 1028 158 b 1044 0 1038 107 1040 49 l 1163 0 l 1163 517 l 1007 517 b 950 297 1000 438 982 358 b 635 117 888 181 786 117 b 238 544 394 117 238 290 b 640 965 238 801 407 965 b 994 706 825 965 954 871 l 1174 706 b 636 1110 1126 957 917 1110 b 60 540 301 1110 60 876 b 607 -25 60 200 294 -25 z "},"Ğ":{"ha":1244,"x_min":0,"x_max":0,"o":"m 607 -25 b 975 144 768 -25 896 40 b 1008 169 990 165 997 169 b 1032 135 1019 169 1028 158 b 1044 0 1038 107 1040 49 l 1163 0 l 1163 517 l 1007 517 b 950 297 1000 438 982 358 b 635 117 888 181 786 117 b 238 544 394 117 238 290 b 640 965 238 801 407 965 b 994 706 825 965 954 871 l 1174 706 b 636 1110 1126 957 917 1110 b 60 540 301 1110 60 876 b 607 -25 60 200 294 -25 z m 628 1165 b 882 1382 776 1165 871 1247 l 776 1382 b 628 1268 760 1310 711 1268 b 479 1382 544 1268 496 1310 l 374 1382 b 628 1165 385 1247 479 1165 z "},"Ǧ":{"ha":1244,"x_min":0,"x_max":0,"o":"m 607 -25 b 60 540 294 -25 60 200 b 636 1110 60 876 301 1110 b 1174 706 917 1110 1126 957 l 994 706 b 640 965 954 871 825 965 b 238 544 407 965 238 801 b 635 117 238 290 394 117 b 950 297 786 117 888 181 b 1007 517 982 358 1000 438 l 1163 517 l 1163 0 l 1044 0 b 1032 135 1040 49 1038 107 b 1008 169 1028 158 1019 169 b 975 144 997 169 990 165 b 607 -25 896 40 768 -25 z m 351 1404 l 550 1165 l 703 1165 l 903 1404 l 775 1404 l 644 1278 b 626 1269 638 1272 632 1269 b 610 1278 622 1269 617 1272 l 479 1404 z "},"Ĝ":{"ha":1244,"x_min":0,"x_max":0,"o":"m 607 -25 b 975 144 768 -25 896 40 b 1008 169 990 165 997 169 b 1032 135 1019 169 1028 158 b 1044 0 1038 107 1040 49 l 1163 0 l 1163 517 l 1007 517 b 950 297 1000 438 982 358 b 635 117 888 181 786 117 b 238 544 394 117 238 290 b 640 965 238 801 407 965 b 994 706 825 965 954 871 l 1174 706 b 636 1110 1126 957 917 1110 b 60 540 301 1110 60 876 b 607 -25 60 200 294 -25 z m 481 1165 l 611 1292 b 628 1300 618 1297 624 1300 b 646 1292 633 1300 639 1297 l 776 1165 l 904 1165 l 704 1404 l 551 1404 l 353 1165 z "},"Ģ":{"ha":1244,"x_min":0,"x_max":0,"o":"m 607 -25 b 975 144 768 -25 896 40 b 1008 169 990 165 997 169 b 1032 135 1019 169 1028 158 b 1044 0 1038 107 1040 49 l 1163 0 l 1163 517 l 1007 517 b 950 297 1000 438 982 358 b 635 117 888 181 786 117 b 238 544 394 117 238 290 b 640 965 238 801 407 965 b 994 706 825 965 954 871 l 1174 706 b 636 1110 1126 957 917 1110 b 60 540 301 1110 60 876 b 607 -25 60 200 294 -25 z m 672 -365 l 765 -82 l 622 -82 l 564 -365 z "},"Ġ":{"ha":1244,"x_min":0,"x_max":0,"o":"m 607 -25 b 975 144 768 -25 896 40 b 1008 169 990 165 997 169 b 1032 135 1019 169 1028 158 b 1044 0 1038 107 1040 49 l 1163 0 l 1163 517 l 1007 517 b 950 297 1000 438 982 358 b 635 117 888 181 786 117 b 238 544 394 117 238 290 b 640 965 238 801 407 965 b 994 706 825 965 954 871 l 1174 706 b 636 1110 1126 957 917 1110 b 60 540 301 1110 60 876 b 607 -25 60 200 294 -25 z m 628 1185 b 722 1275 685 1185 722 1225 b 628 1367 722 1326 685 1367 b 532 1275 571 1367 532 1326 b 628 1185 532 1225 571 1185 z "},"Ɠ":{"ha":1222,"x_min":0,"x_max":0,"o":"m 607 -25 b 975 144 769 -25 896 40 b 1008 169 990 165 997 169 b 1032 135 1019 169 1028 158 b 1044 0 1038 107 1043 49 l 1163 0 l 1163 517 l 1008 517 b 950 297 1001 438 982 358 b 635 117 889 181 786 117 b 238 544 394 117 238 290 b 642 965 238 801 407 965 b 996 706 825 965 953 871 l 1174 706 b 1104 886 1161 768 1139 824 b 1015 1119 1038 1001 1015 1051 b 1143 1243 1015 1199 1069 1243 b 1274 1210 1189 1243 1233 1232 l 1274 1333 b 1110 1379 1228 1364 1172 1379 b 879 1186 971 1379 879 1301 b 921 1042 879 1136 893 1090 b 636 1110 842 1088 746 1110 b 60 540 301 1110 60 876 b 607 -25 60 200 296 -25 z "},"Ɂ":{"ha":750,"x_min":0,"x_max":0,"o":"m 431 0 l 431 249 b 550 525 431 372 446 424 b 718 826 682 651 718 728 b 383 1108 718 993 589 1108 b 21 814 193 1108 49 1004 l 190 814 b 382 969 211 921 288 969 b 549 824 483 969 549 917 b 426 617 549 758 519 701 b 261 251 288 494 261 396 l 261 0 z "},"Ḡ":{"ha":1244,"x_min":0,"x_max":0,"o":"m 607 -25 b 975 144 768 -25 896 40 b 1008 169 990 165 997 169 b 1032 135 1019 169 1028 158 b 1044 0 1038 107 1040 49 l 1163 0 l 1163 517 l 1007 517 b 950 297 1000 438 982 358 b 635 117 888 181 786 117 b 238 544 394 117 238 290 b 640 965 238 801 407 965 b 994 706 825 965 954 871 l 1174 706 b 636 1110 1126 957 917 1110 b 60 540 301 1110 60 876 b 607 -25 60 200 294 -25 z m 861 1196 l 861 1306 l 394 1306 l 394 1196 z "},"Ǥ":{"ha":1356,"x_min":0,"x_max":0,"o":"m 607 -25 b 975 144 768 -25 896 40 b 1008 169 990 165 997 169 b 1032 135 1019 169 1028 158 b 1044 0 1038 107 1040 49 l 1163 0 l 1163 325 l 1332 325 l 1332 440 l 1163 440 l 1163 501 l 1006 501 b 996 440 1003 481 1000 460 l 714 440 l 714 325 l 963 325 l 950 297 b 635 117 888 181 786 117 b 238 544 394 117 238 290 b 640 965 238 801 407 965 b 994 706 825 965 954 871 l 1174 706 b 636 1110 1126 957 917 1110 b 60 540 301 1110 60 876 b 607 -25 60 200 294 -25 z "},"H":{"ha":1142,"x_min":0,"x_max":0,"o":"m 296 0 l 296 479 l 847 479 l 847 0 l 1015 0 l 1015 1083 l 847 1083 l 847 617 l 296 617 l 296 1083 l 126 1083 l 126 0 z "},"Ħ":{"ha":1243,"x_min":0,"x_max":0,"o":"m 346 0 l 346 478 l 897 478 l 897 0 l 1067 0 l 1067 792 l 1224 792 l 1224 901 l 1067 901 l 1067 1083 l 897 1083 l 897 901 l 346 901 l 346 1083 l 176 1083 l 176 901 l 19 901 l 19 792 l 176 792 l 176 0 z m 346 792 l 897 792 l 897 610 l 346 610 z "},"Ḫ":{"ha":1142,"x_min":0,"x_max":0,"o":"m 296 0 l 296 479 l 847 479 l 847 0 l 1015 0 l 1015 1083 l 847 1083 l 847 617 l 296 617 l 296 1083 l 126 1083 l 126 0 z m 572 -299 b 826 -82 721 -299 815 -217 l 721 -82 b 572 -196 704 -154 656 -196 b 424 -82 489 -196 440 -154 l 318 -82 b 572 -299 329 -217 424 -299 z "},"Ȟ":{"ha":1142,"x_min":0,"x_max":0,"o":"m 126 0 l 126 1083 l 296 1083 l 296 617 l 847 617 l 847 1083 l 1015 1083 l 1015 0 l 847 0 l 847 479 l 296 479 l 296 0 z m 296 1404 l 494 1165 l 647 1165 l 847 1404 l 719 1404 l 589 1278 b 571 1269 582 1272 576 1269 b 554 1278 567 1269 561 1272 l 424 1404 z "},"Ḩ":{"ha":1142,"x_min":0,"x_max":0,"o":"m 296 0 l 296 479 l 847 479 l 847 0 l 1015 0 l 1015 1083 l 847 1083 l 847 617 l 296 617 l 296 1083 l 126 1083 l 126 0 z m 235 -361 b 435 -193 357 -361 435 -292 b 264 13 435 -106 368 -31 l 146 0 b 317 -179 258 -57 317 -122 b 232 -258 317 -229 286 -258 b 129 -151 172 -258 135 -219 l 7 -151 b 235 -361 14 -279 96 -361 z "},"Ĥ":{"ha":1142,"x_min":0,"x_max":0,"o":"m 296 0 l 296 479 l 847 479 l 847 0 l 1015 0 l 1015 1083 l 847 1083 l 847 617 l 296 617 l 296 1083 l 126 1083 l 126 0 z m 425 1165 l 556 1292 b 572 1300 563 1297 568 1300 b 590 1292 578 1300 583 1297 l 721 1165 l 849 1165 l 649 1404 l 496 1404 l 297 1165 z "},"Ḧ":{"ha":1142,"x_min":0,"x_max":0,"o":"m 296 0 l 296 479 l 847 479 l 847 0 l 1015 0 l 1015 1083 l 847 1083 l 847 617 l 296 617 l 296 1083 l 126 1083 l 126 0 z m 747 1197 b 843 1288 804 1197 843 1238 b 747 1379 843 1339 804 1379 b 653 1288 690 1379 653 1339 b 747 1197 653 1238 690 1197 z m 397 1197 b 492 1288 453 1197 492 1238 b 397 1379 492 1339 453 1379 b 301 1288 340 1379 301 1339 b 397 1197 301 1238 340 1197 z "},"Ḣ":{"ha":1142,"x_min":0,"x_max":0,"o":"m 296 0 l 296 479 l 847 479 l 847 0 l 1015 0 l 1015 1083 l 847 1083 l 847 617 l 296 617 l 296 1083 l 126 1083 l 126 0 z m 572 1185 b 667 1275 629 1185 667 1225 b 572 1367 667 1326 629 1367 b 476 1275 515 1367 476 1326 b 572 1185 476 1225 515 1185 z "},"Ḥ":{"ha":1142,"x_min":0,"x_max":0,"o":"m 296 0 l 296 479 l 847 479 l 847 0 l 1015 0 l 1015 1083 l 847 1083 l 847 617 l 296 617 l 296 1083 l 126 1083 l 126 0 z m 572 -283 b 667 -193 629 -283 667 -243 b 572 -101 667 -142 629 -101 b 476 -193 515 -101 476 -142 b 572 -283 476 -243 515 -283 z "},"Ɦ":{"ha":1388,"x_min":0,"x_max":0,"o":"m 540 0 l 540 479 l 1092 479 l 1092 0 l 1261 0 l 1261 1083 l 1092 1083 l 1092 617 l 540 617 l 540 1083 l 281 1083 b 19 863 114 1083 19 1007 b 81 651 19 792 46 711 l 207 651 b 163 833 175 728 163 783 b 288 951 163 913 204 951 l 372 951 l 372 0 z "},"Ɥ":{"ha":1038,"x_min":0,"x_max":0,"o":"m 911 0 l 911 1083 l 743 1083 l 743 775 b 672 510 743 657 719 569 b 464 414 624 446 554 414 b 244 643 324 414 244 497 l 244 1083 l 75 1083 l 75 615 b 422 267 75 393 206 267 b 699 389 546 267 636 315 b 726 410 714 407 717 410 b 743 386 738 410 743 401 l 743 0 z "},"I":{"ha":422,"x_min":0,"x_max":0,"o":"m 296 0 l 296 1083 l 126 1083 l 126 0 z "},"Ĳ":{"ha":1069,"x_min":0,"x_max":0,"o":"m 283 479 l 283 1083 l 114 1083 l 114 479 z m 553 -28 b 954 385 813 -28 954 128 l 954 1083 l 785 1083 l 785 382 b 553 113 785 203 707 113 b 285 360 407 113 313 200 l 113 360 b 257 74 131 238 178 142 b 553 -28 336 6 435 -28 z "},"Í":{"ha":422,"x_min":0,"x_max":0,"o":"m 126 0 l 126 1083 l 296 1083 l 296 0 z m 294 1165 l 581 1396 l 375 1396 l 133 1165 z "},"Ĭ":{"ha":422,"x_min":0,"x_max":0,"o":"m 296 0 l 296 1083 l 126 1083 l 126 0 z m 211 1165 b 465 1382 360 1165 454 1247 l 360 1382 b 211 1268 343 1310 294 1268 b 63 1382 128 1268 79 1310 l -43 1382 b 211 1165 -32 1247 63 1165 z "},"Ǐ":{"ha":422,"x_min":0,"x_max":0,"o":"m 126 0 l 126 1083 l 296 1083 l 296 0 z m -64 1404 l 135 1165 l 288 1165 l 488 1404 l 360 1404 l 229 1278 b 211 1269 222 1272 217 1269 b 194 1278 207 1269 201 1272 l 64 1404 z "},"Î":{"ha":422,"x_min":0,"x_max":0,"o":"m 296 0 l 296 1083 l 126 1083 l 126 0 z m 64 1165 l 194 1292 b 211 1300 201 1297 207 1300 b 229 1292 217 1300 222 1297 l 360 1165 l 488 1165 l 288 1404 l 135 1404 l -64 1165 z "},"Ï":{"ha":422,"x_min":0,"x_max":0,"o":"m 296 0 l 296 1083 l 126 1083 l 126 0 z m 386 1197 b 482 1288 443 1197 482 1238 b 386 1379 482 1339 443 1379 b 292 1288 329 1379 292 1339 b 386 1197 292 1238 329 1197 z m 36 1197 b 131 1288 92 1197 131 1238 b 36 1379 131 1339 92 1379 b -60 1288 -21 1379 -60 1339 b 36 1197 -60 1238 -21 1197 z "},"Ḯ":{"ha":422,"x_min":0,"x_max":0,"o":"m 296 0 l 296 1083 l 126 1083 l 126 0 z m 367 1188 b 454 1272 421 1188 454 1226 b 367 1357 454 1318 418 1357 b 279 1272 313 1357 279 1318 b 367 1188 279 1226 313 1188 z m 56 1188 b 143 1272 110 1188 143 1226 b 56 1357 143 1318 107 1357 b -32 1272 1 1357 -32 1318 b 56 1188 -32 1226 1 1188 z m 265 1414 l 471 1632 l 304 1632 l 140 1414 z "},"İ":{"ha":422,"x_min":0,"x_max":0,"o":"m 296 0 l 296 1083 l 126 1083 l 126 0 z m 211 1185 b 306 1275 268 1185 306 1225 b 211 1367 306 1326 268 1367 b 115 1275 154 1367 115 1326 b 211 1185 115 1225 154 1185 z "},"Ị":{"ha":422,"x_min":0,"x_max":0,"o":"m 296 0 l 296 1083 l 126 1083 l 126 0 z m 211 -283 b 306 -193 268 -283 306 -243 b 211 -101 306 -142 268 -101 b 115 -193 154 -101 115 -142 b 211 -283 115 -243 154 -283 z "},"Ì":{"ha":422,"x_min":0,"x_max":0,"o":"m 296 0 l 296 1083 l 126 1083 l 126 0 z m 289 1165 l 47 1396 l -158 1396 l 128 1165 z "},"Ỉ":{"ha":422,"x_min":0,"x_max":0,"o":"m 296 0 l 296 1083 l 126 1083 l 126 0 z m 161 1153 b 408 1322 313 1163 408 1224 b 224 1461 408 1411 336 1461 b 54 1421 161 1461 94 1443 l 54 1331 b 194 1363 100 1351 147 1363 b 289 1308 257 1363 289 1344 b 163 1231 289 1269 247 1243 z "},"Ī":{"ha":422,"x_min":0,"x_max":0,"o":"m 296 0 l 296 1083 l 126 1083 l 126 0 z m 444 1196 l 444 1306 l -22 1306 l -22 1196 z "},"Į":{"ha":422,"x_min":0,"x_max":0,"o":"m 296 0 l 296 1083 l 126 1083 l 126 0 z m 238 -349 b 336 -332 274 -349 307 -343 l 336 -225 b 260 -237 313 -233 286 -237 b 176 -169 208 -237 176 -212 b 296 0 176 -119 211 -72 l 233 44 b 46 -194 101 -32 46 -112 b 238 -349 46 -290 122 -349 z "},"Ɩ":{"ha":550,"x_min":0,"x_max":0,"o":"m 376 -12 b 539 19 439 -12 501 1 l 539 151 b 408 128 494 136 454 128 b 288 275 325 128 288 175 l 288 1083 l 118 1083 l 118 260 b 376 -12 118 67 204 -12 z "},"Ɨ":{"ha":526,"x_min":0,"x_max":0,"o":"m 347 0 l 347 490 l 507 490 l 507 617 l 347 617 l 347 1083 l 179 1083 l 179 617 l 21 617 l 21 490 l 179 490 l 179 0 z "},"Ĩ":{"ha":422,"x_min":0,"x_max":0,"o":"m 296 0 l 296 1083 l 126 1083 l 126 0 z m 326 1176 b 494 1368 419 1176 478 1253 l 399 1368 b 328 1286 389 1318 365 1286 b 97 1385 261 1286 207 1385 b -71 1193 4 1385 -54 1308 l 25 1193 b 97 1276 36 1243 58 1276 b 326 1176 161 1276 217 1176 z "},"Ḭ":{"ha":422,"x_min":0,"x_max":0,"o":"m 296 0 l 296 1083 l 126 1083 l 126 0 z m 328 -301 b 496 -110 421 -301 479 -225 l 400 -110 b 329 -192 390 -160 367 -192 b 99 -93 263 -192 208 -93 b -69 -285 6 -93 -53 -169 l 26 -285 b 99 -201 38 -235 60 -201 b 328 -301 163 -201 218 -301 z "},"J":{"ha":976,"x_min":0,"x_max":0,"o":"m 460 -28 b 861 385 719 -28 861 128 l 861 1083 l 693 1083 l 693 382 b 461 113 693 203 615 113 b 192 360 313 113 219 200 l 18 360 b 460 -28 56 115 222 -28 z "},"Ĵ":{"ha":976,"x_min":0,"x_max":0,"o":"m 460 -28 b 861 385 719 -28 861 128 l 861 1083 l 693 1083 l 693 382 b 461 113 693 203 615 113 b 192 360 313 113 219 200 l 18 360 b 460 -28 56 115 222 -28 z m 629 1165 l 760 1292 b 776 1300 767 1297 772 1300 b 794 1292 782 1300 788 1297 l 925 1165 l 1053 1165 l 853 1404 l 700 1404 l 501 1165 z "},"Ʝ":{"ha":940,"x_min":0,"x_max":0,"o":"m 378 -26 b 750 319 600 -26 729 110 b 932 226 813 293 872 263 l 932 346 b 753 438 878 379 815 411 l 753 1083 l 583 1083 l 583 492 b 360 529 511 517 436 529 b 35 260 160 529 35 417 b 378 -26 35 88 172 -26 z m 183 260 b 368 415 183 353 256 415 b 583 375 444 415 513 401 l 583 347 b 371 96 583 188 506 96 b 183 260 258 96 183 161 z "},"K":{"ha":990,"x_min":0,"x_max":0,"o":"m 296 0 l 296 533 l 786 0 l 1008 0 l 490 556 l 988 1083 l 786 1083 l 296 558 l 296 1083 l 126 1083 l 126 0 z "},"Ǩ":{"ha":990,"x_min":0,"x_max":0,"o":"m 126 0 l 126 1083 l 296 1083 l 296 558 l 786 1083 l 988 1083 l 490 556 l 1008 0 l 786 0 l 296 533 l 296 0 z m 233 1404 l 432 1165 l 585 1165 l 785 1404 l 657 1404 l 526 1278 b 508 1269 519 1272 514 1269 b 492 1278 504 1269 499 1272 l 361 1404 z "},"Ķ":{"ha":990,"x_min":0,"x_max":0,"o":"m 296 0 l 296 533 l 786 0 l 1008 0 l 490 556 l 988 1083 l 786 1083 l 296 558 l 296 1083 l 126 1083 l 126 0 z m 503 -365 l 596 -82 l 453 -82 l 394 -365 z "},"Ḳ":{"ha":990,"x_min":0,"x_max":0,"o":"m 296 0 l 296 533 l 786 0 l 1008 0 l 490 556 l 988 1083 l 786 1083 l 296 558 l 296 1083 l 126 1083 l 126 0 z m 526 -283 b 621 -193 583 -283 621 -243 b 526 -101 621 -142 583 -101 b 431 -193 469 -101 431 -142 b 526 -283 431 -243 469 -283 z "},"Ƙ":{"ha":1078,"x_min":0,"x_max":0,"o":"m 297 0 l 297 533 l 788 0 l 1010 0 l 490 558 l 794 876 b 926 956 851 939 881 956 b 1071 896 976 956 1022 931 l 1071 1039 b 900 1106 1021 1082 960 1106 b 693 990 821 1106 767 1075 l 297 558 l 297 1083 l 126 1083 l 126 0 z "},"Ḵ":{"ha":990,"x_min":0,"x_max":0,"o":"m 296 0 l 296 533 l 786 0 l 1008 0 l 490 556 l 988 1083 l 786 1083 l 296 558 l 296 1083 l 126 1083 l 126 0 z m 760 -224 l 760 -114 l 293 -114 l 293 -224 z "},"L":{"ha":829,"x_min":0,"x_max":0,"o":"m 810 0 l 810 139 l 296 139 l 296 1083 l 126 1083 l 126 0 z "},"Ĺ":{"ha":829,"x_min":0,"x_max":0,"o":"m 126 0 l 126 1083 l 296 1083 l 296 139 l 810 139 l 810 0 z m 294 1165 l 581 1396 l 375 1396 l 133 1165 z "},"Ľ":{"ha":829,"x_min":0,"x_max":0,"o":"m 810 0 l 810 139 l 296 139 l 296 1083 l 126 1083 l 126 0 z m 583 725 l 646 1083 l 499 1083 l 471 725 z "},"Ḽ":{"ha":829,"x_min":0,"x_max":0,"o":"m 810 0 l 810 139 l 296 139 l 296 1083 l 126 1083 l 126 0 z m 343 4818 l 474 4944 b 490 4953 481 4950 486 4953 b 508 4944 496 4953 501 4950 l 639 4818 l 767 4818 l 567 5057 l 414 5057 l 215 4818 z "},"Ļ":{"ha":829,"x_min":0,"x_max":0,"o":"m 810 0 l 810 139 l 296 139 l 296 1083 l 126 1083 l 126 0 z m 467 -365 l 560 -82 l 417 -82 l 358 -365 z "},"Ŀ":{"ha":833,"x_min":0,"x_max":0,"o":"m 810 0 l 810 139 l 296 139 l 296 1083 l 126 1083 l 126 0 z m 600 486 b 700 581 660 486 700 529 b 600 676 700 635 660 676 b 500 581 539 676 500 635 b 600 486 500 529 539 486 z "},"Ḷ":{"ha":829,"x_min":0,"x_max":0,"o":"m 810 0 l 810 139 l 296 139 l 296 1083 l 126 1083 l 126 0 z m 490 -283 b 585 -193 547 -283 585 -243 b 490 -101 585 -142 547 -101 b 394 -193 433 -101 394 -142 b 490 -283 394 -243 433 -283 z "},"Ḻ":{"ha":829,"x_min":0,"x_max":0,"o":"m 810 0 l 810 139 l 296 139 l 296 1083 l 126 1083 l 126 0 z m 724 -224 l 724 -114 l 257 -114 l 257 -224 z "},"Ł":{"ha":901,"x_min":0,"x_max":0,"o":"m 882 0 l 882 139 l 368 139 l 368 432 l 679 597 l 679 736 l 368 571 l 368 1083 l 199 1083 l 199 481 l 44 397 l 44 260 l 199 342 l 199 0 z "},"M":{"ha":1396,"x_min":0,"x_max":0,"o":"m 281 0 l 281 899 l 621 0 l 768 0 l 1108 899 l 1108 0 l 1269 0 l 1269 1083 l 1038 1083 l 701 203 l 363 1083 l 126 1083 l 126 0 z "},"Ḿ":{"ha":1396,"x_min":0,"x_max":0,"o":"m 126 0 l 126 1083 l 363 1083 l 701 203 l 1038 1083 l 1269 1083 l 1269 0 l 1108 0 l 1108 899 l 768 0 l 621 0 l 281 899 l 281 0 z m 781 1165 l 1067 1396 l 861 1396 l 619 1165 z "},"Ṁ":{"ha":1396,"x_min":0,"x_max":0,"o":"m 281 0 l 281 899 l 621 0 l 768 0 l 1108 899 l 1108 0 l 1269 0 l 1269 1083 l 1038 1083 l 701 203 l 363 1083 l 126 1083 l 126 0 z m 697 1185 b 792 1275 754 1185 792 1225 b 697 1367 792 1326 754 1367 b 601 1275 640 1367 601 1326 b 697 1185 601 1225 640 1185 z "},"Ṃ":{"ha":1396,"x_min":0,"x_max":0,"o":"m 281 0 l 281 899 l 621 0 l 768 0 l 1108 899 l 1108 0 l 1269 0 l 1269 1083 l 1038 1083 l 701 203 l 363 1083 l 126 1083 l 126 0 z m 697 -283 b 792 -193 754 -283 792 -243 b 697 -101 792 -142 754 -101 b 601 -193 640 -101 601 -142 b 697 -283 601 -243 640 -283 z "},"N":{"ha":1164,"x_min":0,"x_max":0,"o":"m 286 0 l 286 860 l 849 0 l 1039 0 l 1039 1083 l 879 1083 l 879 224 l 317 1083 l 126 1083 l 126 0 z "},"Ń":{"ha":1164,"x_min":0,"x_max":0,"o":"m 126 0 l 126 1083 l 317 1083 l 879 224 l 879 1083 l 1039 1083 l 1039 0 l 849 0 l 286 860 l 286 0 z m 667 1165 l 953 1396 l 747 1396 l 506 1165 z "},"Ň":{"ha":1164,"x_min":0,"x_max":0,"o":"m 126 0 l 126 1083 l 317 1083 l 879 224 l 879 1083 l 1039 1083 l 1039 0 l 849 0 l 286 860 l 286 0 z m 307 1404 l 506 1165 l 658 1165 l 858 1404 l 731 1404 l 600 1278 b 582 1269 593 1272 588 1269 b 565 1278 578 1269 572 1272 l 435 1404 z "},"Ṋ":{"ha":1164,"x_min":0,"x_max":0,"o":"m 286 0 l 286 860 l 849 0 l 1039 0 l 1039 1083 l 879 1083 l 879 224 l 317 1083 l 126 1083 l 126 0 z m 435 4818 l 565 4944 b 582 4953 572 4950 578 4953 b 600 4944 588 4953 593 4950 l 731 4818 l 858 4818 l 658 5057 l 506 5057 l 307 4818 z "},"Ņ":{"ha":1164,"x_min":0,"x_max":0,"o":"m 286 0 l 286 860 l 849 0 l 1039 0 l 1039 1083 l 879 1083 l 879 224 l 317 1083 l 126 1083 l 126 0 z m 560 -365 l 653 -82 l 510 -82 l 451 -365 z "},"Ṅ":{"ha":1164,"x_min":0,"x_max":0,"o":"m 286 0 l 286 860 l 849 0 l 1039 0 l 1039 1083 l 879 1083 l 879 224 l 317 1083 l 126 1083 l 126 0 z m 583 1185 b 678 1275 640 1185 678 1225 b 583 1367 678 1326 640 1367 b 488 1275 526 1367 488 1326 b 583 1185 488 1225 526 1185 z "},"Ṇ":{"ha":1164,"x_min":0,"x_max":0,"o":"m 286 0 l 286 860 l 849 0 l 1039 0 l 1039 1083 l 879 1083 l 879 224 l 317 1083 l 126 1083 l 126 0 z m 583 -283 b 678 -193 640 -283 678 -243 b 583 -101 678 -142 640 -101 b 488 -193 526 -101 488 -142 b 583 -283 488 -243 526 -283 z "},"Ǹ":{"ha":1164,"x_min":0,"x_max":0,"o":"m 286 0 l 286 860 l 849 0 l 1039 0 l 1039 1083 l 879 1083 l 879 224 l 317 1083 l 126 1083 l 126 0 z m 661 1165 l 419 1396 l 214 1396 l 500 1165 z "},"Ŋ":{"ha":1178,"x_min":0,"x_max":0,"o":"m 793 -349 b 1064 -17 982 -349 1064 -249 l 1064 668 b 678 1110 1064 947 921 1110 b 328 921 517 1110 407 1039 b 292 890 310 894 304 890 b 261 940 276 890 265 907 b 253 1083 258 967 253 1043 l 126 1083 l 126 0 l 294 0 l 294 457 b 389 829 294 611 328 740 b 646 965 449 918 531 965 b 896 646 803 965 896 847 l 896 -33 b 757 -208 896 -151 856 -208 b 572 -171 689 -208 626 -193 l 572 -301 b 793 -349 639 -331 728 -349 z "},"Ɲ":{"ha":1164,"x_min":0,"x_max":0,"o":"m 57 -349 b 286 -64 218 -349 286 -264 l 286 860 l 849 0 l 1039 0 l 1039 1083 l 879 1083 l 879 224 l 317 1083 l 126 1083 l 126 -65 b 19 -208 126 -169 96 -208 b -115 -179 -22 -208 -67 -199 l -115 -310 b 57 -349 -71 -332 1 -349 z "},"Ṉ":{"ha":1164,"x_min":0,"x_max":0,"o":"m 286 0 l 286 860 l 849 0 l 1039 0 l 1039 1083 l 879 1083 l 879 224 l 317 1083 l 126 1083 l 126 0 z m 817 -224 l 817 -114 l 350 -114 l 350 -224 z "},"Ñ":{"ha":1164,"x_min":0,"x_max":0,"o":"m 286 0 l 286 860 l 849 0 l 1039 0 l 1039 1083 l 879 1083 l 879 224 l 317 1083 l 126 1083 l 126 0 z m 697 1176 b 865 1368 790 1176 849 1253 l 769 1368 b 699 1286 760 1318 736 1286 b 468 1385 632 1286 578 1385 b 300 1193 375 1385 317 1308 l 396 1193 b 468 1276 407 1243 429 1276 b 697 1176 532 1276 588 1176 z "},"O":{"ha":1274,"x_min":0,"x_max":0,"o":"m 638 -26 b 1215 542 979 -26 1215 214 b 638 1110 1215 871 979 1110 b 58 542 297 1110 58 871 b 638 -26 58 214 297 -26 z m 638 118 b 236 542 400 118 236 290 b 638 965 236 793 400 965 b 1039 542 876 965 1039 793 b 638 118 1039 290 876 118 z "},"Ó":{"ha":1274,"x_min":0,"x_max":0,"o":"m 638 -26 b 58 542 297 -26 58 214 b 638 1110 58 871 297 1110 b 1215 542 979 1110 1215 871 b 638 -26 1215 214 979 -26 z m 638 118 b 1039 542 876 118 1039 290 b 638 965 1039 793 876 965 b 236 542 400 965 236 793 b 638 118 236 290 400 118 z m 721 1165 l 1007 1396 l 801 1396 l 560 1165 z "},"Ŏ":{"ha":1274,"x_min":0,"x_max":0,"o":"m 638 -26 b 1215 542 979 -26 1215 214 b 638 1110 1215 871 979 1110 b 58 542 297 1110 58 871 b 638 -26 58 214 297 -26 z m 638 118 b 236 542 400 118 236 290 b 638 965 236 793 400 965 b 1039 542 876 965 1039 793 b 638 118 1039 290 876 118 z m 638 1165 b 892 1382 786 1165 881 1247 l 786 1382 b 638 1268 769 1310 721 1268 b 489 1382 554 1268 506 1310 l 383 1382 b 638 1165 394 1247 489 1165 z "},"Ǒ":{"ha":1274,"x_min":0,"x_max":0,"o":"m 638 -26 b 58 542 297 -26 58 214 b 638 1110 58 871 297 1110 b 1215 542 979 1110 1215 871 b 638 -26 1215 214 979 -26 z m 638 118 b 1039 542 876 118 1039 290 b 638 965 1039 793 876 965 b 236 542 400 965 236 793 b 638 118 236 290 400 118 z m 361 1404 l 560 1165 l 713 1165 l 913 1404 l 785 1404 l 654 1278 b 636 1269 647 1272 642 1269 b 619 1278 632 1269 626 1272 l 489 1404 z "},"Ɵ":{"ha":1274,"x_min":0,"x_max":0,"o":"m 638 -26 b 1215 542 979 -26 1215 214 b 638 1110 1215 871 979 1110 b 58 542 297 1110 58 871 b 638 -26 58 214 297 -26 z m 638 971 b 1042 604 858 971 1019 825 l 232 604 b 638 971 257 825 414 971 z m 638 114 b 232 481 414 114 257 258 l 1042 481 b 638 114 1019 258 858 114 z "},"Ô":{"ha":1274,"x_min":0,"x_max":0,"o":"m 638 -26 b 1215 542 979 -26 1215 214 b 638 1110 1215 871 979 1110 b 58 542 297 1110 58 871 b 638 -26 58 214 297 -26 z m 638 118 b 236 542 400 118 236 290 b 638 965 236 793 400 965 b 1039 542 876 965 1039 793 b 638 118 1039 290 876 118 z m 490 1165 l 621 1292 b 638 1300 628 1297 633 1300 b 656 1292 643 1300 649 1297 l 786 1165 l 914 1165 l 714 1404 l 561 1404 l 363 1165 z "},"Ố":{"ha":1274,"x_min":0,"x_max":0,"o":"m 638 -26 b 1215 542 979 -26 1215 214 b 638 1110 1215 871 979 1110 b 58 542 297 1110 58 871 b 638 -26 58 214 297 -26 z m 638 118 b 236 542 400 118 236 290 b 638 965 236 793 400 965 b 1039 542 876 965 1039 793 b 638 118 1039 290 876 118 z m 507 1165 l 621 1274 b 638 1281 625 1278 631 1281 b 654 1274 643 1281 649 1278 l 768 1165 l 897 1165 l 714 1381 l 561 1381 l 378 1165 z m 917 1350 l 1122 1568 l 956 1568 l 792 1350 z "},"Ộ":{"ha":1274,"x_min":0,"x_max":0,"o":"m 638 -26 b 1215 542 979 -26 1215 214 b 638 1110 1215 871 979 1110 b 58 542 297 1110 58 871 b 638 -26 58 214 297 -26 z m 638 118 b 236 542 400 118 236 290 b 638 965 236 793 400 965 b 1039 542 876 965 1039 793 b 638 118 1039 290 876 118 z m 638 -283 b 732 -193 694 -283 732 -243 b 638 -101 732 -142 694 -101 b 542 -193 581 -101 542 -142 b 638 -283 542 -243 581 -283 z m 490 1165 l 621 1292 b 638 1300 628 1297 633 1300 b 656 1292 643 1300 649 1297 l 786 1165 l 914 1165 l 714 1404 l 561 1404 l 363 1165 z "},"Ồ":{"ha":1274,"x_min":0,"x_max":0,"o":"m 638 -26 b 58 542 297 -26 58 214 b 638 1110 58 871 297 1110 b 1215 542 979 1110 1215 871 b 638 -26 1215 214 979 -26 z m 638 118 b 1039 542 876 118 1039 290 b 638 965 1039 793 876 965 b 236 542 400 965 236 793 b 638 118 236 290 400 118 z m 378 1165 l 561 1381 l 714 1381 l 897 1165 l 768 1165 l 654 1274 b 638 1281 649 1278 643 1281 b 621 1274 631 1281 625 1278 l 507 1165 z m 976 1350 l 813 1568 l 646 1568 l 851 1350 z "},"Ổ":{"ha":1274,"x_min":0,"x_max":0,"o":"m 638 -26 b 1215 542 979 -26 1215 214 b 638 1110 1215 871 979 1110 b 58 542 297 1110 58 871 b 638 -26 58 214 297 -26 z m 638 118 b 236 542 400 118 236 290 b 638 965 236 793 400 965 b 1039 542 876 965 1039 793 b 638 118 1039 290 876 118 z m 507 1165 l 621 1274 b 638 1281 625 1278 631 1281 b 654 1274 643 1281 649 1278 l 768 1165 l 897 1165 l 714 1381 l 561 1381 l 378 1165 z m 818 1340 b 1044 1497 957 1350 1044 1408 b 875 1625 1044 1579 979 1625 b 722 1589 819 1625 761 1610 l 722 1506 b 847 1533 760 1522 807 1533 b 931 1485 903 1533 931 1517 b 818 1413 931 1451 890 1425 z "},"Ỗ":{"ha":1274,"x_min":0,"x_max":0,"o":"m 638 -26 b 1215 542 979 -26 1215 214 b 638 1110 1215 871 979 1110 b 58 542 297 1110 58 871 b 638 -26 58 214 297 -26 z m 638 118 b 236 542 400 118 236 290 b 638 965 236 793 400 965 b 1039 542 876 965 1039 793 b 638 118 1039 290 876 118 z m 507 1165 l 621 1274 b 638 1281 625 1278 631 1281 b 654 1274 643 1281 649 1278 l 768 1165 l 897 1165 l 714 1381 l 561 1381 l 378 1165 z m 736 1438 b 892 1614 824 1438 876 1508 l 803 1614 b 739 1539 793 1569 774 1539 b 540 1626 681 1539 632 1626 b 385 1451 456 1626 397 1557 l 472 1451 b 536 1525 482 1496 503 1525 b 736 1438 593 1525 643 1438 z "},"Ö":{"ha":1274,"x_min":0,"x_max":0,"o":"m 638 -26 b 1215 542 979 -26 1215 214 b 638 1110 1215 871 979 1110 b 58 542 297 1110 58 871 b 638 -26 58 214 297 -26 z m 638 118 b 236 542 400 118 236 290 b 638 965 236 793 400 965 b 1039 542 876 965 1039 793 b 638 118 1039 290 876 118 z m 813 1197 b 908 1288 869 1197 908 1238 b 813 1379 908 1339 869 1379 b 718 1288 756 1379 718 1339 b 813 1197 718 1238 756 1197 z m 463 1197 b 557 1288 518 1197 557 1238 b 463 1379 557 1339 518 1379 b 367 1288 406 1379 367 1339 b 463 1197 367 1238 406 1197 z "},"Ȫ":{"ha":1274,"x_min":0,"x_max":0,"o":"m 638 -26 b 1215 542 979 -26 1215 214 b 638 1110 1215 871 979 1110 b 58 542 297 1110 58 871 b 638 -26 58 214 297 -26 z m 638 118 b 236 542 400 118 236 290 b 638 965 236 793 400 965 b 1039 542 876 965 1039 793 b 638 118 1039 290 876 118 z m 793 1188 b 881 1272 847 1188 881 1226 b 793 1357 881 1318 844 1357 b 706 1272 739 1357 706 1318 b 793 1188 706 1226 739 1188 z m 482 1188 b 569 1272 536 1188 569 1226 b 482 1357 569 1318 533 1357 b 394 1272 428 1357 394 1318 b 482 1188 394 1226 428 1188 z m 856 1449 l 856 1554 l 419 1554 l 419 1449 z "},"Ȯ":{"ha":1274,"x_min":0,"x_max":0,"o":"m 638 -26 b 1215 542 979 -26 1215 214 b 638 1110 1215 871 979 1110 b 58 542 297 1110 58 871 b 638 -26 58 214 297 -26 z m 638 118 b 236 542 400 118 236 290 b 638 965 236 793 400 965 b 1039 542 876 965 1039 793 b 638 118 1039 290 876 118 z m 638 1185 b 732 1275 694 1185 732 1225 b 638 1367 732 1326 694 1367 b 542 1275 581 1367 542 1326 b 638 1185 542 1225 581 1185 z "},"Ȱ":{"ha":1274,"x_min":0,"x_max":0,"o":"m 638 -26 b 1215 542 979 -26 1215 214 b 638 1110 1215 871 979 1110 b 58 542 297 1110 58 871 b 638 -26 58 214 297 -26 z m 638 118 b 236 542 400 118 236 290 b 638 965 236 793 400 965 b 1039 542 876 965 1039 793 b 638 118 1039 290 876 118 z m 638 1188 b 728 1274 692 1188 728 1228 b 638 1360 728 1322 692 1360 b 549 1274 586 1360 549 1322 b 638 1188 549 1228 586 1188 z m 856 1449 l 856 1554 l 419 1554 l 419 1449 z "},"Ọ":{"ha":1274,"x_min":0,"x_max":0,"o":"m 638 -26 b 1215 542 979 -26 1215 214 b 638 1110 1215 871 979 1110 b 58 542 297 1110 58 871 b 638 -26 58 214 297 -26 z m 638 118 b 236 542 400 118 236 290 b 638 965 236 793 400 965 b 1039 542 876 965 1039 793 b 638 118 1039 290 876 118 z m 638 -283 b 732 -193 694 -283 732 -243 b 638 -101 732 -142 694 -101 b 542 -193 581 -101 542 -142 b 638 -283 542 -243 581 -283 z "},"Ò":{"ha":1274,"x_min":0,"x_max":0,"o":"m 638 -26 b 1215 542 979 -26 1215 214 b 638 1110 1215 871 979 1110 b 58 542 297 1110 58 871 b 638 -26 58 214 297 -26 z m 638 118 b 236 542 400 118 236 290 b 638 965 236 793 400 965 b 1039 542 876 965 1039 793 b 638 118 1039 290 876 118 z m 715 1165 l 474 1396 l 268 1396 l 554 1165 z "},"Ỏ":{"ha":1274,"x_min":0,"x_max":0,"o":"m 638 -26 b 1215 542 979 -26 1215 214 b 638 1110 1215 871 979 1110 b 58 542 297 1110 58 871 b 638 -26 58 214 297 -26 z m 638 118 b 236 542 400 118 236 290 b 638 965 236 793 400 965 b 1039 542 876 965 1039 793 b 638 118 1039 290 876 118 z m 588 1153 b 835 1322 739 1163 835 1224 b 650 1461 835 1411 763 1461 b 481 1421 588 1461 521 1443 l 481 1331 b 621 1363 526 1351 574 1363 b 715 1308 683 1363 715 1344 b 589 1231 715 1269 674 1243 z "},"Ơ":{"ha":1297,"x_min":0,"x_max":0,"o":"m 638 -26 b 1215 542 979 -26 1215 214 b 638 1110 1215 871 979 1110 b 58 542 297 1110 58 871 b 638 -26 58 214 297 -26 z m 638 118 b 236 542 400 118 236 290 b 638 965 236 793 400 965 b 1039 542 876 965 1039 793 b 638 118 1039 290 876 118 z m 1100 910 b 1251 1064 1194 910 1251 969 b 1201 1233 1251 1119 1233 1176 l 1082 1233 b 1117 1094 1106 1182 1117 1136 b 1039 1004 1117 1035 1090 1004 b 956 1026 1011 1004 983 1011 l 956 956 b 1100 910 999 925 1046 910 z "},"Ớ":{"ha":1297,"x_min":0,"x_max":0,"o":"m 638 -26 b 58 542 297 -26 58 214 b 638 1110 58 871 297 1110 b 1215 542 979 1110 1215 871 b 638 -26 1215 214 979 -26 z m 638 118 b 1039 542 876 118 1039 290 b 638 965 1039 793 876 965 b 236 542 400 965 236 793 b 638 118 236 290 400 118 z m 1100 910 b 956 956 1046 910 999 925 l 956 1026 b 1039 1004 983 1011 1011 1004 b 1117 1094 1090 1004 1117 1035 b 1082 1233 1117 1136 1106 1182 l 1201 1233 b 1251 1064 1233 1176 1251 1119 b 1100 910 1251 969 1194 910 z m 721 1165 l 1007 1396 l 801 1396 l 560 1165 z "},"Ợ":{"ha":1297,"x_min":0,"x_max":0,"o":"m 638 -26 b 1215 542 979 -26 1215 214 b 638 1110 1215 871 979 1110 b 58 542 297 1110 58 871 b 638 -26 58 214 297 -26 z m 638 118 b 236 542 400 118 236 290 b 638 965 236 793 400 965 b 1039 542 876 965 1039 793 b 638 118 1039 290 876 118 z m 1100 910 b 1251 1064 1194 910 1251 969 b 1201 1233 1251 1119 1233 1176 l 1082 1233 b 1117 1094 1106 1182 1117 1136 b 1039 1004 1117 1035 1090 1004 b 956 1026 1011 1004 983 1011 l 956 956 b 1100 910 999 925 1046 910 z m 638 -283 b 732 -193 694 -283 732 -243 b 638 -101 732 -142 694 -101 b 542 -193 581 -101 542 -142 b 638 -283 542 -243 581 -283 z "},"Ờ":{"ha":1297,"x_min":0,"x_max":0,"o":"m 638 -26 b 1215 542 979 -26 1215 214 b 638 1110 1215 871 979 1110 b 58 542 297 1110 58 871 b 638 -26 58 214 297 -26 z m 638 118 b 236 542 400 118 236 290 b 638 965 236 793 400 965 b 1039 542 876 965 1039 793 b 638 118 1039 290 876 118 z m 1100 910 b 1251 1064 1194 910 1251 969 b 1201 1233 1251 1119 1233 1176 l 1082 1233 b 1117 1094 1106 1182 1117 1136 b 1039 1004 1117 1035 1090 1004 b 956 1026 1011 1004 983 1011 l 956 956 b 1100 910 999 925 1046 910 z m 715 1165 l 474 1396 l 268 1396 l 554 1165 z "},"Ở":{"ha":1297,"x_min":0,"x_max":0,"o":"m 638 -26 b 1215 542 979 -26 1215 214 b 638 1110 1215 871 979 1110 b 58 542 297 1110 58 871 b 638 -26 58 214 297 -26 z m 638 118 b 236 542 400 118 236 290 b 638 965 236 793 400 965 b 1039 542 876 965 1039 793 b 638 118 1039 290 876 118 z m 1100 910 b 1251 1064 1194 910 1251 969 b 1201 1233 1251 1119 1233 1176 l 1082 1233 b 1117 1094 1106 1182 1117 1136 b 1039 1004 1117 1035 1090 1004 b 956 1026 1011 1004 983 1011 l 956 956 b 1100 910 999 925 1046 910 z m 588 1153 b 835 1322 739 1163 835 1224 b 650 1461 835 1411 763 1461 b 481 1421 588 1461 521 1443 l 481 1331 b 621 1363 526 1351 574 1363 b 715 1308 683 1363 715 1344 b 589 1231 715 1269 674 1243 z "},"Ỡ":{"ha":1297,"x_min":0,"x_max":0,"o":"m 638 -26 b 1215 542 979 -26 1215 214 b 638 1110 1215 871 979 1110 b 58 542 297 1110 58 871 b 638 -26 58 214 297 -26 z m 638 118 b 236 542 400 118 236 290 b 638 965 236 793 400 965 b 1039 542 876 965 1039 793 b 638 118 1039 290 876 118 z m 1100 910 b 1251 1064 1194 910 1251 969 b 1201 1233 1251 1119 1233 1176 l 1082 1233 b 1117 1094 1106 1182 1117 1136 b 1039 1004 1117 1035 1090 1004 b 956 1026 1011 1004 983 1011 l 956 956 b 1100 910 999 925 1046 910 z m 751 1176 b 919 1368 844 1176 903 1253 l 824 1368 b 753 1286 814 1318 790 1286 b 522 1385 686 1286 632 1385 b 354 1193 429 1385 371 1308 l 450 1193 b 522 1276 461 1243 483 1276 b 751 1176 586 1276 642 1176 z "},"Ő":{"ha":1274,"x_min":0,"x_max":0,"o":"m 638 -26 b 1215 542 979 -26 1215 214 b 638 1110 1215 871 979 1110 b 58 542 297 1110 58 871 b 638 -26 58 214 297 -26 z m 638 118 b 236 542 400 118 236 290 b 638 965 236 793 400 965 b 1039 542 876 965 1039 793 b 638 118 1039 290 876 118 z m 876 1165 l 1161 1396 l 960 1396 l 715 1165 z m 543 1165 l 818 1396 l 618 1396 l 382 1165 z "},"Ō":{"ha":1274,"x_min":0,"x_max":0,"o":"m 638 -26 b 1215 542 979 -26 1215 214 b 638 1110 1215 871 979 1110 b 58 542 297 1110 58 871 b 638 -26 58 214 297 -26 z m 638 118 b 236 542 400 118 236 290 b 638 965 236 793 400 965 b 1039 542 876 965 1039 793 b 638 118 1039 290 876 118 z m 871 1196 l 871 1306 l 404 1306 l 404 1196 z "},"Ṓ":{"ha":1274,"x_min":0,"x_max":0,"o":"m 638 -26 b 1215 542 979 -26 1215 214 b 638 1110 1215 871 979 1110 b 58 542 297 1110 58 871 b 638 -26 58 214 297 -26 z m 638 118 b 236 542 400 118 236 290 b 638 965 236 793 400 965 b 1039 542 876 965 1039 793 b 638 118 1039 290 876 118 z m 856 1203 l 856 1308 l 419 1308 l 419 1203 z m 692 1386 l 897 1604 l 731 1604 l 567 1386 z "},"Ṑ":{"ha":1274,"x_min":0,"x_max":0,"o":"m 638 -26 b 58 542 297 -26 58 214 b 638 1110 58 871 297 1110 b 1215 542 979 1110 1215 871 b 638 -26 1215 214 979 -26 z m 638 118 b 1039 542 876 118 1039 290 b 638 965 1039 793 876 965 b 236 542 400 965 236 793 b 638 118 236 290 400 118 z m 419 1203 l 419 1308 l 856 1308 l 856 1203 z m 697 1386 l 533 1604 l 367 1604 l 572 1386 z "},"Ǫ":{"ha":1274,"x_min":0,"x_max":0,"o":"m 638 -26 b 1215 542 979 -26 1215 214 b 638 1110 1215 871 979 1110 b 58 542 297 1110 58 871 b 638 -26 58 214 297 -26 z m 638 118 b 236 542 400 118 236 290 b 638 965 236 793 400 965 b 1039 542 876 965 1039 793 b 638 118 1039 290 876 118 z m 854 -335 b 985 -306 899 -335 947 -324 l 985 -201 b 878 -222 947 -217 911 -222 b 794 -144 828 -222 794 -199 b 929 43 796 -85 839 -19 l 881 76 b 667 -181 731 -11 667 -86 b 854 -335 667 -279 743 -335 z "},"Ǭ":{"ha":1274,"x_min":0,"x_max":0,"o":"m 638 -26 b 1215 542 979 -26 1215 214 b 638 1110 1215 871 979 1110 b 58 542 297 1110 58 871 b 638 -26 58 214 297 -26 z m 638 118 b 236 542 400 118 236 290 b 638 965 236 793 400 965 b 1039 542 876 965 1039 793 b 638 118 1039 290 876 118 z m 871 1196 l 871 1306 l 404 1306 l 404 1196 z m 854 -335 b 985 -306 899 -335 947 -324 l 985 -201 b 878 -222 947 -217 911 -222 b 794 -144 828 -222 794 -199 b 929 43 796 -85 839 -19 l 881 76 b 667 -181 731 -11 667 -86 b 854 -335 667 -279 743 -335 z "},"Ɔ":{"ha":1224,"x_min":0,"x_max":0,"o":"m 601 -28 b 1165 542 932 -28 1165 215 b 601 1111 1165 869 932 1111 b 46 668 297 1111 90 935 l 222 668 b 596 967 260 851 392 967 b 989 542 828 967 989 796 b 596 117 989 289 828 117 b 222 415 392 117 260 232 l 46 415 b 601 -28 90 150 299 -28 z "},"Ø":{"ha":1274,"x_min":0,"x_max":0,"o":"m 264 -68 l 347 42 b 638 -26 431 -3 528 -26 b 1215 542 979 -26 1215 214 b 1043 960 1215 713 1153 858 l 1188 1151 l 1010 1151 l 926 1042 b 638 1110 844 1086 747 1110 b 58 542 297 1110 58 871 b 232 122 58 371 122 226 l 89 -68 z m 229 542 b 638 971 229 799 396 971 b 846 919 715 971 785 954 l 332 242 b 229 542 267 315 229 419 z m 638 114 b 429 164 560 114 490 131 l 943 842 b 1046 542 1008 765 1046 664 b 638 114 1046 286 879 114 z "},"Ǿ":{"ha":1274,"x_min":0,"x_max":0,"o":"m 89 -68 l 232 122 b 58 542 122 226 58 371 b 638 1110 58 871 297 1110 b 926 1042 747 1110 844 1086 l 1010 1151 l 1188 1151 l 1043 960 b 1215 542 1153 858 1215 713 b 638 -26 1215 214 979 -26 b 347 42 528 -26 431 -3 l 264 -68 z m 229 542 b 332 242 229 419 267 315 l 846 919 b 638 971 785 954 715 971 b 229 542 396 971 229 799 z m 638 114 b 1046 542 879 114 1046 286 b 943 842 1046 664 1008 765 l 429 164 b 638 114 490 131 560 114 z m 721 1165 l 1007 1396 l 801 1396 l 560 1165 z "},"Õ":{"ha":1274,"x_min":0,"x_max":0,"o":"m 638 -26 b 1215 542 979 -26 1215 214 b 638 1110 1215 871 979 1110 b 58 542 297 1110 58 871 b 638 -26 58 214 297 -26 z m 638 118 b 236 542 400 118 236 290 b 638 965 236 793 400 965 b 1039 542 876 965 1039 793 b 638 118 1039 290 876 118 z m 751 1176 b 919 1368 844 1176 903 1253 l 824 1368 b 753 1286 814 1318 790 1286 b 522 1385 686 1286 632 1385 b 354 1193 429 1385 371 1308 l 450 1193 b 522 1276 461 1243 483 1276 b 751 1176 586 1276 642 1176 z "},"Ṍ":{"ha":1274,"x_min":0,"x_max":0,"o":"m 638 -26 b 1215 542 979 -26 1215 214 b 638 1110 1215 871 979 1110 b 58 542 297 1110 58 871 b 638 -26 58 214 297 -26 z m 638 118 b 236 542 400 118 236 290 b 638 965 236 793 400 965 b 1039 542 876 965 1039 793 b 638 118 1039 290 876 118 z m 736 1175 b 892 1351 824 1175 876 1246 l 803 1351 b 739 1276 793 1307 774 1276 b 540 1364 681 1276 632 1364 b 385 1189 456 1364 397 1294 l 472 1189 b 536 1263 482 1233 503 1263 b 736 1175 593 1263 643 1175 z m 692 1424 l 897 1642 l 731 1642 l 567 1424 z "},"Ṏ":{"ha":1274,"x_min":0,"x_max":0,"o":"m 638 -26 b 1215 542 979 -26 1215 214 b 638 1110 1215 871 979 1110 b 58 542 297 1110 58 871 b 638 -26 58 214 297 -26 z m 638 118 b 236 542 400 118 236 290 b 638 965 236 793 400 965 b 1039 542 876 965 1039 793 b 638 118 1039 290 876 118 z m 736 1175 b 892 1351 824 1175 876 1246 l 803 1351 b 739 1276 793 1307 774 1276 b 540 1364 681 1276 632 1364 b 385 1189 456 1364 397 1294 l 472 1189 b 536 1263 482 1233 503 1263 b 736 1175 593 1263 643 1175 z m 793 1443 b 881 1528 847 1443 881 1482 b 793 1613 881 1574 844 1613 b 706 1528 739 1613 706 1574 b 793 1443 706 1482 739 1443 z m 482 1443 b 569 1528 536 1443 569 1482 b 482 1613 569 1574 533 1613 b 394 1528 428 1613 394 1574 b 482 1443 394 1482 428 1443 z "},"Ȭ":{"ha":1274,"x_min":0,"x_max":0,"o":"m 638 -26 b 1215 542 979 -26 1215 214 b 638 1110 1215 871 979 1110 b 58 542 297 1110 58 871 b 638 -26 58 214 297 -26 z m 638 118 b 236 542 400 118 236 290 b 638 965 236 793 400 965 b 1039 542 876 965 1039 793 b 638 118 1039 290 876 118 z m 736 1175 b 892 1351 824 1175 876 1246 l 803 1351 b 739 1276 793 1307 774 1276 b 540 1364 681 1276 632 1364 b 385 1189 456 1364 397 1294 l 472 1189 b 536 1263 482 1233 503 1263 b 736 1175 593 1263 643 1175 z m 856 1458 l 856 1564 l 419 1564 l 419 1458 z "},"Œ":{"ha":1825,"x_min":0,"x_max":0,"o":"m 631 -26 b 1044 153 804 -26 950 38 l 1044 0 l 1778 0 l 1778 139 l 1208 139 l 1208 482 l 1679 482 l 1679 617 l 1208 617 l 1208 944 l 1750 944 l 1750 1083 l 1044 1083 l 1044 931 b 631 1110 950 1046 804 1110 b 58 542 297 1110 58 872 b 631 -26 58 213 297 -26 z m 638 118 b 236 542 400 118 236 290 b 638 965 236 793 400 965 b 1039 542 876 965 1039 793 b 638 118 1039 290 876 118 z "},"P":{"ha":954,"x_min":0,"x_max":0,"o":"m 294 0 l 294 397 l 543 397 b 917 740 783 397 917 529 b 544 1083 917 950 783 1083 l 126 1083 l 126 0 z m 294 949 l 529 949 b 749 739 672 949 749 874 b 529 529 749 606 672 529 l 294 529 z "},"Ƥ":{"ha":1196,"x_min":0,"x_max":0,"o":"m 536 0 l 536 397 l 785 397 b 1157 740 1024 397 1157 529 b 785 1083 1157 950 1025 1083 l 293 1083 b 31 863 126 1083 31 1007 b 93 651 31 792 58 711 l 219 651 b 174 833 188 728 174 783 b 300 951 174 913 215 951 l 368 951 l 368 0 z m 536 949 l 771 949 b 989 739 914 949 989 874 b 771 529 989 606 914 529 l 536 529 z "},"Þ":{"ha":969,"x_min":0,"x_max":0,"o":"m 294 0 l 294 199 l 543 199 b 917 542 783 199 917 332 b 544 885 917 751 783 885 l 294 885 l 294 1083 l 126 1083 l 126 0 z m 294 751 l 529 751 b 749 542 672 751 749 675 b 529 332 749 407 672 332 l 294 332 z "},"Q":{"ha":1281,"x_min":0,"x_max":0,"o":"m 638 -26 b 938 47 750 -26 850 -1 l 993 -26 l 1175 -26 l 1053 133 b 1215 542 1157 233 1215 376 b 638 1110 1215 871 979 1110 b 58 542 297 1110 58 871 b 638 -26 58 214 297 -26 z m 638 115 b 233 542 399 115 233 286 b 638 967 233 797 399 967 b 1042 542 875 967 1042 797 b 954 263 1042 431 1011 335 l 793 476 l 611 476 l 846 168 b 638 115 785 133 715 115 z "},"R":{"ha":1032,"x_min":0,"x_max":0,"o":"m 293 0 l 293 456 l 571 456 b 742 310 692 456 729 419 l 767 86 b 797 0 772 40 782 11 l 969 0 b 933 110 957 13 940 54 l 904 333 b 747 525 888 457 847 510 b 940 788 874 563 940 661 b 588 1083 940 978 814 1083 l 126 1083 l 126 0 z m 293 950 l 568 950 b 772 764 704 950 772 888 b 563 581 772 642 703 581 l 293 581 z "},"Ŕ":{"ha":1032,"x_min":0,"x_max":0,"o":"m 126 0 l 126 1083 l 588 1083 b 940 788 814 1083 940 978 b 747 525 940 661 874 563 b 904 333 847 510 888 457 l 933 110 b 969 0 940 54 957 13 l 797 0 b 767 86 782 11 772 40 l 742 310 b 571 456 729 419 692 456 l 293 456 l 293 0 z m 293 581 l 563 581 b 772 764 703 581 772 642 b 568 950 772 888 704 950 l 293 950 z m 593 1165 l 879 1396 l 674 1396 l 432 1165 z "},"Ř":{"ha":1032,"x_min":0,"x_max":0,"o":"m 126 0 l 126 1083 l 588 1083 b 940 788 814 1083 940 978 b 747 525 940 661 874 563 b 904 333 847 510 888 457 l 933 110 b 969 0 940 54 957 13 l 797 0 b 767 86 782 11 772 40 l 742 310 b 571 456 729 419 692 456 l 293 456 l 293 0 z m 293 581 l 563 581 b 772 764 703 581 772 642 b 568 950 772 888 704 950 l 293 950 z m 235 1404 l 433 1165 l 586 1165 l 786 1404 l 658 1404 l 528 1278 b 510 1269 521 1272 515 1269 b 493 1278 506 1269 500 1272 l 363 1404 z "},"Ŗ":{"ha":1032,"x_min":0,"x_max":0,"o":"m 293 0 l 293 456 l 571 456 b 742 310 692 456 729 419 l 767 86 b 797 0 772 40 782 11 l 969 0 b 933 110 957 13 940 54 l 904 333 b 747 525 888 457 847 510 b 940 788 874 563 940 661 b 588 1083 940 978 814 1083 l 126 1083 l 126 0 z m 293 950 l 568 950 b 772 764 704 950 772 888 b 563 581 772 642 703 581 l 293 581 z m 539 -365 l 632 -82 l 489 -82 l 431 -365 z "},"Ṙ":{"ha":1032,"x_min":0,"x_max":0,"o":"m 293 0 l 293 456 l 571 456 b 742 310 692 456 729 419 l 767 86 b 797 0 772 40 782 11 l 969 0 b 933 110 957 13 940 54 l 904 333 b 747 525 888 457 847 510 b 940 788 874 563 940 661 b 588 1083 940 978 814 1083 l 126 1083 l 126 0 z m 293 950 l 568 950 b 772 764 704 950 772 888 b 563 581 772 642 703 581 l 293 581 z m 510 1185 b 604 1275 567 1185 604 1225 b 510 1367 604 1326 567 1367 b 414 1275 453 1367 414 1326 b 510 1185 414 1225 453 1185 z "},"Ṛ":{"ha":1032,"x_min":0,"x_max":0,"o":"m 293 0 l 293 456 l 571 456 b 742 310 692 456 729 419 l 767 86 b 797 0 772 40 782 11 l 969 0 b 933 110 957 13 940 54 l 904 333 b 747 525 888 457 847 510 b 940 788 874 563 940 661 b 588 1083 940 978 814 1083 l 126 1083 l 126 0 z m 293 950 l 568 950 b 772 764 704 950 772 888 b 563 581 772 642 703 581 l 293 581 z m 563 -283 b 657 -193 619 -283 657 -243 b 563 -101 657 -142 619 -101 b 467 -193 506 -101 467 -142 b 563 -283 467 -243 506 -283 z "},"Ṟ":{"ha":1032,"x_min":0,"x_max":0,"o":"m 293 0 l 293 456 l 571 456 b 742 310 692 456 729 419 l 767 86 b 797 0 772 40 782 11 l 969 0 b 933 110 957 13 940 54 l 904 333 b 747 525 888 457 847 510 b 940 788 874 563 940 661 b 588 1083 940 978 814 1083 l 126 1083 l 126 0 z m 293 950 l 568 950 b 772 764 704 950 772 888 b 563 581 772 642 703 581 l 293 581 z m 796 -224 l 796 -114 l 329 -114 l 329 -224 z "},"Ɍ":{"ha":1085,"x_min":0,"x_max":0,"o":"m 346 0 l 346 456 l 624 456 b 794 310 744 456 782 419 l 819 86 b 850 0 825 40 835 11 l 1022 0 b 986 110 1006 15 993 53 l 957 333 b 799 524 940 456 899 508 b 992 785 926 558 992 657 b 642 1083 992 979 865 1083 l 179 1083 l 179 581 l 21 581 l 21 456 l 179 456 l 179 0 z m 619 949 b 828 764 758 949 828 888 b 615 581 828 642 757 581 l 347 581 l 347 949 z "},"Ɽ":{"ha":1032,"x_min":0,"x_max":0,"o":"m 406 -349 b 608 -308 471 -349 549 -332 l 608 -175 b 438 -208 563 -193 503 -208 b 293 -32 333 -208 293 -154 l 293 456 l 571 456 b 742 310 692 456 729 419 l 767 86 b 797 0 774 38 783 10 l 969 0 b 933 110 957 13 940 54 l 904 333 b 746 524 888 456 846 508 b 940 785 872 558 940 657 b 590 1083 940 979 813 1083 l 126 1083 l 126 -25 b 406 -349 126 -257 215 -349 z m 293 949 l 568 949 b 775 764 706 949 775 888 b 563 581 775 642 704 581 l 293 581 z "},"S":{"ha":911,"x_min":0,"x_max":0,"o":"m 471 -28 b 854 286 697 -28 854 99 b 465 636 854 475 736 571 b 263 818 314 674 263 725 b 457 981 263 918 340 981 b 667 797 579 981 650 913 l 829 797 b 457 1110 806 992 674 1110 b 96 808 238 1110 96 989 b 440 482 96 636 194 542 b 688 274 621 440 688 390 b 476 104 688 175 604 104 b 207 326 328 104 228 186 l 42 326 b 471 -28 61 115 229 -28 z "},"Ś":{"ha":911,"x_min":0,"x_max":0,"o":"m 471 -28 b 42 326 229 -28 61 115 l 207 326 b 476 104 228 186 328 104 b 688 274 604 104 688 175 b 440 482 688 390 621 440 b 96 808 194 542 96 636 b 457 1110 96 989 238 1110 b 829 797 674 1110 806 992 l 667 797 b 457 981 650 913 579 981 b 263 818 340 981 263 918 b 465 636 263 725 314 674 b 854 286 736 571 854 475 b 471 -28 854 99 697 -28 z m 536 1165 l 822 1396 l 617 1396 l 375 1165 z "},"Ꞌ":{"ha":396,"x_min":0,"x_max":0,"o":"m 261 379 l 288 1083 l 110 1083 l 135 379 z "},"Š":{"ha":911,"x_min":0,"x_max":0,"o":"m 471 -28 b 42 326 229 -28 61 115 l 207 326 b 476 104 228 186 328 104 b 688 274 604 104 688 175 b 440 482 688 390 621 440 b 96 808 194 542 96 636 b 457 1110 96 989 238 1110 b 829 797 674 1110 806 992 l 667 797 b 457 981 650 913 579 981 b 263 818 340 981 263 918 b 465 636 263 725 314 674 b 854 286 736 571 854 475 b 471 -28 854 99 697 -28 z m 178 1404 l 376 1165 l 529 1165 l 729 1404 l 601 1404 l 471 1278 b 453 1269 464 1272 458 1269 b 436 1278 449 1269 443 1272 l 306 1404 z "},"Ş":{"ha":911,"x_min":0,"x_max":0,"o":"m 471 -28 b 854 286 697 -28 854 99 b 465 636 854 475 736 571 b 263 818 314 674 263 725 b 457 981 263 918 340 981 b 667 797 579 981 650 913 l 829 797 b 457 1110 806 992 674 1110 b 96 808 238 1110 96 989 b 440 482 96 636 194 542 b 688 274 621 440 688 390 b 476 104 688 175 604 104 b 207 326 328 104 228 186 l 42 326 b 471 -28 61 115 229 -28 z m 494 -361 b 694 -193 617 -361 694 -292 b 524 13 694 -106 628 -31 l 406 0 b 576 -179 518 -57 576 -122 b 492 -258 576 -229 546 -258 b 389 -151 432 -258 394 -219 l 267 -151 b 494 -361 274 -279 356 -361 z "},"Ŝ":{"ha":911,"x_min":0,"x_max":0,"o":"m 471 -28 b 854 286 697 -28 854 99 b 465 636 854 475 736 571 b 263 818 314 674 263 725 b 457 981 263 918 340 981 b 667 797 579 981 650 913 l 829 797 b 457 1110 806 992 674 1110 b 96 808 238 1110 96 989 b 440 482 96 636 194 542 b 688 274 621 440 688 390 b 476 104 688 175 604 104 b 207 326 328 104 228 186 l 42 326 b 471 -28 61 115 229 -28 z m 306 1165 l 436 1292 b 453 1300 443 1297 449 1300 b 471 1292 458 1300 464 1297 l 601 1165 l 729 1165 l 529 1404 l 376 1404 l 178 1165 z "},"Ș":{"ha":911,"x_min":0,"x_max":0,"o":"m 471 -28 b 854 286 697 -28 854 99 b 465 636 854 475 736 571 b 263 818 314 674 263 725 b 457 981 263 918 340 981 b 667 797 579 981 650 913 l 829 797 b 457 1110 806 992 674 1110 b 96 808 238 1110 96 989 b 440 482 96 636 194 542 b 688 274 621 440 688 390 b 476 104 688 175 604 104 b 207 326 328 104 228 186 l 42 326 b 471 -28 61 115 229 -28 z m 467 -365 l 560 -82 l 417 -82 l 358 -365 z "},"Ṡ":{"ha":911,"x_min":0,"x_max":0,"o":"m 471 -28 b 854 286 697 -28 854 99 b 465 636 854 475 736 571 b 263 818 314 674 263 725 b 457 981 263 918 340 981 b 667 797 579 981 650 913 l 829 797 b 457 1110 806 992 674 1110 b 96 808 238 1110 96 989 b 440 482 96 636 194 542 b 688 274 621 440 688 390 b 476 104 688 175 604 104 b 207 326 328 104 228 186 l 42 326 b 471 -28 61 115 229 -28 z m 453 1185 b 547 1275 510 1185 547 1225 b 453 1367 547 1326 510 1367 b 357 1275 396 1367 357 1326 b 453 1185 357 1225 396 1185 z "},"Ṣ":{"ha":911,"x_min":0,"x_max":0,"o":"m 471 -28 b 854 286 697 -28 854 99 b 465 636 854 475 736 571 b 263 818 314 674 263 725 b 457 981 263 918 340 981 b 667 797 579 981 650 913 l 829 797 b 457 1110 806 992 674 1110 b 96 808 238 1110 96 989 b 440 482 96 636 194 542 b 688 274 621 440 688 390 b 476 104 688 175 604 104 b 207 326 328 104 228 186 l 42 326 b 471 -28 61 115 229 -28 z m 490 -283 b 585 -193 547 -283 585 -243 b 490 -101 585 -142 547 -101 b 394 -193 433 -101 394 -142 b 490 -283 394 -243 433 -283 z "},"ẞ":{"ha":1124,"x_min":0,"x_max":0,"o":"m 732 -25 b 1076 300 935 -25 1076 110 b 721 644 1076 501 926 628 l 1003 1083 l 126 1083 l 126 0 l 292 0 l 292 950 l 749 950 l 472 518 l 636 518 b 918 297 813 518 918 435 b 729 108 918 185 842 107 b 525 285 619 110 543 172 l 374 285 b 732 -25 397 89 528 -25 z "},"Ə":{"ha":1203,"x_min":0,"x_max":0,"o":"m 603 -26 b 1143 542 914 -26 1143 208 b 600 1110 1143 883 925 1110 b 76 749 333 1110 135 969 l 251 749 b 601 971 300 882 425 971 b 967 588 818 971 961 818 l 64 588 b 60 510 60 572 60 533 b 603 -26 60 193 282 -26 z m 604 111 b 231 468 383 111 233 257 l 965 468 b 604 111 946 256 808 111 z "},"T":{"ha":907,"x_min":0,"x_max":0,"o":"m 539 0 l 539 944 l 889 944 l 889 1083 l 18 1083 l 18 944 l 369 944 l 369 0 z "},"Ŧ":{"ha":922,"x_min":0,"x_max":0,"o":"m 546 0 l 546 515 l 735 515 l 735 638 l 546 638 l 546 944 l 897 944 l 897 1083 l 25 1083 l 25 944 l 376 944 l 376 638 l 186 638 l 186 515 l 376 515 l 376 0 z "},"Ť":{"ha":907,"x_min":0,"x_max":0,"o":"m 369 0 l 369 944 l 18 944 l 18 1083 l 889 1083 l 889 944 l 539 944 l 539 0 z m 179 1404 l 378 1165 l 531 1165 l 731 1404 l 603 1404 l 472 1278 b 454 1269 465 1272 460 1269 b 438 1278 450 1269 444 1272 l 307 1404 z "},"Ţ":{"ha":907,"x_min":0,"x_max":0,"o":"m 539 0 l 539 944 l 889 944 l 889 1083 l 18 1083 l 18 944 l 369 944 l 369 0 z m 479 -361 b 679 -193 601 -361 679 -292 b 508 13 679 -106 613 -31 l 390 0 b 561 -179 503 -57 561 -122 b 476 -258 561 -229 531 -258 b 374 -151 417 -258 379 -219 l 251 -151 b 479 -361 258 -279 340 -361 z "},"Ṱ":{"ha":907,"x_min":0,"x_max":0,"o":"m 539 0 l 539 944 l 889 944 l 889 1083 l 18 1083 l 18 944 l 369 944 l 369 0 z m 307 4818 l 438 4944 b 454 4953 444 4950 450 4953 b 472 4944 460 4953 465 4950 l 603 4818 l 731 4818 l 531 5057 l 378 5057 l 179 4818 z "},"Ț":{"ha":907,"x_min":0,"x_max":0,"o":"m 539 0 l 539 944 l 889 944 l 889 1083 l 18 1083 l 18 944 l 369 944 l 369 0 z m 431 -365 l 524 -82 l 381 -82 l 322 -365 z "},"Ṭ":{"ha":907,"x_min":0,"x_max":0,"o":"m 539 0 l 539 944 l 889 944 l 889 1083 l 18 1083 l 18 944 l 369 944 l 369 0 z m 454 -283 b 549 -193 511 -283 549 -243 b 454 -101 549 -142 511 -101 b 358 -193 397 -101 358 -142 b 454 -283 358 -243 397 -283 z "},"Ƭ":{"ha":1025,"x_min":0,"x_max":0,"o":"m 657 0 l 657 944 l 1007 944 l 1007 1083 l 281 1083 b 18 863 114 1083 18 1007 b 81 651 18 792 46 711 l 207 651 b 161 829 174 725 161 779 b 288 946 161 907 203 946 l 488 944 l 488 0 z "},"Ṯ":{"ha":907,"x_min":0,"x_max":0,"o":"m 539 0 l 539 944 l 889 944 l 889 1083 l 18 1083 l 18 944 l 369 944 l 369 0 z m 688 -224 l 688 -114 l 221 -114 l 221 -224 z "},"Ʈ":{"ha":907,"x_min":0,"x_max":0,"o":"m 625 -349 b 801 -314 688 -349 757 -335 l 801 -182 b 664 -208 756 -199 710 -208 b 538 -57 579 -208 538 -168 l 539 944 l 889 944 l 889 1083 l 18 1083 l 18 944 l 369 944 l 369 -64 b 625 -349 369 -271 457 -349 z "},"U":{"ha":1122,"x_min":0,"x_max":0,"o":"m 561 -28 b 1008 413 831 -28 1008 119 l 1008 1083 l 839 1083 l 839 406 b 561 114 839 213 739 114 b 283 406 383 114 283 213 l 283 1083 l 114 1083 l 114 413 b 561 -28 114 119 294 -28 z "},"Ú":{"ha":1122,"x_min":0,"x_max":0,"o":"m 561 -28 b 114 413 294 -28 114 119 l 114 1083 l 283 1083 l 283 406 b 561 114 283 213 383 114 b 839 406 739 114 839 213 l 839 1083 l 1008 1083 l 1008 413 b 561 -28 1008 119 831 -28 z m 644 1165 l 931 1396 l 725 1396 l 483 1165 z "},"Ʉ":{"ha":1251,"x_min":0,"x_max":0,"o":"m 178 549 l 178 413 b 626 -28 178 119 358 -28 b 1072 413 894 -28 1072 119 l 1072 549 l 1246 549 l 1246 674 l 1072 674 l 1072 1083 l 906 1083 l 906 674 l 344 674 l 344 1083 l 178 1083 l 178 674 l 6 674 l 6 549 z m 344 549 l 906 549 l 906 406 b 626 113 906 213 806 113 b 344 406 444 113 344 213 z "},"Ŭ":{"ha":1122,"x_min":0,"x_max":0,"o":"m 561 -28 b 1008 413 831 -28 1008 119 l 1008 1083 l 839 1083 l 839 406 b 561 114 839 213 739 114 b 283 406 383 114 283 213 l 283 1083 l 114 1083 l 114 413 b 561 -28 114 119 294 -28 z m 561 1165 b 815 1382 710 1165 804 1247 l 710 1382 b 561 1268 693 1310 644 1268 b 413 1382 478 1268 429 1310 l 307 1382 b 561 1165 318 1247 413 1165 z "},"Ǔ":{"ha":1122,"x_min":0,"x_max":0,"o":"m 561 -28 b 114 413 294 -28 114 119 l 114 1083 l 283 1083 l 283 406 b 561 114 283 213 383 114 b 839 406 739 114 839 213 l 839 1083 l 1008 1083 l 1008 413 b 561 -28 1008 119 831 -28 z m 286 1404 l 485 1165 l 638 1165 l 838 1404 l 710 1404 l 579 1278 b 561 1269 572 1272 567 1269 b 544 1278 557 1269 551 1272 l 414 1404 z "},"Û":{"ha":1122,"x_min":0,"x_max":0,"o":"m 561 -28 b 1008 413 831 -28 1008 119 l 1008 1083 l 839 1083 l 839 406 b 561 114 839 213 739 114 b 283 406 383 114 283 213 l 283 1083 l 114 1083 l 114 413 b 561 -28 114 119 294 -28 z m 414 1165 l 544 1292 b 561 1300 551 1297 557 1300 b 579 1292 567 1300 572 1297 l 710 1165 l 838 1165 l 638 1404 l 485 1404 l 286 1165 z "},"Ü":{"ha":1122,"x_min":0,"x_max":0,"o":"m 561 -28 b 1008 413 831 -28 1008 119 l 1008 1083 l 839 1083 l 839 406 b 561 114 839 213 739 114 b 283 406 383 114 283 213 l 283 1083 l 114 1083 l 114 413 b 561 -28 114 119 294 -28 z m 736 1197 b 832 1288 793 1197 832 1238 b 736 1379 832 1339 793 1379 b 642 1288 679 1379 642 1339 b 736 1197 642 1238 679 1197 z m 386 1197 b 481 1288 442 1197 481 1238 b 386 1379 481 1339 442 1379 b 290 1288 329 1379 290 1339 b 386 1197 290 1238 329 1197 z "},"Ǘ":{"ha":1122,"x_min":0,"x_max":0,"o":"m 561 -28 b 1008 413 831 -28 1008 119 l 1008 1083 l 839 1083 l 839 406 b 561 114 839 213 739 114 b 283 406 383 114 283 213 l 283 1083 l 114 1083 l 114 413 b 561 -28 114 119 294 -28 z m 717 1188 b 804 1272 771 1188 804 1226 b 717 1357 804 1318 768 1357 b 629 1272 663 1357 629 1318 b 717 1188 629 1226 663 1188 z m 406 1188 b 493 1272 460 1188 493 1226 b 406 1357 493 1318 457 1357 b 318 1272 351 1357 318 1318 b 406 1188 318 1226 351 1188 z m 615 1414 l 821 1632 l 654 1632 l 490 1414 z "},"Ṳ":{"ha":1122,"x_min":0,"x_max":0,"o":"m 561 -28 b 1008 413 831 -28 1008 119 l 1008 1083 l 839 1083 l 839 406 b 561 114 839 213 739 114 b 283 406 383 114 283 213 l 283 1083 l 114 1083 l 114 413 b 561 -28 114 119 294 -28 z m 732 -296 b 828 -204 789 -296 828 -254 b 732 -114 828 -154 789 -114 b 638 -204 675 -114 638 -154 b 732 -296 638 -254 675 -296 z m 389 -296 b 485 -204 449 -296 485 -254 b 389 -114 485 -154 449 -114 b 294 -204 333 -114 294 -154 b 389 -296 294 -254 333 -296 z "},"Ǚ":{"ha":1122,"x_min":0,"x_max":0,"o":"m 561 -28 b 114 413 294 -28 114 119 l 114 1083 l 283 1083 l 283 406 b 561 114 283 213 383 114 b 839 406 739 114 839 213 l 839 1083 l 1008 1083 l 1008 413 b 561 -28 1008 119 831 -28 z m 717 1188 b 629 1272 663 1188 629 1226 b 717 1357 629 1318 663 1357 b 804 1272 768 1357 804 1318 b 717 1188 804 1226 771 1188 z m 406 1188 b 318 1272 351 1188 318 1226 b 406 1357 318 1318 351 1357 b 493 1272 457 1357 493 1318 b 406 1188 493 1226 460 1188 z m 301 1626 l 485 1411 l 638 1411 l 821 1626 l 692 1626 l 578 1518 b 561 1511 572 1514 567 1511 b 544 1518 554 1511 549 1514 l 431 1626 z "},"Ǜ":{"ha":1122,"x_min":0,"x_max":0,"o":"m 561 -28 b 114 413 294 -28 114 119 l 114 1083 l 283 1083 l 283 406 b 561 114 283 213 383 114 b 839 406 739 114 839 213 l 839 1083 l 1008 1083 l 1008 413 b 561 -28 1008 119 831 -28 z m 717 1188 b 629 1272 663 1188 629 1226 b 717 1357 629 1318 663 1357 b 804 1272 768 1357 804 1318 b 717 1188 804 1226 771 1188 z m 406 1188 b 318 1272 351 1188 318 1226 b 406 1357 318 1318 351 1357 b 493 1272 457 1357 493 1318 b 406 1188 493 1226 460 1188 z m 621 1414 l 457 1632 l 290 1632 l 496 1414 z "},"Ǖ":{"ha":1122,"x_min":0,"x_max":0,"o":"m 561 -28 b 1008 413 831 -28 1008 119 l 1008 1083 l 839 1083 l 839 406 b 561 114 839 213 739 114 b 283 406 383 114 283 213 l 283 1083 l 114 1083 l 114 413 b 561 -28 114 119 294 -28 z m 717 1188 b 804 1272 771 1188 804 1226 b 717 1357 804 1318 768 1357 b 629 1272 663 1357 629 1318 b 717 1188 629 1226 663 1188 z m 406 1188 b 493 1272 460 1188 493 1226 b 406 1357 493 1318 457 1357 b 318 1272 351 1357 318 1318 b 406 1188 318 1226 351 1188 z m 779 1449 l 779 1554 l 343 1554 l 343 1449 z "},"Ụ":{"ha":1122,"x_min":0,"x_max":0,"o":"m 561 -28 b 1008 413 831 -28 1008 119 l 1008 1083 l 839 1083 l 839 406 b 561 114 839 213 739 114 b 283 406 383 114 283 213 l 283 1083 l 114 1083 l 114 413 b 561 -28 114 119 294 -28 z m 561 -283 b 656 -193 618 -283 656 -243 b 561 -101 656 -142 618 -101 b 465 -193 504 -101 465 -142 b 561 -283 465 -243 504 -283 z "},"Ù":{"ha":1122,"x_min":0,"x_max":0,"o":"m 561 -28 b 1008 413 831 -28 1008 119 l 1008 1083 l 839 1083 l 839 406 b 561 114 839 213 739 114 b 283 406 383 114 283 213 l 283 1083 l 114 1083 l 114 413 b 561 -28 114 119 294 -28 z m 639 1165 l 397 1396 l 192 1396 l 478 1165 z "},"Ủ":{"ha":1122,"x_min":0,"x_max":0,"o":"m 561 -28 b 1008 413 831 -28 1008 119 l 1008 1083 l 839 1083 l 839 406 b 561 114 839 213 739 114 b 283 406 383 114 283 213 l 283 1083 l 114 1083 l 114 413 b 561 -28 114 119 294 -28 z m 511 1153 b 758 1322 663 1163 758 1224 b 574 1461 758 1411 686 1461 b 404 1421 511 1461 444 1443 l 404 1331 b 544 1363 450 1351 497 1363 b 639 1308 607 1363 639 1344 b 513 1231 639 1269 597 1243 z "},"Ư":{"ha":1164,"x_min":0,"x_max":0,"o":"m 561 -28 b 1008 413 831 -28 1008 119 l 1008 971 l 1010 971 b 1192 1104 1131 971 1192 1015 b 1143 1258 1192 1153 1176 1207 l 1025 1258 b 1063 1144 1050 1213 1063 1175 b 988 1083 1063 1101 1044 1083 l 839 1083 l 839 406 b 561 114 839 213 739 114 b 283 406 383 114 283 213 l 283 1083 l 114 1083 l 114 413 b 561 -28 114 119 294 -28 z "},"Ứ":{"ha":1164,"x_min":0,"x_max":0,"o":"m 561 -28 b 114 413 294 -28 114 119 l 114 1083 l 283 1083 l 283 406 b 561 114 283 213 383 114 b 839 406 739 114 839 213 l 839 1083 l 988 1083 b 1063 1144 1044 1083 1063 1101 b 1025 1258 1063 1175 1050 1213 l 1143 1258 b 1192 1104 1176 1207 1192 1153 b 1010 971 1192 1015 1131 971 l 1008 971 l 1008 413 b 561 -28 1008 119 831 -28 z m 644 1165 l 931 1396 l 725 1396 l 483 1165 z "},"Ự":{"ha":1164,"x_min":0,"x_max":0,"o":"m 561 -28 b 1008 413 831 -28 1008 119 l 1008 971 l 1010 971 b 1192 1104 1131 971 1192 1015 b 1143 1258 1192 1153 1176 1207 l 1025 1258 b 1063 1144 1050 1213 1063 1175 b 988 1083 1063 1101 1044 1083 l 839 1083 l 839 406 b 561 114 839 213 739 114 b 283 406 383 114 283 213 l 283 1083 l 114 1083 l 114 413 b 561 -28 114 119 294 -28 z m 561 -283 b 656 -193 618 -283 656 -243 b 561 -101 656 -142 618 -101 b 465 -193 504 -101 465 -142 b 561 -283 465 -243 504 -283 z "},"Ừ":{"ha":1164,"x_min":0,"x_max":0,"o":"m 561 -28 b 1008 413 831 -28 1008 119 l 1008 971 l 1010 971 b 1192 1104 1131 971 1192 1015 b 1143 1258 1192 1153 1176 1207 l 1025 1258 b 1063 1144 1050 1213 1063 1175 b 988 1083 1063 1101 1044 1083 l 839 1083 l 839 406 b 561 114 839 213 739 114 b 283 406 383 114 283 213 l 283 1083 l 114 1083 l 114 413 b 561 -28 114 119 294 -28 z m 639 1165 l 397 1396 l 192 1396 l 478 1165 z "},"Ử":{"ha":1164,"x_min":0,"x_max":0,"o":"m 561 -28 b 1008 413 831 -28 1008 119 l 1008 971 l 1010 971 b 1192 1104 1131 971 1192 1015 b 1143 1258 1192 1153 1176 1207 l 1025 1258 b 1063 1144 1050 1213 1063 1175 b 988 1083 1063 1101 1044 1083 l 839 1083 l 839 406 b 561 114 839 213 739 114 b 283 406 383 114 283 213 l 283 1083 l 114 1083 l 114 413 b 561 -28 114 119 294 -28 z m 511 1153 b 758 1322 663 1163 758 1224 b 574 1461 758 1411 686 1461 b 404 1421 511 1461 444 1443 l 404 1331 b 544 1363 450 1351 497 1363 b 639 1308 607 1363 639 1344 b 513 1231 639 1269 597 1243 z "},"Ữ":{"ha":1164,"x_min":0,"x_max":0,"o":"m 561 -28 b 1008 413 831 -28 1008 119 l 1008 971 l 1010 971 b 1192 1104 1131 971 1192 1015 b 1143 1258 1192 1153 1176 1207 l 1025 1258 b 1063 1144 1050 1213 1063 1175 b 988 1083 1063 1101 1044 1083 l 839 1083 l 839 406 b 561 114 839 213 739 114 b 283 406 383 114 283 213 l 283 1083 l 114 1083 l 114 413 b 561 -28 114 119 294 -28 z m 676 1176 b 844 1368 769 1176 828 1253 l 749 1368 b 678 1286 739 1318 715 1286 b 447 1385 611 1286 557 1385 b 279 1193 354 1385 296 1308 l 375 1193 b 447 1276 386 1243 408 1276 b 676 1176 511 1276 567 1176 z "},"Ű":{"ha":1122,"x_min":0,"x_max":0,"o":"m 561 -28 b 1008 413 831 -28 1008 119 l 1008 1083 l 839 1083 l 839 406 b 561 114 839 213 739 114 b 283 406 383 114 283 213 l 283 1083 l 114 1083 l 114 413 b 561 -28 114 119 294 -28 z m 800 1165 l 1085 1396 l 883 1396 l 639 1165 z m 467 1165 l 742 1396 l 542 1396 l 306 1165 z "},"Ū":{"ha":1122,"x_min":0,"x_max":0,"o":"m 561 -28 b 1008 413 831 -28 1008 119 l 1008 1083 l 839 1083 l 839 406 b 561 114 839 213 739 114 b 283 406 383 114 283 213 l 283 1083 l 114 1083 l 114 413 b 561 -28 114 119 294 -28 z m 794 1196 l 794 1306 l 328 1306 l 328 1196 z "},"Ų":{"ha":1122,"x_min":0,"x_max":0,"o":"m 561 -28 b 1008 413 831 -28 1008 119 l 1008 1083 l 839 1083 l 839 406 b 561 114 839 213 739 114 b 283 406 383 114 283 213 l 283 1083 l 114 1083 l 114 413 b 561 -28 114 119 294 -28 z m 758 -335 b 889 -306 803 -335 851 -324 l 889 -201 b 782 -222 851 -217 815 -222 b 699 -144 732 -222 699 -199 b 833 43 700 -85 743 -19 l 785 76 b 571 -181 635 -11 571 -86 b 758 -335 571 -279 647 -335 z "},"Ʊ":{"ha":1289,"x_min":0,"x_max":0,"o":"m 65 1083 l 65 943 l 333 943 b 81 494 190 863 81 696 b 644 -26 81 194 311 -26 b 1208 494 978 -26 1208 194 b 954 943 1208 697 1099 863 l 1222 943 l 1222 1083 l 708 1083 l 708 956 b 1042 517 894 900 1042 742 b 644 115 1042 286 883 115 b 246 517 406 115 246 286 b 581 956 246 742 396 900 l 581 1083 z "},"Ů":{"ha":1122,"x_min":0,"x_max":0,"o":"m 561 -28 b 1008 413 831 -28 1008 119 l 1008 1083 l 839 1083 l 839 406 b 561 114 839 213 739 114 b 283 406 383 114 283 213 l 283 1083 l 114 1083 l 114 413 b 561 -28 114 119 294 -28 z m 561 1149 b 739 1317 665 1149 739 1218 b 561 1483 739 1413 667 1483 b 383 1317 457 1483 383 1413 b 561 1149 383 1218 457 1149 z m 561 1238 b 483 1317 517 1238 483 1271 b 561 1394 483 1361 517 1394 b 639 1317 606 1394 639 1361 b 561 1238 639 1271 606 1238 z "},"Ũ":{"ha":1122,"x_min":0,"x_max":0,"o":"m 561 -28 b 1008 413 831 -28 1008 119 l 1008 1083 l 839 1083 l 839 406 b 561 114 839 213 739 114 b 283 406 383 114 283 213 l 283 1083 l 114 1083 l 114 413 b 561 -28 114 119 294 -28 z m 676 1176 b 844 1368 769 1176 828 1253 l 749 1368 b 678 1286 739 1318 715 1286 b 447 1385 611 1286 557 1385 b 279 1193 354 1385 296 1308 l 375 1193 b 447 1276 386 1243 408 1276 b 676 1176 511 1276 567 1176 z "},"Ṹ":{"ha":1122,"x_min":0,"x_max":0,"o":"m 561 -28 b 1008 413 831 -28 1008 119 l 1008 1083 l 839 1083 l 839 406 b 561 114 839 213 739 114 b 283 406 383 114 283 213 l 283 1083 l 114 1083 l 114 413 b 561 -28 114 119 294 -28 z m 660 1175 b 815 1351 747 1175 800 1246 l 726 1351 b 663 1276 717 1307 697 1276 b 464 1364 604 1276 556 1364 b 308 1189 379 1364 321 1294 l 396 1189 b 460 1263 406 1233 426 1263 b 660 1175 517 1263 567 1175 z m 617 1424 l 822 1642 l 656 1642 l 492 1424 z "},"Ṵ":{"ha":1122,"x_min":0,"x_max":0,"o":"m 561 -28 b 1008 413 831 -28 1008 119 l 1008 1083 l 839 1083 l 839 406 b 561 114 839 213 739 114 b 283 406 383 114 283 213 l 283 1083 l 114 1083 l 114 413 b 561 -28 114 119 294 -28 z m 678 -301 b 846 -110 771 -301 829 -225 l 750 -110 b 679 -192 740 -160 717 -192 b 449 -93 613 -192 558 -93 b 281 -285 356 -93 297 -169 l 376 -285 b 449 -201 388 -235 410 -201 b 678 -301 513 -201 568 -301 z "},"V":{"ha":1040,"x_min":0,"x_max":0,"o":"m 629 0 l 1029 1083 l 860 1083 l 532 164 l 189 1083 l 1 1083 l 419 0 z "},"Ɣ":{"ha":978,"x_min":0,"x_max":0,"o":"m 492 -28 b 732 168 636 -28 732 56 b 585 456 732 251 699 318 l 982 1083 l 803 1083 l 496 590 l 185 1083 l -4 1083 l 397 453 b 253 168 286 317 253 251 b 318 28 253 111 275 65 b 492 -28 363 -10 421 -28 z m 492 86 b 400 171 438 86 400 122 b 492 354 400 225 429 276 b 585 171 557 276 585 225 b 492 86 585 122 546 86 z "},"Ṿ":{"ha":1040,"x_min":0,"x_max":0,"o":"m 629 0 l 1029 1083 l 860 1083 l 532 164 l 189 1083 l 1 1083 l 419 0 z m 528 -283 b 622 -193 585 -283 622 -243 b 528 -101 622 -142 585 -101 b 432 -193 471 -101 432 -142 b 528 -283 432 -243 471 -283 z "},"Ʋ":{"ha":1151,"x_min":0,"x_max":0,"o":"m 582 -26 b 1078 643 915 -26 1078 217 b 740 1107 1078 942 978 1107 b 554 1072 669 1108 604 1093 l 554 942 b 688 965 597 957 642 965 b 907 626 843 965 907 861 b 583 118 907 293 796 118 b 282 469 394 118 282 232 l 281 1083 l 113 1083 l 113 468 b 582 -26 113 146 289 -26 z "},"Ṽ":{"ha":1040,"x_min":0,"x_max":0,"o":"m 629 0 l 1029 1083 l 860 1083 l 532 164 l 189 1083 l 1 1083 l 419 0 z m 638 1176 b 806 1368 731 1176 789 1253 l 710 1368 b 639 1286 700 1318 676 1286 b 408 1385 572 1286 518 1385 b 240 1193 315 1385 257 1308 l 336 1193 b 408 1276 347 1243 369 1276 b 638 1176 472 1276 528 1176 z "},"Ʌ":{"ha":1042,"x_min":0,"x_max":0,"o":"m 182 0 l 510 919 l 853 0 l 1040 0 l 621 1083 l 413 1083 l 11 0 z "},"W":{"ha":1538,"x_min":0,"x_max":0,"o":"m 531 0 l 769 901 l 1008 0 l 1201 0 l 1526 1083 l 1364 1083 l 1110 181 l 867 1083 l 681 1083 l 439 182 l 186 1083 l 14 1083 l 335 0 z "},"Ẃ":{"ha":1538,"x_min":0,"x_max":0,"o":"m 335 0 l 14 1083 l 186 1083 l 439 182 l 681 1083 l 867 1083 l 1110 181 l 1364 1083 l 1526 1083 l 1201 0 l 1008 0 l 769 901 l 531 0 z m 853 1165 l 1139 1396 l 933 1396 l 692 1165 z "},"Ŵ":{"ha":1538,"x_min":0,"x_max":0,"o":"m 531 0 l 769 901 l 1008 0 l 1201 0 l 1526 1083 l 1364 1083 l 1110 181 l 867 1083 l 681 1083 l 439 182 l 186 1083 l 14 1083 l 335 0 z m 622 1165 l 753 1292 b 769 1300 760 1297 765 1300 b 788 1292 775 1300 781 1297 l 918 1165 l 1046 1165 l 846 1404 l 693 1404 l 494 1165 z "},"Ẅ":{"ha":1538,"x_min":0,"x_max":0,"o":"m 531 0 l 769 901 l 1008 0 l 1201 0 l 1526 1083 l 1364 1083 l 1110 181 l 867 1083 l 681 1083 l 439 182 l 186 1083 l 14 1083 l 335 0 z m 944 1197 b 1040 1288 1001 1197 1040 1238 b 944 1379 1040 1339 1001 1379 b 850 1288 888 1379 850 1339 b 944 1197 850 1238 888 1197 z m 594 1197 b 689 1288 650 1197 689 1238 b 594 1379 689 1339 650 1379 b 499 1288 538 1379 499 1339 b 594 1197 499 1238 538 1197 z "},"Ẁ":{"ha":1538,"x_min":0,"x_max":0,"o":"m 531 0 l 769 901 l 1008 0 l 1201 0 l 1526 1083 l 1364 1083 l 1110 181 l 867 1083 l 681 1083 l 439 182 l 186 1083 l 14 1083 l 335 0 z m 847 1165 l 606 1396 l 400 1396 l 686 1165 z "},"Ⱳ":{"ha":1671,"x_min":0,"x_max":0,"o":"m 531 0 l 768 901 l 1007 0 l 1201 0 l 1447 826 b 1572 954 1475 921 1513 954 b 1701 906 1622 954 1663 933 l 1701 1043 b 1533 1104 1658 1082 1594 1104 b 1306 882 1418 1104 1350 1044 l 1108 182 l 867 1083 l 679 1083 l 439 182 l 186 1083 l 13 1083 l 335 0 z "},"X":{"ha":965,"x_min":0,"x_max":0,"o":"m 194 0 l 481 433 l 764 0 l 965 0 l 589 549 l 954 1083 l 768 1083 l 488 657 l 206 1083 l 4 1083 l 376 543 l 4 0 z "},"Ẍ":{"ha":965,"x_min":0,"x_max":0,"o":"m 194 0 l 481 433 l 764 0 l 965 0 l 589 549 l 954 1083 l 768 1083 l 488 657 l 206 1083 l 4 1083 l 376 543 l 4 0 z m 661 1197 b 757 1288 718 1197 757 1238 b 661 1379 757 1339 718 1379 b 567 1288 604 1379 567 1339 b 661 1197 567 1238 604 1197 z m 311 1197 b 406 1288 367 1197 406 1238 b 311 1379 406 1339 367 1379 b 215 1288 254 1379 215 1339 b 311 1197 215 1238 254 1197 z "},"Y":{"ha":975,"x_min":0,"x_max":0,"o":"m 571 0 l 571 438 l 964 1083 l 788 1083 l 496 585 l 194 1083 l 4 1083 l 406 438 l 406 0 z "},"Ý":{"ha":975,"x_min":0,"x_max":0,"o":"m 406 0 l 406 438 l 4 1083 l 194 1083 l 496 585 l 788 1083 l 964 1083 l 571 438 l 571 0 z m 569 1165 l 856 1396 l 650 1396 l 408 1165 z "},"Ŷ":{"ha":975,"x_min":0,"x_max":0,"o":"m 571 0 l 571 438 l 964 1083 l 788 1083 l 496 585 l 194 1083 l 4 1083 l 406 438 l 406 0 z m 339 1165 l 469 1292 b 486 1300 476 1297 482 1300 b 504 1292 492 1300 497 1297 l 635 1165 l 763 1165 l 563 1404 l 410 1404 l 211 1165 z "},"Ÿ":{"ha":975,"x_min":0,"x_max":0,"o":"m 571 0 l 571 438 l 964 1083 l 788 1083 l 496 585 l 194 1083 l 4 1083 l 406 438 l 406 0 z m 661 1197 b 757 1288 718 1197 757 1238 b 661 1379 757 1339 718 1379 b 567 1288 604 1379 567 1339 b 661 1197 567 1238 604 1197 z m 311 1197 b 406 1288 367 1197 406 1238 b 311 1379 406 1339 367 1379 b 215 1288 254 1379 215 1339 b 311 1197 215 1238 254 1197 z "},"Ẏ":{"ha":975,"x_min":0,"x_max":0,"o":"m 571 0 l 571 438 l 964 1083 l 788 1083 l 496 585 l 194 1083 l 4 1083 l 406 438 l 406 0 z m 486 1185 b 581 1275 543 1185 581 1225 b 486 1367 581 1326 543 1367 b 390 1275 429 1367 390 1326 b 486 1185 390 1225 429 1185 z "},"Ỵ":{"ha":975,"x_min":0,"x_max":0,"o":"m 571 0 l 571 438 l 964 1083 l 788 1083 l 496 585 l 194 1083 l 4 1083 l 406 438 l 406 0 z m 483 -283 b 578 -193 540 -283 578 -243 b 483 -101 578 -142 540 -101 b 388 -193 426 -101 388 -142 b 483 -283 388 -243 426 -283 z "},"Ỳ":{"ha":975,"x_min":0,"x_max":0,"o":"m 571 0 l 571 438 l 964 1083 l 788 1083 l 496 585 l 194 1083 l 4 1083 l 406 438 l 406 0 z m 564 1165 l 322 1396 l 117 1396 l 403 1165 z "},"Ƴ":{"ha":1067,"x_min":0,"x_max":0,"o":"m 578 0 l 578 439 l 835 871 b 950 954 872 936 900 954 b 1071 908 986 954 1026 939 l 1071 1047 b 922 1104 1032 1081 978 1104 b 733 983 839 1104 785 1071 l 501 585 l 201 1083 l 10 1083 l 413 438 l 413 0 z "},"Ỷ":{"ha":975,"x_min":0,"x_max":0,"o":"m 571 0 l 571 438 l 964 1083 l 788 1083 l 496 585 l 194 1083 l 4 1083 l 406 438 l 406 0 z m 436 1153 b 683 1322 588 1163 683 1224 b 499 1461 683 1411 611 1461 b 329 1421 436 1461 369 1443 l 329 1331 b 469 1363 375 1351 422 1363 b 564 1308 532 1363 564 1344 b 438 1231 564 1269 522 1243 z "},"Ȳ":{"ha":975,"x_min":0,"x_max":0,"o":"m 571 0 l 571 438 l 964 1083 l 788 1083 l 496 585 l 194 1083 l 4 1083 l 406 438 l 406 0 z m 719 1196 l 719 1306 l 253 1306 l 253 1196 z "},"Ỹ":{"ha":975,"x_min":0,"x_max":0,"o":"m 571 0 l 571 438 l 964 1083 l 788 1083 l 496 585 l 194 1083 l 4 1083 l 406 438 l 406 0 z m 600 1176 b 768 1368 693 1176 751 1253 l 672 1368 b 601 1286 663 1318 639 1286 b 371 1385 535 1286 481 1385 b 203 1193 278 1385 219 1308 l 299 1193 b 371 1276 310 1243 332 1276 b 600 1176 435 1276 490 1176 z "},"Z":{"ha":878,"x_min":0,"x_max":0,"o":"m 829 0 l 829 138 l 276 138 l 868 1079 l 868 1083 l 51 1083 l 51 946 l 604 946 l 13 3 l 13 0 z "},"Ź":{"ha":878,"x_min":0,"x_max":0,"o":"m 13 0 l 13 3 l 604 946 l 51 946 l 51 1083 l 868 1083 l 868 1079 l 276 138 l 829 138 l 829 0 z m 524 1165 l 810 1396 l 604 1396 l 363 1165 z "},"Ž":{"ha":878,"x_min":0,"x_max":0,"o":"m 13 0 l 13 3 l 604 946 l 51 946 l 51 1083 l 868 1083 l 868 1079 l 276 138 l 829 138 l 829 0 z m 165 1404 l 364 1165 l 517 1165 l 717 1404 l 589 1404 l 458 1278 b 440 1269 451 1272 446 1269 b 424 1278 436 1269 431 1272 l 293 1404 z "},"Ẑ":{"ha":878,"x_min":0,"x_max":0,"o":"m 829 0 l 829 138 l 276 138 l 868 1079 l 868 1083 l 51 1083 l 51 946 l 604 946 l 13 3 l 13 0 z m 293 1165 l 424 1292 b 440 1300 431 1297 436 1300 b 458 1292 446 1300 451 1297 l 589 1165 l 717 1165 l 517 1404 l 364 1404 l 165 1165 z "},"Ż":{"ha":878,"x_min":0,"x_max":0,"o":"m 829 0 l 829 138 l 276 138 l 868 1079 l 868 1083 l 51 1083 l 51 946 l 604 946 l 13 3 l 13 0 z m 440 1185 b 535 1275 497 1185 535 1225 b 440 1367 535 1326 497 1367 b 344 1275 383 1367 344 1326 b 440 1185 344 1225 383 1185 z "},"Ẓ":{"ha":878,"x_min":0,"x_max":0,"o":"m 829 0 l 829 138 l 276 138 l 868 1079 l 868 1083 l 51 1083 l 51 946 l 604 946 l 13 3 l 13 0 z m 440 -283 b 535 -193 497 -283 535 -243 b 440 -101 535 -142 497 -101 b 344 -193 383 -101 344 -142 b 440 -283 344 -243 383 -283 z "},"Ẕ":{"ha":878,"x_min":0,"x_max":0,"o":"m 829 0 l 829 138 l 276 138 l 868 1079 l 868 1083 l 51 1083 l 51 946 l 604 946 l 13 3 l 13 0 z m 674 -224 l 674 -114 l 207 -114 l 207 -224 z "},"a":{"ha":863,"x_min":0,"x_max":0,"o":"m 356 -25 b 601 89 471 -25 551 18 b 626 110 611 103 619 110 b 643 86 635 110 640 101 b 653 0 649 68 651 29 l 768 0 l 768 494 b 433 817 768 700 649 817 b 194 744 338 817 258 793 b 76 558 132 697 92 635 l 235 558 b 435 694 257 642 328 694 b 618 503 553 694 618 625 l 618 500 b 369 469 574 489 471 476 b 54 225 157 453 54 375 b 136 43 54 149 82 89 b 356 -25 192 -3 265 -25 z m 210 228 b 388 356 210 307 260 344 b 618 389 488 365 575 376 l 618 383 b 581 208 618 310 603 254 b 381 94 540 121 464 94 b 210 228 276 94 210 146 z "},"á":{"ha":863,"x_min":0,"x_max":0,"o":"m 356 -25 b 136 43 265 -25 192 -3 b 54 225 82 89 54 149 b 369 469 54 375 157 453 b 618 500 471 476 574 489 l 618 503 b 435 694 618 625 553 694 b 235 558 328 694 257 642 l 76 558 b 194 744 92 635 132 697 b 433 817 258 793 338 817 b 768 494 649 817 768 700 l 768 0 l 653 0 b 643 86 651 29 649 68 b 626 110 640 101 635 110 b 601 89 619 110 611 103 b 356 -25 551 18 471 -25 z m 210 228 b 381 94 210 146 276 94 b 581 208 464 94 540 121 b 618 383 603 254 618 310 l 618 389 b 388 356 575 376 488 365 b 210 228 260 344 210 307 z m 490 889 l 696 1183 l 519 1183 l 363 889 z "},"ă":{"ha":863,"x_min":0,"x_max":0,"o":"m 356 -25 b 601 89 471 -25 551 18 b 626 110 611 103 619 110 b 643 86 635 110 640 101 b 653 0 649 68 651 29 l 768 0 l 768 494 b 433 817 768 700 649 817 b 194 744 338 817 258 793 b 76 558 132 697 92 635 l 235 558 b 435 694 257 642 328 694 b 618 503 553 694 618 625 l 618 500 b 369 469 574 489 471 476 b 54 225 157 453 54 375 b 136 43 54 149 82 89 b 356 -25 192 -3 265 -25 z m 210 228 b 388 356 210 307 260 344 b 618 389 488 365 575 376 l 618 383 b 581 208 618 310 603 254 b 381 94 540 121 464 94 b 210 228 276 94 210 146 z m 426 899 b 682 1128 575 899 671 988 l 579 1128 b 426 1003 563 1050 510 1003 b 274 1128 344 1003 290 1050 l 171 1128 b 426 899 182 988 278 899 z "},"ắ":{"ha":863,"x_min":0,"x_max":0,"o":"m 356 -25 b 136 43 265 -25 192 -3 b 54 225 82 89 54 149 b 369 469 54 375 157 453 b 618 500 471 476 574 489 l 618 503 b 435 694 618 625 553 694 b 235 558 328 694 257 642 l 76 558 b 194 744 92 635 132 697 b 433 817 258 793 338 817 b 768 494 649 817 768 700 l 768 0 l 653 0 b 643 86 651 29 649 68 b 626 110 640 101 635 110 b 601 89 619 110 611 103 b 356 -25 551 18 471 -25 z m 210 228 b 381 94 210 146 276 94 b 581 208 464 94 540 121 b 618 383 603 254 618 310 l 618 389 b 388 356 575 376 488 365 b 210 228 260 344 210 307 z m 426 894 b 193 1103 289 894 200 975 l 292 1103 b 426 989 307 1031 347 989 b 561 1103 504 989 546 1031 l 660 1103 b 426 894 653 975 564 894 z m 472 1140 l 636 1372 l 493 1372 l 372 1140 z "},"ặ":{"ha":863,"x_min":0,"x_max":0,"o":"m 356 -25 b 601 89 471 -25 551 18 b 626 110 611 103 619 110 b 643 86 635 110 640 101 b 653 0 649 68 651 29 l 768 0 l 768 494 b 433 817 768 700 649 817 b 194 744 338 817 258 793 b 76 558 132 697 92 635 l 235 558 b 435 694 257 642 328 694 b 618 503 553 694 618 625 l 618 500 b 369 469 574 489 471 476 b 54 225 157 453 54 375 b 136 43 54 149 82 89 b 356 -25 192 -3 265 -25 z m 210 228 b 388 356 210 307 260 344 b 618 389 488 365 575 376 l 618 383 b 581 208 618 310 603 254 b 381 94 540 121 464 94 b 210 228 276 94 210 146 z m 435 -307 b 531 -215 492 -307 531 -267 b 435 -124 531 -164 492 -124 b 339 -215 378 -124 339 -164 b 435 -307 339 -267 378 -307 z m 426 899 b 682 1128 575 899 671 988 l 579 1128 b 426 1003 563 1050 510 1003 b 274 1128 344 1003 290 1050 l 171 1128 b 426 899 182 988 278 899 z "},"ằ":{"ha":863,"x_min":0,"x_max":0,"o":"m 356 -25 b 601 89 471 -25 551 18 b 626 110 611 103 619 110 b 643 86 635 110 640 101 b 653 0 649 68 651 29 l 768 0 l 768 494 b 433 817 768 700 649 817 b 194 744 338 817 258 793 b 76 558 132 697 92 635 l 235 558 b 435 694 257 642 328 694 b 618 503 553 694 618 625 l 618 500 b 369 469 574 489 471 476 b 54 225 157 453 54 375 b 136 43 54 149 82 89 b 356 -25 192 -3 265 -25 z m 210 228 b 388 356 210 307 260 344 b 618 389 488 365 575 376 l 618 383 b 581 208 618 310 603 254 b 381 94 540 121 464 94 b 210 228 276 94 210 146 z m 426 894 b 660 1103 564 894 653 975 l 561 1103 b 426 989 546 1031 504 989 b 292 1103 347 989 307 1031 l 193 1103 b 426 894 200 975 289 894 z m 481 1140 l 360 1372 l 217 1372 l 381 1140 z "},"ẳ":{"ha":863,"x_min":0,"x_max":0,"o":"m 356 -25 b 601 89 471 -25 551 18 b 626 110 611 103 619 110 b 643 86 635 110 640 101 b 653 0 649 68 651 29 l 768 0 l 768 494 b 433 817 768 700 649 817 b 194 744 338 817 258 793 b 76 558 132 697 92 635 l 235 558 b 435 694 257 642 328 694 b 618 503 553 694 618 625 l 618 500 b 369 469 574 489 471 476 b 54 225 157 453 54 375 b 136 43 54 149 82 89 b 356 -25 192 -3 265 -25 z m 210 228 b 388 356 210 307 260 344 b 618 389 488 365 575 376 l 618 383 b 581 208 618 310 603 254 b 381 94 540 121 464 94 b 210 228 276 94 210 146 z m 426 894 b 660 1103 564 894 653 975 l 561 1103 b 426 989 546 1031 504 989 b 292 1103 347 989 307 1031 l 193 1103 b 426 894 200 975 289 894 z m 385 1125 b 593 1290 513 1136 593 1197 b 436 1424 593 1375 532 1424 b 294 1383 385 1424 328 1407 l 294 1301 b 413 1333 332 1324 375 1333 b 490 1279 464 1333 490 1315 b 385 1197 490 1239 456 1211 z "},"ẵ":{"ha":863,"x_min":0,"x_max":0,"o":"m 356 -25 b 601 89 471 -25 551 18 b 626 110 611 103 619 110 b 643 86 635 110 640 101 b 653 0 649 68 651 29 l 768 0 l 768 494 b 433 817 768 700 649 817 b 194 744 338 817 258 793 b 76 558 132 697 92 635 l 235 558 b 435 694 257 642 328 694 b 618 503 553 694 618 625 l 618 500 b 369 469 574 489 471 476 b 54 225 157 453 54 375 b 136 43 54 149 82 89 b 356 -25 192 -3 265 -25 z m 210 228 b 388 356 210 307 260 344 b 618 389 488 365 575 376 l 618 383 b 581 208 618 310 603 254 b 381 94 540 121 464 94 b 210 228 276 94 210 146 z m 426 894 b 660 1103 564 894 653 975 l 561 1103 b 426 989 546 1031 504 989 b 292 1103 347 989 307 1031 l 193 1103 b 426 894 200 975 289 894 z m 513 1151 b 661 1317 592 1151 646 1217 l 571 1317 b 511 1253 563 1274 543 1253 b 340 1326 460 1253 422 1326 b 193 1161 261 1326 206 1260 l 283 1161 b 342 1225 292 1204 311 1225 b 513 1151 394 1225 433 1151 z "},"ǎ":{"ha":863,"x_min":0,"x_max":0,"o":"m 356 -25 b 136 43 265 -25 192 -3 b 54 225 82 89 54 149 b 369 469 54 375 157 453 b 618 500 471 476 574 489 l 618 503 b 435 694 618 625 553 694 b 235 558 328 694 257 642 l 76 558 b 194 744 92 635 132 697 b 433 817 258 793 338 817 b 768 494 649 817 768 700 l 768 0 l 653 0 b 643 86 651 29 649 68 b 626 110 640 101 635 110 b 601 89 619 110 611 103 b 356 -25 551 18 471 -25 z m 210 228 b 381 94 210 146 276 94 b 581 208 464 94 540 121 b 618 383 603 254 618 310 l 618 389 b 388 356 575 376 488 365 b 210 228 260 344 210 307 z m 165 1182 l 367 888 l 486 888 l 688 1182 l 576 1182 l 456 1040 b 426 1022 444 1028 435 1022 b 397 1040 418 1022 408 1028 l 276 1182 z "},"â":{"ha":863,"x_min":0,"x_max":0,"o":"m 356 -25 b 601 89 471 -25 551 18 b 626 110 611 103 619 110 b 643 86 635 110 640 101 b 653 0 649 68 651 29 l 768 0 l 768 494 b 433 817 768 700 649 817 b 194 744 338 817 258 793 b 76 558 132 697 92 635 l 235 558 b 435 694 257 642 328 694 b 618 503 553 694 618 625 l 618 500 b 369 469 574 489 471 476 b 54 225 157 453 54 375 b 136 43 54 149 82 89 b 356 -25 192 -3 265 -25 z m 210 228 b 388 356 210 307 260 344 b 618 389 488 365 575 376 l 618 383 b 581 208 618 310 603 254 b 381 94 540 121 464 94 b 210 228 276 94 210 146 z m 276 889 l 397 1031 b 426 1049 408 1043 418 1049 b 456 1031 435 1049 444 1043 l 576 889 l 688 889 l 486 1183 l 367 1183 l 165 889 z "},"ấ":{"ha":863,"x_min":0,"x_max":0,"o":"m 356 -25 b 136 43 265 -25 192 -3 b 54 225 82 89 54 149 b 369 469 54 375 157 453 b 618 500 471 476 574 489 l 618 503 b 435 694 618 625 553 694 b 235 558 328 694 257 642 l 76 558 b 194 744 92 635 132 697 b 433 817 258 793 338 817 b 768 494 649 817 768 700 l 768 0 l 653 0 b 643 86 651 29 649 68 b 626 110 640 101 635 110 b 601 89 619 110 611 103 b 356 -25 551 18 471 -25 z m 210 228 b 381 94 210 146 276 94 b 581 208 464 94 540 121 b 618 383 603 254 618 310 l 618 389 b 388 356 575 376 488 365 b 210 228 260 344 210 307 z m 190 889 l 369 1143 l 483 1143 l 663 889 l 554 889 l 451 1006 b 426 1019 442 1015 433 1019 b 401 1006 419 1019 411 1015 l 299 889 z m 674 1107 l 838 1339 l 694 1339 l 574 1107 z "},"ậ":{"ha":863,"x_min":0,"x_max":0,"o":"m 356 -25 b 601 89 471 -25 551 18 b 626 110 611 103 619 110 b 643 86 635 110 640 101 b 653 0 649 68 651 29 l 768 0 l 768 494 b 433 817 768 700 649 817 b 194 744 338 817 258 793 b 76 558 132 697 92 635 l 235 558 b 435 694 257 642 328 694 b 618 503 553 694 618 625 l 618 500 b 369 469 574 489 471 476 b 54 225 157 453 54 375 b 136 43 54 149 82 89 b 356 -25 192 -3 265 -25 z m 210 228 b 388 356 210 307 260 344 b 618 389 488 365 575 376 l 618 383 b 581 208 618 310 603 254 b 381 94 540 121 464 94 b 210 228 276 94 210 146 z m 435 -307 b 531 -215 492 -307 531 -267 b 435 -124 531 -164 492 -124 b 339 -215 378 -124 339 -164 b 435 -307 339 -267 378 -307 z m 276 889 l 397 1031 b 426 1049 408 1043 418 1049 b 456 1031 435 1049 444 1043 l 576 889 l 688 889 l 486 1183 l 367 1183 l 165 889 z "},"ầ":{"ha":863,"x_min":0,"x_max":0,"o":"m 356 -25 b 601 89 471 -25 551 18 b 626 110 611 103 619 110 b 643 86 635 110 640 101 b 653 0 649 68 651 29 l 768 0 l 768 494 b 433 817 768 700 649 817 b 194 744 338 817 258 793 b 76 558 132 697 92 635 l 235 558 b 435 694 257 642 328 694 b 618 503 553 694 618 625 l 618 500 b 369 469 574 489 471 476 b 54 225 157 453 54 375 b 136 43 54 149 82 89 b 356 -25 192 -3 265 -25 z m 210 228 b 388 356 210 307 260 344 b 618 389 488 365 575 376 l 618 383 b 581 208 618 310 603 254 b 381 94 540 121 464 94 b 210 228 276 94 210 146 z m 299 889 l 401 1006 b 426 1019 411 1015 419 1019 b 451 1006 433 1019 442 1015 l 554 889 l 663 889 l 483 1143 l 369 1143 l 190 889 z m 694 1107 l 574 1339 l 431 1339 l 594 1107 z "},"ẩ":{"ha":863,"x_min":0,"x_max":0,"o":"m 356 -25 b 601 89 471 -25 551 18 b 626 110 611 103 619 110 b 643 86 635 110 640 101 b 653 0 649 68 651 29 l 768 0 l 768 494 b 433 817 768 700 649 817 b 194 744 338 817 258 793 b 76 558 132 697 92 635 l 235 558 b 435 694 257 642 328 694 b 618 503 553 694 618 625 l 618 500 b 369 469 574 489 471 476 b 54 225 157 453 54 375 b 136 43 54 149 82 89 b 356 -25 192 -3 265 -25 z m 210 228 b 388 356 210 307 260 344 b 618 389 488 365 575 376 l 618 383 b 581 208 618 310 603 254 b 381 94 540 121 464 94 b 210 228 276 94 210 146 z m 299 889 l 401 1006 b 426 1019 411 1015 419 1019 b 451 1006 433 1019 442 1015 l 554 889 l 663 889 l 483 1143 l 369 1143 l 190 889 z m 578 1094 b 786 1260 706 1106 786 1167 b 629 1393 786 1344 725 1393 b 488 1353 578 1393 521 1376 l 488 1271 b 606 1303 525 1293 568 1303 b 683 1249 657 1303 683 1285 b 578 1167 683 1208 649 1181 z "},"ẫ":{"ha":863,"x_min":0,"x_max":0,"o":"m 356 -25 b 601 89 471 -25 551 18 b 626 110 611 103 619 110 b 643 86 635 110 640 101 b 653 0 649 68 651 29 l 768 0 l 768 494 b 433 817 768 700 649 817 b 194 744 338 817 258 793 b 76 558 132 697 92 635 l 235 558 b 435 694 257 642 328 694 b 618 503 553 694 618 625 l 618 500 b 369 469 574 489 471 476 b 54 225 157 453 54 375 b 136 43 54 149 82 89 b 356 -25 192 -3 265 -25 z m 210 228 b 388 356 210 307 260 344 b 618 389 488 365 575 376 l 618 383 b 581 208 618 310 603 254 b 381 94 540 121 464 94 b 210 228 276 94 210 146 z m 299 889 l 401 1006 b 426 1019 411 1015 419 1019 b 451 1006 433 1019 442 1015 l 554 889 l 663 889 l 483 1143 l 369 1143 l 190 889 z m 513 1193 b 661 1358 592 1193 646 1258 l 571 1358 b 511 1294 563 1315 543 1294 b 340 1368 460 1294 422 1368 b 193 1203 261 1368 206 1301 l 283 1203 b 342 1267 292 1246 311 1267 b 513 1193 394 1267 433 1193 z "},"ä":{"ha":863,"x_min":0,"x_max":0,"o":"m 356 -25 b 601 89 471 -25 551 18 b 626 110 611 103 619 110 b 643 86 635 110 640 101 b 653 0 649 68 651 29 l 768 0 l 768 494 b 433 817 768 700 649 817 b 194 744 338 817 258 793 b 76 558 132 697 92 635 l 235 558 b 435 694 257 642 328 694 b 618 503 553 694 618 625 l 618 500 b 369 469 574 489 471 476 b 54 225 157 453 54 375 b 136 43 54 149 82 89 b 356 -25 192 -3 265 -25 z m 210 228 b 388 356 210 307 260 344 b 618 389 488 365 575 376 l 618 383 b 581 208 618 310 603 254 b 381 94 540 121 464 94 b 210 228 276 94 210 146 z m 596 904 b 690 994 651 904 690 944 b 596 1085 690 1046 651 1085 b 501 994 539 1085 501 1046 b 596 904 501 944 539 904 z m 256 904 b 351 994 315 904 351 944 b 256 1085 351 1046 315 1085 b 163 994 200 1085 163 1046 b 256 904 163 944 200 904 z "},"ǟ":{"ha":863,"x_min":0,"x_max":0,"o":"m 356 -25 b 601 89 471 -25 551 18 b 626 110 611 103 619 110 b 643 86 635 110 640 101 b 653 0 649 68 651 29 l 768 0 l 768 494 b 433 817 768 700 649 817 b 194 744 338 817 258 793 b 76 558 132 697 92 635 l 235 558 b 435 694 257 642 328 694 b 618 503 553 694 618 625 l 618 500 b 369 469 574 489 471 476 b 54 225 157 453 54 375 b 136 43 54 149 82 89 b 356 -25 192 -3 265 -25 z m 210 228 b 388 356 210 307 260 344 b 618 389 488 365 575 376 l 618 383 b 581 208 618 310 603 254 b 381 94 540 121 464 94 b 210 228 276 94 210 146 z m 576 886 b 663 967 628 886 663 922 b 576 1047 663 1013 628 1047 b 492 967 526 1047 492 1013 b 576 886 492 922 526 886 z m 276 886 b 363 967 326 886 363 922 b 276 1047 363 1013 326 1047 b 192 967 225 1047 192 1013 b 276 886 192 922 225 886 z m 640 1128 l 640 1228 l 213 1228 l 213 1128 z "},"ȧ":{"ha":863,"x_min":0,"x_max":0,"o":"m 356 -25 b 601 89 471 -25 551 18 b 626 110 611 103 619 110 b 643 86 635 110 640 101 b 653 0 649 68 651 29 l 768 0 l 768 494 b 433 817 768 700 649 817 b 194 744 338 817 258 793 b 76 558 132 697 92 635 l 235 558 b 435 694 257 642 328 694 b 618 503 553 694 618 625 l 618 500 b 369 469 574 489 471 476 b 54 225 157 453 54 375 b 136 43 54 149 82 89 b 356 -25 192 -3 265 -25 z m 210 228 b 388 356 210 307 260 344 b 618 389 488 365 575 376 l 618 383 b 581 208 618 310 603 254 b 381 94 540 121 464 94 b 210 228 276 94 210 146 z m 425 907 b 521 999 482 907 521 947 b 425 1090 521 1050 482 1090 b 329 999 368 1090 329 1050 b 425 907 329 947 368 907 z "},"ạ":{"ha":863,"x_min":0,"x_max":0,"o":"m 356 -25 b 601 89 471 -25 551 18 b 626 110 611 103 619 110 b 643 86 635 110 640 101 b 653 0 649 68 651 29 l 768 0 l 768 494 b 433 817 768 700 649 817 b 194 744 338 817 258 793 b 76 558 132 697 92 635 l 235 558 b 435 694 257 642 328 694 b 618 503 553 694 618 625 l 618 500 b 369 469 574 489 471 476 b 54 225 157 453 54 375 b 136 43 54 149 82 89 b 356 -25 192 -3 265 -25 z m 210 228 b 388 356 210 307 260 344 b 618 389 488 365 575 376 l 618 383 b 581 208 618 310 603 254 b 381 94 540 121 464 94 b 210 228 276 94 210 146 z m 435 -307 b 531 -215 492 -307 531 -267 b 435 -124 531 -164 492 -124 b 339 -215 378 -124 339 -164 b 435 -307 339 -267 378 -307 z "},"à":{"ha":863,"x_min":0,"x_max":0,"o":"m 356 -25 b 601 89 471 -25 551 18 b 626 110 611 103 619 110 b 643 86 635 110 640 101 b 653 0 649 68 651 29 l 768 0 l 768 494 b 433 817 768 700 649 817 b 194 744 338 817 258 793 b 76 558 132 697 92 635 l 235 558 b 435 694 257 642 328 694 b 618 503 553 694 618 625 l 618 500 b 369 469 574 489 471 476 b 54 225 157 453 54 375 b 136 43 54 149 82 89 b 356 -25 192 -3 265 -25 z m 210 228 b 388 356 210 307 260 344 b 618 389 488 365 575 376 l 618 383 b 581 208 618 310 603 254 b 381 94 540 121 464 94 b 210 228 276 94 210 146 z m 490 889 l 333 1183 l 157 1183 l 363 889 z "},"ả":{"ha":863,"x_min":0,"x_max":0,"o":"m 356 -25 b 601 89 471 -25 551 18 b 626 110 611 103 619 110 b 643 86 635 110 640 101 b 653 0 649 68 651 29 l 768 0 l 768 494 b 433 817 768 700 649 817 b 194 744 338 817 258 793 b 76 558 132 697 92 635 l 235 558 b 435 694 257 642 328 694 b 618 503 553 694 618 625 l 618 500 b 369 469 574 489 471 476 b 54 225 157 453 54 375 b 136 43 54 149 82 89 b 356 -25 192 -3 265 -25 z m 210 228 b 388 356 210 307 260 344 b 618 389 488 365 575 376 l 618 383 b 581 208 618 310 603 254 b 381 94 540 121 464 94 b 210 228 276 94 210 146 z m 379 888 b 615 1079 522 903 615 974 b 438 1233 615 1179 547 1233 b 276 1186 381 1233 317 1214 l 276 1096 b 411 1132 321 1119 365 1132 b 500 1068 471 1132 500 1111 b 379 969 500 1019 460 988 z "},"ɑ":{"ha":1010,"x_min":0,"x_max":0,"o":"m 451 -25 b 728 96 575 -25 665 19 b 761 118 743 111 754 118 b 781 88 771 118 778 108 b 789 0 786 61 788 24 l 903 0 l 903 792 l 789 792 b 781 704 788 768 786 731 b 761 672 778 683 771 672 b 728 696 754 672 743 681 b 451 815 665 772 575 815 b 53 396 224 815 53 639 b 451 -25 53 154 224 -25 z m 483 108 b 210 396 322 108 210 224 b 483 685 210 567 322 685 b 756 396 647 685 756 567 b 483 108 756 225 647 108 z "},"ā":{"ha":863,"x_min":0,"x_max":0,"o":"m 356 -25 b 601 89 471 -25 551 18 b 626 110 611 103 619 110 b 643 86 635 110 640 101 b 653 0 649 68 651 29 l 768 0 l 768 494 b 433 817 768 700 649 817 b 194 744 338 817 258 793 b 76 558 132 697 92 635 l 235 558 b 435 694 257 642 328 694 b 618 503 553 694 618 625 l 618 500 b 369 469 574 489 471 476 b 54 225 157 453 54 375 b 136 43 54 149 82 89 b 356 -25 192 -3 265 -25 z m 210 228 b 388 356 210 307 260 344 b 618 389 488 365 575 376 l 618 383 b 581 208 618 310 603 254 b 381 94 540 121 464 94 b 210 228 276 94 210 146 z m 660 928 l 660 1038 l 193 1038 l 193 928 z "},"ą":{"ha":863,"x_min":0,"x_max":0,"o":"m 356 -25 b 601 89 471 -25 551 18 b 626 110 611 103 619 110 b 643 86 635 110 640 101 b 653 0 649 68 651 29 l 768 0 l 768 494 b 433 817 768 700 649 817 b 194 744 338 817 258 793 b 76 558 132 697 92 635 l 235 558 b 435 694 257 642 328 694 b 618 503 553 694 618 625 l 618 500 b 369 469 574 489 471 476 b 54 225 157 453 54 375 b 136 43 54 149 82 89 b 356 -25 192 -3 265 -25 z m 210 228 b 388 356 210 307 260 344 b 618 389 488 365 575 376 l 618 383 b 581 208 618 310 603 254 b 381 94 540 121 464 94 b 210 228 276 94 210 146 z m 710 -342 b 822 -317 753 -342 790 -333 l 822 -219 b 732 -239 793 -232 764 -239 b 646 -169 681 -239 646 -214 b 768 0 646 -119 683 -72 l 689 40 b 528 -190 576 -44 528 -114 b 710 -342 528 -285 600 -342 z "},"å":{"ha":863,"x_min":0,"x_max":0,"o":"m 356 -25 b 601 89 471 -25 551 18 b 626 110 611 103 619 110 b 643 86 635 110 640 101 b 653 0 649 68 651 29 l 768 0 l 768 494 b 433 817 768 700 649 817 b 194 744 338 817 258 793 b 76 558 132 697 92 635 l 235 558 b 435 694 257 642 328 694 b 618 503 553 694 618 625 l 618 500 b 369 469 574 489 471 476 b 54 225 157 453 54 375 b 136 43 54 149 82 89 b 356 -25 192 -3 265 -25 z m 210 228 b 388 356 210 307 260 344 b 618 389 488 365 575 376 l 618 383 b 581 208 618 310 603 254 b 381 94 540 121 464 94 b 210 228 276 94 210 146 z m 426 882 b 601 1046 528 882 601 951 b 426 1211 601 1142 528 1211 b 251 1046 325 1211 251 1142 b 426 882 251 951 325 882 z m 426 965 b 346 1046 381 965 346 1000 b 426 1128 346 1094 381 1128 b 507 1046 475 1128 507 1094 b 426 965 507 1000 475 965 z "},"ǻ":{"ha":863,"x_min":0,"x_max":0,"o":"m 356 -25 b 136 43 265 -25 192 -3 b 54 225 82 89 54 149 b 369 469 54 375 157 453 b 618 500 471 476 574 489 l 618 503 b 435 694 618 625 553 694 b 235 558 328 694 257 642 l 76 558 b 194 744 92 635 132 697 b 433 817 258 793 338 817 b 768 494 649 817 768 700 l 768 0 l 653 0 b 643 86 651 29 649 68 b 626 110 640 101 635 110 b 601 89 619 110 611 103 b 356 -25 551 18 471 -25 z m 210 228 b 381 94 210 146 276 94 b 581 208 464 94 540 121 b 618 383 603 254 618 310 l 618 389 b 388 356 575 376 488 365 b 210 228 260 344 210 307 z m 426 876 b 271 1019 336 876 271 936 b 426 1163 271 1103 336 1163 b 582 1019 517 1163 582 1103 b 426 876 582 936 517 876 z m 426 951 b 497 1019 467 951 497 981 b 426 1088 497 1058 467 1088 b 357 1019 386 1088 357 1058 b 426 951 357 981 386 951 z m 472 1108 l 636 1340 l 493 1340 l 372 1108 z "},"ḁ":{"ha":863,"x_min":0,"x_max":0,"o":"m 356 -25 b 601 89 471 -25 551 18 b 626 110 611 103 619 110 b 643 86 635 110 640 101 b 653 0 649 68 651 29 l 768 0 l 768 494 b 433 817 768 700 649 817 b 194 744 338 817 258 793 b 76 558 132 697 92 635 l 235 558 b 435 694 257 642 328 694 b 618 503 553 694 618 625 l 618 500 b 369 469 574 489 471 476 b 54 225 157 453 54 375 b 136 43 54 149 82 89 b 356 -25 192 -3 265 -25 z m 210 228 b 388 356 210 307 260 344 b 618 389 488 365 575 376 l 618 383 b 581 208 618 310 603 254 b 381 94 540 121 464 94 b 210 228 276 94 210 146 z m 435 -415 b 610 -251 536 -415 610 -346 b 435 -86 610 -156 536 -86 b 260 -251 333 -86 260 -156 b 435 -415 260 -346 333 -415 z m 435 -332 b 354 -251 389 -332 354 -297 b 435 -169 354 -203 389 -169 b 515 -251 483 -169 515 -203 b 435 -332 515 -297 483 -332 z "},"ã":{"ha":863,"x_min":0,"x_max":0,"o":"m 356 -25 b 601 89 471 -25 551 18 b 626 110 611 103 619 110 b 643 86 635 110 640 101 b 653 0 649 68 651 29 l 768 0 l 768 494 b 433 817 768 700 649 817 b 194 744 338 817 258 793 b 76 558 132 697 92 635 l 235 558 b 435 694 257 642 328 694 b 618 503 553 694 618 625 l 618 500 b 369 469 574 489 471 476 b 54 225 157 453 54 375 b 136 43 54 149 82 89 b 356 -25 192 -3 265 -25 z m 210 228 b 388 356 210 307 260 344 b 618 389 488 365 575 376 l 618 383 b 581 208 618 310 603 254 b 381 94 540 121 464 94 b 210 228 276 94 210 146 z m 538 899 b 706 1090 631 899 689 975 l 610 1090 b 539 1008 600 1040 576 1008 b 308 1107 472 1008 418 1107 b 140 915 215 1107 157 1031 l 236 915 b 308 999 247 965 269 999 b 538 899 372 999 428 899 z "},"æ":{"ha":1461,"x_min":0,"x_max":0,"o":"m 386 -25 b 694 164 532 -26 651 46 b 1025 -25 750 47 869 -25 b 1394 242 1214 -25 1356 76 l 1240 242 b 1022 99 1214 154 1132 99 b 775 351 872 99 781 200 l 1403 351 b 1408 421 1407 364 1408 399 b 1024 817 1408 651 1254 817 b 710 653 889 817 775 757 b 426 815 665 757 561 815 b 194 743 333 817 256 792 b 79 556 133 694 94 632 l 238 556 b 428 694 260 643 332 694 b 615 467 553 694 615 618 l 615 458 l 349 458 b 53 231 160 458 53 371 b 386 -25 53 71 186 -25 z m 1021 694 b 1257 457 1158 694 1253 600 l 775 458 b 1021 694 788 601 881 694 z m 393 92 b 208 229 281 92 208 146 b 379 351 208 311 265 351 l 614 351 b 393 92 604 169 536 92 z "},"ǽ":{"ha":1461,"x_min":0,"x_max":0,"o":"m 386 -25 b 53 231 186 -25 53 71 b 349 458 53 371 160 458 l 615 458 l 615 467 b 428 694 615 618 553 694 b 238 556 332 694 260 643 l 79 556 b 194 743 94 632 133 694 b 426 815 256 792 333 817 b 710 653 561 815 665 757 b 1024 817 775 757 889 817 b 1408 421 1254 817 1408 651 b 1403 351 1408 399 1407 364 l 775 351 b 1022 99 781 200 872 99 b 1240 242 1132 99 1214 154 l 1394 242 b 1025 -25 1356 76 1214 -25 b 694 164 869 -25 750 47 b 386 -25 651 46 532 -26 z m 1021 694 b 775 458 881 694 788 601 l 1257 457 b 1021 694 1253 600 1158 694 z m 393 92 b 614 351 536 92 604 169 l 379 351 b 208 229 265 351 208 311 b 393 92 208 146 281 92 z m 783 892 l 989 1186 l 813 1186 l 656 892 z "},"b":{"ha":1010,"x_min":0,"x_max":0,"o":"m 557 -25 b 958 394 783 -25 958 153 b 553 815 958 639 786 815 b 290 708 438 815 347 774 b 274 697 285 701 279 697 b 260 721 264 697 260 706 l 260 1125 l 107 1125 l 107 0 l 221 0 b 229 88 222 24 225 61 b 249 118 232 108 239 118 b 281 96 257 118 268 111 b 557 -25 346 19 435 -25 z m 526 108 b 254 396 367 108 254 225 b 526 683 254 564 367 683 b 800 396 688 683 800 564 b 526 108 800 225 688 108 z "},"ḅ":{"ha":1010,"x_min":0,"x_max":0,"o":"m 557 -25 b 958 394 783 -25 958 153 b 553 815 958 639 786 815 b 290 708 438 815 347 774 b 274 697 285 701 279 697 b 260 721 264 697 260 706 l 260 1125 l 107 1125 l 107 0 l 221 0 b 229 88 222 24 225 61 b 249 118 232 108 239 118 b 281 96 257 118 268 111 b 557 -25 346 19 435 -25 z m 526 108 b 254 396 367 108 254 225 b 526 683 254 564 367 683 b 800 396 688 683 800 564 b 526 108 800 225 688 108 z m 522 -307 b 618 -215 579 -307 618 -267 b 522 -124 618 -164 579 -124 b 426 -215 465 -124 426 -164 b 522 -307 426 -267 465 -307 z "},"ɓ":{"ha":1010,"x_min":0,"x_max":0,"o":"m 557 -25 b 958 394 783 -25 958 153 b 553 815 958 639 786 815 b 290 708 438 815 347 774 b 274 697 285 701 279 697 b 260 721 264 697 260 706 l 260 861 b 414 1019 260 967 311 1019 b 554 989 465 1019 514 1007 l 554 1103 b 378 1144 510 1129 440 1144 b 107 868 197 1143 107 1051 l 107 0 l 221 0 b 229 88 222 24 225 61 b 249 118 232 108 239 118 b 281 96 257 118 268 111 b 557 -25 346 19 435 -25 z m 526 108 b 254 396 367 108 254 225 b 526 683 254 564 367 683 b 800 396 688 683 800 564 b 526 108 800 225 688 108 z "},"ʘ":{"ha":1265,"x_min":0,"x_max":0,"o":"m 633 -26 b 1207 542 969 -26 1207 214 b 633 1110 1207 871 969 1110 b 58 542 299 1110 58 871 b 633 -26 58 214 299 -26 z m 633 107 b 221 542 389 107 221 281 b 633 978 221 801 389 978 b 1044 542 875 978 1044 801 b 633 107 1044 281 875 107 z m 633 450 b 728 542 689 450 728 490 b 633 633 728 592 689 633 b 538 542 574 633 538 592 b 633 450 538 490 574 450 z "},"ḇ":{"ha":1010,"x_min":0,"x_max":0,"o":"m 557 -25 b 958 394 783 -25 958 153 b 553 815 958 639 786 815 b 290 708 438 815 347 774 b 274 697 285 701 279 697 b 260 721 264 697 260 706 l 260 1125 l 107 1125 l 107 0 l 221 0 b 229 88 222 24 225 61 b 249 118 232 108 239 118 b 281 96 257 118 268 111 b 557 -25 346 19 435 -25 z m 526 108 b 254 396 367 108 254 225 b 526 683 254 564 367 683 b 800 396 688 683 800 564 b 526 108 800 225 688 108 z m 756 -258 l 756 -149 l 289 -149 l 289 -258 z "},"ƀ":{"ha":1010,"x_min":0,"x_max":0,"o":"m 557 -25 b 958 394 783 -25 958 153 b 553 815 958 639 786 815 b 290 708 438 815 347 774 b 274 697 285 701 279 697 b 260 721 264 697 260 706 l 260 906 l 524 906 l 524 1007 l 260 1007 l 260 1125 l 107 1125 l 107 1007 l -4 1007 l -4 906 l 107 906 l 107 0 l 221 0 b 229 88 222 24 225 61 b 249 118 232 108 239 118 b 281 96 257 118 268 111 b 557 -25 346 19 435 -25 z m 526 108 b 254 396 367 108 254 225 b 526 683 254 564 367 683 b 800 396 688 683 800 564 b 526 108 800 225 688 108 z "},"c":{"ha":919,"x_min":0,"x_max":0,"o":"m 475 -26 b 878 301 693 -26 847 104 l 722 301 b 479 107 699 181 607 107 b 208 396 318 107 208 226 b 479 685 208 567 318 685 b 722 490 607 685 699 608 l 878 490 b 747 728 863 589 818 668 b 475 817 676 788 585 817 b 51 396 228 817 51 643 b 475 -26 51 150 228 -26 z "},"ć":{"ha":919,"x_min":0,"x_max":0,"o":"m 475 -26 b 51 396 228 -26 51 150 b 475 817 51 643 228 817 b 747 728 585 817 676 788 b 878 490 818 668 863 589 l 722 490 b 479 685 699 608 607 685 b 208 396 318 685 208 567 b 479 107 208 226 318 107 b 722 301 607 107 699 181 l 878 301 b 475 -26 847 104 693 -26 z m 535 890 l 740 1185 l 564 1185 l 407 890 z "},"č":{"ha":919,"x_min":0,"x_max":0,"o":"m 475 -26 b 51 396 228 -26 51 150 b 475 817 51 643 228 817 b 747 728 585 817 676 788 b 878 490 818 668 863 589 l 722 490 b 479 685 699 608 607 685 b 208 396 318 685 208 567 b 479 107 208 226 318 107 b 722 301 607 107 699 181 l 878 301 b 475 -26 847 104 693 -26 z m 210 1185 l 411 890 l 531 890 l 732 1185 l 621 1185 l 500 1043 b 471 1025 489 1031 479 1025 b 442 1043 463 1025 453 1031 l 321 1185 z "},"ç":{"ha":919,"x_min":0,"x_max":0,"o":"m 475 -26 b 878 301 693 -26 847 104 l 722 301 b 479 107 699 181 607 107 b 208 396 318 107 208 226 b 479 685 208 567 318 685 b 722 490 607 685 699 608 l 878 490 b 747 728 863 589 818 668 b 475 817 676 788 585 817 b 51 396 228 817 51 643 b 475 -26 51 150 228 -26 z m 481 -360 b 675 -190 603 -360 675 -289 b 519 0 675 -114 615 -40 l 394 0 b 568 -182 507 -57 568 -125 b 481 -262 568 -232 536 -262 b 372 -151 418 -262 379 -219 l 258 -151 b 481 -360 265 -275 343 -360 z "},"ĉ":{"ha":919,"x_min":0,"x_max":0,"o":"m 475 -26 b 878 301 693 -26 847 104 l 722 301 b 479 107 699 181 607 107 b 208 396 318 107 208 226 b 479 685 208 567 318 685 b 722 490 607 685 699 608 l 878 490 b 747 728 863 589 818 668 b 475 817 676 788 585 817 b 51 396 228 817 51 643 b 475 -26 51 150 228 -26 z m 321 890 l 442 1032 b 471 1050 453 1044 463 1050 b 500 1032 479 1050 489 1044 l 621 890 l 732 890 l 531 1185 l 411 1185 l 210 890 z "},"ċ":{"ha":919,"x_min":0,"x_max":0,"o":"m 475 -26 b 878 301 693 -26 847 104 l 722 301 b 479 107 699 181 607 107 b 208 396 318 107 208 226 b 479 685 208 567 318 685 b 722 490 607 685 699 608 l 878 490 b 747 728 863 589 818 668 b 475 817 676 788 585 817 b 51 396 228 817 51 643 b 475 -26 51 150 228 -26 z m 471 908 b 567 1000 528 908 567 949 b 471 1092 567 1051 528 1092 b 375 1000 414 1092 375 1051 b 471 908 375 949 414 908 z "},"ƈ":{"ha":926,"x_min":0,"x_max":0,"o":"m 476 -26 b 879 301 694 -26 849 104 l 722 301 b 479 107 700 181 608 107 b 210 396 319 107 210 226 b 479 685 210 567 319 685 b 722 490 608 685 700 608 l 879 490 b 819 653 869 547 847 599 b 750 858 769 736 750 796 b 864 964 750 925 792 964 b 947 950 893 964 921 960 l 947 1061 b 824 1089 919 1078 867 1089 b 621 907 703 1089 621 1022 b 651 783 621 861 631 821 b 476 817 597 806 539 817 b 53 396 229 817 53 643 b 476 -26 53 150 229 -26 z "},"ↄ":{"ha":921,"x_min":0,"x_max":0,"o":"m 453 -26 b 868 396 694 -26 868 150 b 453 817 868 643 694 817 b 42 490 226 817 75 688 l 199 490 b 451 685 221 608 314 685 b 711 396 606 685 711 567 b 451 107 711 226 606 107 b 199 301 314 107 221 181 l 42 301 b 453 -26 75 104 228 -26 z "},"d":{"ha":1010,"x_min":0,"x_max":0,"o":"m 453 -25 b 729 96 576 -25 664 19 b 761 118 742 111 753 118 b 781 88 771 118 778 108 b 789 0 786 61 789 24 l 903 0 l 903 1125 l 750 1125 l 750 721 b 736 697 750 706 746 697 b 719 708 731 697 725 701 b 457 815 663 774 572 815 b 51 394 224 815 51 639 b 453 -25 51 153 228 -25 z m 483 108 b 210 396 322 108 210 225 b 483 683 210 564 322 683 b 756 396 643 683 756 564 b 483 108 756 225 643 108 z "},"ð":{"ha":935,"x_min":0,"x_max":0,"o":"m 458 -26 b 869 439 706 -26 875 150 b 669 971 868 657 793 842 l 801 1025 l 801 1118 l 600 1035 b 404 1139 540 1081 475 1115 l 292 1068 b 472 982 357 1050 417 1021 l 304 911 l 304 818 l 547 919 b 643 792 588 881 619 838 b 681 683 667 751 681 707 b 668 665 681 671 676 665 b 642 681 663 665 654 671 b 431 750 593 724 513 750 b 51 364 215 750 51 588 b 458 -26 51 139 224 -26 z m 458 104 b 207 363 311 104 207 213 b 460 621 207 513 310 621 b 710 368 607 621 710 511 b 458 104 710 214 607 104 z "},"ď":{"ha":1094,"x_min":0,"x_max":0,"o":"m 453 -25 b 729 96 576 -25 664 19 b 761 118 742 111 753 118 b 781 88 771 118 778 108 b 789 0 786 61 789 24 l 903 0 l 903 1125 l 750 1125 l 750 721 b 736 697 750 706 746 697 b 719 708 731 697 725 701 b 457 815 663 774 572 815 b 51 394 224 815 51 639 b 453 -25 51 153 228 -25 z m 483 108 b 210 396 322 108 210 225 b 483 683 210 564 322 683 b 756 396 643 683 756 564 b 483 108 756 225 643 108 z m 1096 767 l 1158 1125 l 1011 1125 l 983 767 z "},"ḑ":{"ha":1010,"x_min":0,"x_max":0,"o":"m 453 -25 b 729 96 576 -25 664 19 b 761 118 742 111 753 118 b 781 88 771 118 778 108 b 789 0 786 61 789 24 l 903 0 l 903 1125 l 750 1125 l 750 721 b 736 697 750 706 746 697 b 719 708 731 697 725 701 b 457 815 663 774 572 815 b 51 394 224 815 51 639 b 453 -25 51 153 228 -25 z m 483 108 b 210 396 322 108 210 225 b 483 683 210 564 322 683 b 756 396 643 683 756 564 b 483 108 756 225 643 108 z m 469 -410 l 571 -100 l 428 -100 l 364 -410 z "},"ḓ":{"ha":1010,"x_min":0,"x_max":0,"o":"m 453 -25 b 729 96 576 -25 664 19 b 761 118 742 111 753 118 b 781 88 771 118 778 108 b 789 0 786 61 789 24 l 903 0 l 903 1125 l 750 1125 l 750 721 b 736 697 750 706 746 697 b 719 708 731 697 725 701 b 457 815 663 774 572 815 b 51 394 224 815 51 639 b 453 -25 51 153 228 -25 z m 483 108 b 210 396 322 108 210 225 b 483 683 210 564 322 683 b 756 396 643 683 756 564 b 483 108 756 225 643 108 z m 350 -422 l 471 -281 b 500 -262 482 -268 492 -262 b 529 -281 508 -262 518 -268 l 650 -422 l 761 -422 l 560 -128 l 440 -128 l 239 -422 z "},"đ":{"ha":1010,"x_min":0,"x_max":0,"o":"m 453 -25 b 729 96 576 -25 664 19 b 761 118 742 111 753 118 b 781 88 771 118 778 108 b 789 0 786 61 789 24 l 903 0 l 903 906 l 1014 906 l 1014 1007 l 903 1007 l 903 1125 l 750 1125 l 750 1007 l 486 1007 l 486 906 l 750 906 l 750 721 b 736 697 750 706 746 697 b 719 708 731 697 725 701 b 457 815 663 774 572 815 b 51 394 224 815 51 639 b 453 -25 51 153 228 -25 z m 483 108 b 210 396 322 108 210 225 b 483 683 210 564 322 683 b 756 396 643 683 756 564 b 483 108 756 225 643 108 z "},"ḍ":{"ha":1010,"x_min":0,"x_max":0,"o":"m 453 -25 b 729 96 576 -25 664 19 b 761 118 742 111 753 118 b 781 88 771 118 778 108 b 789 0 786 61 789 24 l 903 0 l 903 1125 l 750 1125 l 750 721 b 736 697 750 706 746 697 b 719 708 731 697 725 701 b 457 815 663 774 572 815 b 51 394 224 815 51 639 b 453 -25 51 153 228 -25 z m 483 108 b 210 396 322 108 210 225 b 483 683 210 564 322 683 b 756 396 643 683 756 564 b 483 108 756 225 643 108 z m 500 -303 b 596 -211 557 -303 596 -262 b 500 -119 596 -160 557 -119 b 404 -211 443 -119 404 -160 b 500 -303 404 -262 443 -303 z "},"ɗ":{"ha":1010,"x_min":0,"x_max":0,"o":"m 453 -25 b 729 96 576 -25 664 19 b 761 118 742 111 753 118 b 781 88 771 118 778 108 b 789 0 786 61 789 24 l 903 0 l 903 888 b 1015 1021 903 976 940 1021 b 1096 1007 1042 1021 1069 1017 l 1096 1118 b 969 1144 1063 1133 1013 1144 b 750 904 824 1144 750 1058 l 750 721 b 736 697 750 706 746 697 b 719 708 731 697 725 701 b 457 815 663 774 572 815 b 51 394 224 815 51 639 b 453 -25 51 153 228 -25 z m 483 108 b 210 396 322 108 210 225 b 483 683 210 564 322 683 b 756 396 643 683 756 564 b 483 108 756 225 643 108 z "},"ḏ":{"ha":1010,"x_min":0,"x_max":0,"o":"m 453 -25 b 729 96 576 -25 664 19 b 761 118 742 111 753 118 b 781 88 771 118 778 108 b 789 0 786 61 789 24 l 903 0 l 903 1125 l 750 1125 l 750 721 b 736 697 750 706 746 697 b 719 708 731 697 725 701 b 457 815 663 774 572 815 b 51 394 224 815 51 639 b 453 -25 51 153 228 -25 z m 483 108 b 210 396 322 108 210 225 b 483 683 210 564 322 683 b 756 396 643 683 756 564 b 483 108 756 225 643 108 z m 733 -254 l 733 -144 l 267 -144 l 267 -254 z "},"ɖ":{"ha":1010,"x_min":0,"x_max":0,"o":"m 969 -349 b 1096 -322 1013 -349 1063 -339 l 1096 -211 b 1015 -225 1069 -221 1044 -225 b 903 -93 940 -225 903 -181 l 903 1125 l 750 1125 l 750 721 b 736 697 750 706 746 697 b 719 708 731 697 725 701 b 457 815 663 774 572 815 b 51 396 224 815 51 639 b 457 -25 51 154 224 -25 b 719 83 572 -25 663 18 b 736 93 725 90 731 93 b 750 71 746 93 750 86 l 750 -108 b 969 -349 750 -262 824 -349 z m 483 108 b 210 396 322 108 210 229 b 483 683 210 564 322 683 b 756 396 643 683 756 564 b 483 108 756 225 643 108 z "},"e":{"ha":915,"x_min":0,"x_max":0,"o":"m 468 -25 b 718 47 567 -25 650 -1 b 850 242 786 96 831 160 l 694 242 b 468 99 668 154 581 99 b 210 343 319 99 221 194 l 858 343 b 863 418 860 358 863 396 b 463 817 863 643 715 817 b 53 396 232 817 53 642 b 468 -25 53 144 221 -25 z m 467 694 b 713 461 607 694 707 600 l 211 461 b 467 694 226 604 326 694 z "},"é":{"ha":915,"x_min":0,"x_max":0,"o":"m 468 -25 b 53 396 221 -25 53 144 b 463 817 53 642 232 817 b 863 418 715 817 863 643 b 858 343 863 396 860 358 l 210 343 b 468 99 221 194 319 99 b 694 242 581 99 668 154 l 850 242 b 718 47 831 160 786 96 b 468 -25 650 -1 567 -25 z m 467 694 b 211 461 326 694 226 604 l 713 461 b 467 694 707 600 607 694 z m 522 890 l 728 1185 l 551 1185 l 394 890 z "},"ĕ":{"ha":915,"x_min":0,"x_max":0,"o":"m 468 -25 b 718 47 567 -25 650 -1 b 850 242 786 96 831 160 l 694 242 b 468 99 668 154 581 99 b 210 343 319 99 221 194 l 858 343 b 863 418 860 358 863 396 b 463 817 863 643 715 817 b 53 396 232 817 53 642 b 468 -25 53 144 221 -25 z m 467 694 b 713 461 607 694 707 600 l 211 461 b 467 694 226 604 326 694 z m 458 900 b 714 1129 607 900 703 989 l 611 1129 b 458 1004 594 1051 542 1004 b 306 1129 376 1004 322 1051 l 203 1129 b 458 900 214 989 310 900 z "},"ě":{"ha":915,"x_min":0,"x_max":0,"o":"m 468 -25 b 53 396 221 -25 53 144 b 463 817 53 642 232 817 b 863 418 715 817 863 643 b 858 343 863 396 860 358 l 210 343 b 468 99 221 194 319 99 b 694 242 581 99 668 154 l 850 242 b 718 47 831 160 786 96 b 468 -25 650 -1 567 -25 z m 467 694 b 211 461 326 694 226 604 l 713 461 b 467 694 707 600 607 694 z m 197 1185 l 399 890 l 518 890 l 719 1185 l 608 1185 l 488 1043 b 458 1025 476 1031 467 1025 b 429 1043 450 1025 440 1031 l 308 1185 z "},"ȩ":{"ha":915,"x_min":0,"x_max":0,"o":"m 468 -25 b 718 47 567 -25 650 -1 b 850 242 786 96 831 160 l 694 242 b 468 99 668 154 581 99 b 210 343 319 99 221 194 l 858 343 b 863 418 860 358 863 396 b 463 817 863 643 715 817 b 53 396 232 817 53 642 b 468 -25 53 144 221 -25 z m 467 694 b 713 461 607 694 707 600 l 211 461 b 467 694 226 604 326 694 z m 482 -360 b 676 -190 604 -360 676 -289 b 521 0 676 -114 617 -40 l 396 0 b 569 -182 508 -57 569 -125 b 482 -262 569 -232 538 -262 b 374 -151 419 -262 381 -219 l 260 -151 b 482 -360 267 -275 344 -360 z "},"ê":{"ha":915,"x_min":0,"x_max":0,"o":"m 468 -25 b 718 47 567 -25 650 -1 b 850 242 786 96 831 160 l 694 242 b 468 99 668 154 581 99 b 210 343 319 99 221 194 l 858 343 b 863 418 860 358 863 396 b 463 817 863 643 715 817 b 53 396 232 817 53 642 b 468 -25 53 144 221 -25 z m 467 694 b 713 461 607 694 707 600 l 211 461 b 467 694 226 604 326 694 z m 308 890 l 429 1032 b 458 1050 440 1044 450 1050 b 488 1032 467 1050 476 1044 l 608 890 l 719 890 l 518 1185 l 399 1185 l 197 890 z "},"ế":{"ha":915,"x_min":0,"x_max":0,"o":"m 468 -25 b 53 396 221 -25 53 144 b 463 817 53 642 232 817 b 863 418 715 817 863 643 b 858 343 863 396 860 358 l 210 343 b 468 99 221 194 319 99 b 694 242 581 99 668 154 l 850 242 b 718 47 831 160 786 96 b 468 -25 650 -1 567 -25 z m 467 694 b 211 461 326 694 226 604 l 713 461 b 467 694 707 600 607 694 z m 224 890 l 403 1144 l 517 1144 l 696 890 l 588 890 l 485 1007 b 460 1021 475 1017 467 1021 b 435 1007 453 1021 444 1017 l 332 890 z m 706 1110 l 869 1342 l 726 1342 l 606 1110 z "},"ệ":{"ha":915,"x_min":0,"x_max":0,"o":"m 468 -25 b 718 47 567 -25 650 -1 b 850 242 786 96 831 160 l 694 242 b 468 99 668 154 581 99 b 210 343 319 99 221 194 l 858 343 b 863 418 860 358 863 396 b 463 817 863 643 715 817 b 53 396 232 817 53 642 b 468 -25 53 144 221 -25 z m 467 694 b 713 461 607 694 707 600 l 211 461 b 467 694 226 604 326 694 z m 308 890 l 429 1032 b 458 1050 440 1044 450 1050 b 488 1032 467 1050 476 1044 l 608 890 l 719 890 l 518 1185 l 399 1185 l 197 890 z m 463 -307 b 558 -215 519 -307 558 -267 b 463 -124 558 -164 519 -124 b 367 -215 406 -124 367 -164 b 463 -307 367 -267 406 -307 z "},"ề":{"ha":915,"x_min":0,"x_max":0,"o":"m 468 -25 b 718 47 567 -25 650 -1 b 850 242 786 96 831 160 l 694 242 b 468 99 668 154 581 99 b 210 343 319 99 221 194 l 858 343 b 863 418 860 358 863 396 b 463 817 863 643 715 817 b 53 396 232 817 53 642 b 468 -25 53 144 221 -25 z m 467 694 b 713 461 607 694 707 600 l 211 461 b 467 694 226 604 326 694 z m 332 890 l 435 1007 b 460 1021 444 1017 453 1021 b 485 1007 467 1021 475 1017 l 588 890 l 696 890 l 517 1144 l 403 1144 l 224 890 z m 726 1110 l 606 1342 l 463 1342 l 626 1110 z "},"ể":{"ha":915,"x_min":0,"x_max":0,"o":"m 468 -25 b 718 47 567 -25 650 -1 b 850 242 786 96 831 160 l 694 242 b 468 99 668 154 581 99 b 210 343 319 99 221 194 l 858 343 b 863 418 860 358 863 396 b 463 817 863 643 715 817 b 53 396 232 817 53 642 b 468 -25 53 144 221 -25 z m 467 694 b 713 461 607 694 707 600 l 211 461 b 467 694 226 604 326 694 z m 332 890 l 435 1007 b 460 1021 444 1017 453 1021 b 485 1007 467 1021 475 1017 l 588 890 l 696 890 l 517 1144 l 403 1144 l 224 890 z m 624 1094 b 832 1260 751 1106 832 1167 b 675 1393 832 1344 771 1393 b 533 1353 624 1393 567 1376 l 533 1271 b 651 1303 571 1293 614 1303 b 729 1249 703 1303 729 1285 b 624 1167 729 1208 694 1181 z "},"ễ":{"ha":915,"x_min":0,"x_max":0,"o":"m 468 -25 b 718 47 567 -25 650 -1 b 850 242 786 96 831 160 l 694 242 b 468 99 668 154 581 99 b 210 343 319 99 221 194 l 858 343 b 863 418 860 358 863 396 b 463 817 863 643 715 817 b 53 396 232 817 53 642 b 468 -25 53 144 221 -25 z m 467 694 b 713 461 607 694 707 600 l 211 461 b 467 694 226 604 326 694 z m 332 890 l 435 1007 b 460 1021 444 1017 453 1021 b 485 1007 467 1021 475 1017 l 588 890 l 696 890 l 517 1144 l 403 1144 l 224 890 z m 546 1196 b 694 1361 625 1196 679 1261 l 604 1361 b 544 1297 596 1318 576 1297 b 374 1371 493 1297 456 1371 b 226 1206 294 1371 239 1304 l 317 1206 b 375 1269 325 1249 344 1269 b 546 1196 428 1269 467 1196 z "},"ë":{"ha":915,"x_min":0,"x_max":0,"o":"m 468 -25 b 718 47 567 -25 650 -1 b 850 242 786 96 831 160 l 694 242 b 468 99 668 154 581 99 b 210 343 319 99 221 194 l 858 343 b 863 418 860 358 863 396 b 463 817 863 643 715 817 b 53 396 232 817 53 642 b 468 -25 53 144 221 -25 z m 467 694 b 713 461 607 694 707 600 l 211 461 b 467 694 226 604 326 694 z m 628 906 b 722 996 683 906 722 946 b 628 1086 722 1047 683 1086 b 533 996 571 1086 533 1047 b 628 906 533 946 571 906 z m 288 906 b 383 996 347 906 383 946 b 288 1086 383 1047 347 1086 b 194 996 232 1086 194 1047 b 288 906 194 946 232 906 z "},"ė":{"ha":915,"x_min":0,"x_max":0,"o":"m 468 -25 b 718 47 567 -25 650 -1 b 850 242 786 96 831 160 l 694 242 b 468 99 668 154 581 99 b 210 343 319 99 221 194 l 858 343 b 863 418 860 358 863 396 b 463 817 863 643 715 817 b 53 396 232 817 53 642 b 468 -25 53 144 221 -25 z m 467 694 b 713 461 607 694 707 600 l 211 461 b 467 694 226 604 326 694 z m 458 908 b 554 1000 515 908 554 949 b 458 1092 554 1051 515 1092 b 363 1000 401 1092 363 1051 b 458 908 363 949 401 908 z "},"ẹ":{"ha":915,"x_min":0,"x_max":0,"o":"m 468 -25 b 718 47 567 -25 650 -1 b 850 242 786 96 831 160 l 694 242 b 468 99 668 154 581 99 b 210 343 319 99 221 194 l 858 343 b 863 418 860 358 863 396 b 463 817 863 643 715 817 b 53 396 232 817 53 642 b 468 -25 53 144 221 -25 z m 467 694 b 713 461 607 694 707 600 l 211 461 b 467 694 226 604 326 694 z m 463 -307 b 558 -215 519 -307 558 -267 b 463 -124 558 -164 519 -124 b 367 -215 406 -124 367 -164 b 463 -307 367 -267 406 -307 z "},"è":{"ha":915,"x_min":0,"x_max":0,"o":"m 468 -25 b 718 47 567 -25 650 -1 b 850 242 786 96 831 160 l 694 242 b 468 99 668 154 581 99 b 210 343 319 99 221 194 l 858 343 b 863 418 860 358 863 396 b 463 817 863 643 715 817 b 53 396 232 817 53 642 b 468 -25 53 144 221 -25 z m 467 694 b 713 461 607 694 707 600 l 211 461 b 467 694 226 604 326 694 z m 522 890 l 365 1185 l 189 1185 l 394 890 z "},"ẻ":{"ha":915,"x_min":0,"x_max":0,"o":"m 468 -25 b 718 47 567 -25 650 -1 b 850 242 786 96 831 160 l 694 242 b 468 99 668 154 581 99 b 210 343 319 99 221 194 l 858 343 b 863 418 860 358 863 396 b 463 817 863 643 715 817 b 53 396 232 817 53 642 b 468 -25 53 144 221 -25 z m 467 694 b 713 461 607 694 707 600 l 211 461 b 467 694 226 604 326 694 z m 411 889 b 647 1081 554 904 647 975 b 469 1235 647 1181 579 1235 b 308 1188 413 1235 349 1215 l 308 1097 b 443 1133 353 1121 397 1133 b 532 1069 503 1133 532 1113 b 411 971 532 1021 492 989 z "},"ē":{"ha":915,"x_min":0,"x_max":0,"o":"m 468 -25 b 718 47 567 -25 650 -1 b 850 242 786 96 831 160 l 694 242 b 468 99 668 154 581 99 b 210 343 319 99 221 194 l 858 343 b 863 418 860 358 863 396 b 463 817 863 643 715 817 b 53 396 232 817 53 642 b 468 -25 53 144 221 -25 z m 467 694 b 713 461 607 694 707 600 l 211 461 b 467 694 226 604 326 694 z m 692 929 l 692 1039 l 225 1039 l 225 929 z "},"ę":{"ha":915,"x_min":0,"x_max":0,"o":"m 468 -25 b 718 47 567 -25 650 -1 b 850 242 786 96 831 160 l 694 242 b 468 99 668 154 581 99 b 210 343 319 99 221 194 l 858 343 b 863 418 860 358 863 396 b 463 817 863 643 715 817 b 53 396 232 817 53 642 b 468 -25 53 144 221 -25 z m 467 694 b 713 461 607 694 707 600 l 211 461 b 467 694 226 604 326 694 z m 644 -329 b 758 -306 686 -329 724 -321 l 758 -208 b 669 -225 729 -219 700 -225 b 582 -149 615 -225 582 -200 b 722 43 582 -86 629 -22 l 674 78 b 464 -178 524 -10 464 -85 b 644 -329 464 -274 538 -329 z "},"ɛ":{"ha":750,"x_min":0,"x_max":0,"o":"m 383 -29 b 721 233 582 -29 704 71 l 563 233 b 389 93 550 140 493 93 b 210 231 279 93 210 142 b 388 358 210 310 278 358 l 524 358 l 524 465 l 389 465 b 236 582 296 465 236 514 b 383 696 236 654 294 696 b 538 579 476 696 526 656 l 688 579 b 378 818 675 731 560 818 b 86 600 199 818 86 728 b 229 419 86 515 140 446 b 51 215 118 393 51 319 b 383 -29 51 63 192 -29 z "},"ʃ":{"ha":426,"x_min":0,"x_max":0,"o":"m 165 -350 b 382 -147 306 -350 382 -268 b 376 -53 382 -115 381 -92 l 251 846 b 244 926 247 879 244 903 b 346 1024 244 983 275 1024 b 458 1000 381 1024 419 1017 l 458 1111 b 308 1144 418 1133 363 1144 b 90 942 168 1144 90 1064 b 97 846 90 913 92 886 l 222 -51 b 229 -132 226 -85 229 -108 b 128 -229 229 -189 196 -229 b 15 -204 93 -229 54 -222 l 15 -317 b 165 -350 56 -339 110 -350 z "},"ẽ":{"ha":915,"x_min":0,"x_max":0,"o":"m 468 -25 b 718 47 567 -25 650 -1 b 850 242 786 96 831 160 l 694 242 b 468 99 668 154 581 99 b 210 343 319 99 221 194 l 858 343 b 863 418 860 358 863 396 b 463 817 863 643 715 817 b 53 396 232 817 53 642 b 468 -25 53 144 221 -25 z m 467 694 b 713 461 607 694 707 600 l 211 461 b 467 694 226 604 326 694 z m 569 900 b 738 1092 663 900 721 976 l 642 1092 b 571 1010 632 1042 608 1010 b 340 1108 504 1010 450 1108 b 172 917 247 1108 189 1032 l 268 917 b 340 1000 279 967 301 1000 b 569 900 404 1000 460 900 z "},"ḛ":{"ha":915,"x_min":0,"x_max":0,"o":"m 468 -25 b 718 47 567 -25 650 -1 b 850 242 786 96 831 160 l 694 242 b 468 99 668 154 581 99 b 210 343 319 99 221 194 l 858 343 b 863 418 860 358 863 396 b 463 817 863 643 715 817 b 53 396 232 817 53 642 b 468 -25 53 144 221 -25 z m 467 694 b 713 461 607 694 707 600 l 211 461 b 467 694 226 604 326 694 z m 574 -318 b 742 -126 667 -318 725 -242 l 646 -126 b 575 -208 636 -176 613 -208 b 344 -110 508 -208 454 -110 b 176 -301 251 -110 193 -186 l 272 -301 b 344 -218 283 -251 306 -218 b 574 -318 408 -218 464 -318 z "},"ǝ":{"ha":914,"x_min":0,"x_max":0,"o":"m 458 -26 b 863 396 692 -26 863 150 b 457 815 863 647 697 815 b 65 550 256 815 110 711 l 221 550 b 457 693 256 635 340 693 b 706 440 603 693 699 592 l 57 440 b 53 372 56 429 53 393 b 458 -26 53 139 219 -26 z m 458 96 b 276 161 385 96 324 118 b 203 335 229 206 204 264 l 704 335 b 458 96 692 192 596 96 z "},"ə":{"ha":914,"x_min":0,"x_max":0,"o":"m 458 -26 b 863 396 692 -26 863 150 b 457 815 863 647 697 815 b 65 550 256 815 110 711 l 221 550 b 457 693 256 635 340 693 b 706 440 603 693 699 592 l 57 440 b 53 372 56 429 53 393 b 458 -26 53 139 219 -26 z m 458 96 b 276 161 385 96 324 118 b 203 335 229 206 204 264 l 704 335 b 458 96 692 192 596 96 z "},"ʒ":{"ha":796,"x_min":0,"x_max":0,"o":"m 401 -350 b 772 8 615 -350 772 -206 b 422 353 772 207 635 347 l 731 788 l 731 790 l 69 790 l 69 664 l 492 664 l 189 240 l 189 238 l 368 238 b 619 6 525 238 619 149 b 397 -222 619 -132 529 -222 b 157 -37 269 -222 179 -153 l 3 -37 b 401 -350 28 -229 185 -350 z "},"ǯ":{"ha":796,"x_min":0,"x_max":0,"o":"m 401 -350 b 3 -37 185 -350 28 -229 l 157 -37 b 397 -222 179 -153 269 -222 b 619 6 529 -222 619 -132 b 368 238 619 149 525 238 l 189 238 l 189 240 l 492 664 l 69 664 l 69 790 l 731 790 l 731 788 l 422 353 b 772 8 635 347 772 207 b 401 -350 772 -206 615 -350 z m 125 1185 l 326 890 l 446 890 l 647 1185 l 536 1185 l 415 1043 b 386 1025 404 1031 394 1025 b 357 1043 378 1025 368 1031 l 236 1185 z "},"f":{"ha":563,"x_min":0,"x_max":0,"o":"m 329 0 l 329 664 l 551 664 l 551 790 l 329 790 l 329 868 b 471 1019 329 967 371 1019 b 567 1004 504 1019 536 1014 l 567 1124 b 439 1144 533 1136 482 1144 b 178 874 268 1144 178 1056 l 178 790 l 22 790 l 22 664 l 178 664 l 178 0 z "},"g":{"ha":983,"x_min":0,"x_max":0,"o":"m 488 -349 b 879 14 726 -349 879 -211 l 879 790 l 765 790 b 757 710 764 772 763 736 b 738 679 754 689 747 679 b 706 700 729 679 718 686 b 439 815 639 774 556 815 b 54 413 225 815 54 651 b 447 15 54 183 219 15 b 696 114 549 15 639 51 b 717 126 706 122 713 126 b 731 104 726 126 731 119 l 731 8 b 488 -229 731 -143 643 -229 b 236 -57 364 -229 265 -164 l 79 -57 b 488 -349 124 -226 267 -349 z m 472 143 b 211 413 319 143 211 254 b 472 683 211 571 319 683 b 733 413 628 683 733 571 b 472 143 733 253 626 143 z "},"ɣ":{"ha":886,"x_min":0,"x_max":0,"o":"m 446 -350 b 664 -156 574 -350 664 -274 b 535 151 664 -79 631 -3 l 875 790 l 706 790 l 449 282 l 189 790 l 11 790 l 354 146 b 228 -156 261 -3 228 -79 b 446 -350 228 -274 318 -350 z m 446 -237 b 368 -158 397 -237 368 -208 b 446 43 368 -107 392 -44 b 524 -158 501 -44 524 -107 b 446 -237 524 -208 494 -237 z "},"ğ":{"ha":983,"x_min":0,"x_max":0,"o":"m 488 -349 b 879 14 726 -349 879 -211 l 879 790 l 765 790 b 757 710 764 772 763 736 b 738 679 754 689 747 679 b 706 700 729 679 718 686 b 439 815 639 774 556 815 b 54 413 225 815 54 651 b 447 15 54 183 219 15 b 696 114 549 15 639 51 b 717 126 706 122 713 126 b 731 104 726 126 731 119 l 731 8 b 488 -229 731 -143 643 -229 b 236 -57 364 -229 265 -164 l 79 -57 b 488 -349 124 -226 267 -349 z m 472 143 b 211 413 319 143 211 254 b 472 683 211 571 319 683 b 733 413 628 683 733 571 b 472 143 733 253 626 143 z m 496 900 b 751 1129 644 900 740 989 l 649 1129 b 496 1004 632 1051 579 1004 b 343 1129 414 1004 360 1051 l 240 1129 b 496 900 251 989 347 900 z "},"ǧ":{"ha":983,"x_min":0,"x_max":0,"o":"m 488 -349 b 79 -57 267 -349 124 -226 l 236 -57 b 488 -229 265 -164 364 -229 b 731 8 643 -229 731 -143 l 731 104 b 717 126 731 119 726 126 b 696 114 713 126 706 122 b 447 15 639 51 549 15 b 54 413 219 15 54 183 b 439 815 54 651 225 815 b 706 700 556 815 639 774 b 738 679 718 686 729 679 b 757 710 747 679 754 689 b 765 790 763 736 764 772 l 879 790 l 879 14 b 488 -349 879 -211 726 -349 z m 472 143 b 733 413 626 143 733 253 b 472 683 733 571 628 683 b 211 413 319 683 211 571 b 472 143 211 254 319 143 z m 235 1185 l 436 890 l 556 890 l 757 1185 l 646 1185 l 525 1043 b 496 1025 514 1031 504 1025 b 467 1043 488 1025 478 1031 l 346 1185 z "},"ĝ":{"ha":983,"x_min":0,"x_max":0,"o":"m 488 -349 b 879 14 726 -349 879 -211 l 879 790 l 765 790 b 757 710 764 772 763 736 b 738 679 754 689 747 679 b 706 700 729 679 718 686 b 439 815 639 774 556 815 b 54 413 225 815 54 651 b 447 15 54 183 219 15 b 696 114 549 15 639 51 b 717 126 706 122 713 126 b 731 104 726 126 731 119 l 731 8 b 488 -229 731 -143 643 -229 b 236 -57 364 -229 265 -164 l 79 -57 b 488 -349 124 -226 267 -349 z m 472 143 b 211 413 319 143 211 254 b 472 683 211 571 319 683 b 733 413 628 683 733 571 b 472 143 733 253 626 143 z m 346 890 l 467 1032 b 496 1050 478 1044 488 1050 b 525 1032 504 1050 514 1044 l 646 890 l 757 890 l 556 1185 l 436 1185 l 235 890 z "},"ģ":{"ha":983,"x_min":0,"x_max":0,"o":"m 488 -349 b 879 14 726 -349 879 -211 l 879 790 l 765 790 b 757 710 764 772 763 736 b 738 679 754 689 747 679 b 706 700 729 679 718 686 b 439 815 639 774 556 815 b 54 413 225 815 54 651 b 447 15 54 183 219 15 b 696 114 549 15 639 51 b 717 126 706 122 713 126 b 731 104 726 126 731 119 l 731 8 b 488 -229 731 -143 643 -229 b 236 -57 364 -229 265 -164 l 79 -57 b 488 -349 124 -226 267 -349 z m 472 143 b 211 413 319 143 211 254 b 472 683 211 571 319 683 b 733 413 628 683 733 571 b 472 143 733 253 626 143 z m 524 1200 l 422 890 l 565 890 l 629 1200 z "},"ġ":{"ha":983,"x_min":0,"x_max":0,"o":"m 488 -349 b 879 14 726 -349 879 -211 l 879 790 l 765 790 b 757 710 764 772 763 736 b 738 679 754 689 747 679 b 706 700 729 679 718 686 b 439 815 639 774 556 815 b 54 413 225 815 54 651 b 447 15 54 183 219 15 b 696 114 549 15 639 51 b 717 126 706 122 713 126 b 731 104 726 126 731 119 l 731 8 b 488 -229 731 -143 643 -229 b 236 -57 364 -229 265 -164 l 79 -57 b 488 -349 124 -226 267 -349 z m 472 143 b 211 413 319 143 211 254 b 472 683 211 571 319 683 b 733 413 628 683 733 571 b 472 143 733 253 626 143 z m 494 908 b 590 1000 551 908 590 949 b 494 1092 590 1051 551 1092 b 399 1000 438 1092 399 1051 b 494 908 399 949 438 908 z "},"ɠ":{"ha":985,"x_min":0,"x_max":0,"o":"m 488 -349 b 879 15 729 -349 879 -208 l 879 889 b 992 1021 879 976 917 1021 b 1071 1007 1018 1021 1044 1017 l 1071 1118 b 946 1144 1039 1133 989 1144 b 726 904 800 1144 726 1058 l 726 725 b 713 703 726 710 722 703 b 689 718 706 703 699 708 b 444 815 633 779 549 815 b 54 414 218 815 54 644 b 447 17 54 185 219 17 b 696 115 551 17 635 50 b 717 128 704 124 711 128 b 731 106 726 128 731 121 l 731 10 b 488 -229 731 -144 643 -229 b 236 -57 364 -229 265 -162 l 79 -57 b 219 -268 101 -144 149 -214 b 488 -349 290 -322 381 -349 z m 472 144 b 211 414 319 144 211 256 b 472 683 211 571 319 683 b 733 414 626 683 733 571 b 472 144 733 254 626 144 z "},"ʔ":{"ha":703,"x_min":0,"x_max":0,"o":"m 396 0 l 396 276 b 518 572 396 419 424 475 b 681 875 650 704 681 776 b 363 1150 681 1038 556 1150 b 115 1071 264 1150 181 1124 b 0 857 50 1019 13 947 l 157 857 b 361 1024 174 963 251 1024 b 528 871 461 1024 528 964 b 404 656 528 800 501 747 b 244 278 285 542 244 453 l 244 0 z "},"ʕ":{"ha":701,"x_min":0,"x_max":0,"o":"m 457 0 l 457 278 b 296 656 457 453 417 540 b 174 868 201 747 174 799 b 351 1024 174 963 244 1024 b 544 857 463 1024 529 963 l 701 857 b 353 1150 679 1039 554 1150 b 19 874 150 1150 19 1036 b 183 572 19 776 53 703 b 306 276 278 475 306 419 l 306 0 z "},"ɂ":{"ha":724,"x_min":0,"x_max":0,"o":"m 394 0 l 394 50 b 517 276 394 144 426 204 b 689 550 640 375 689 446 b 368 817 689 706 560 817 b 7 524 172 817 33 707 l 165 524 b 368 690 182 629 263 690 b 536 549 468 690 536 632 b 413 367 536 483 508 443 b 282 224 350 318 307 271 b 244 56 257 178 244 121 l 244 0 z "},"ḡ":{"ha":983,"x_min":0,"x_max":0,"o":"m 488 -349 b 879 14 726 -349 879 -211 l 879 790 l 765 790 b 757 710 764 772 763 736 b 738 679 754 689 747 679 b 706 700 729 679 718 686 b 439 815 639 774 556 815 b 54 413 225 815 54 651 b 447 15 54 183 219 15 b 696 114 549 15 639 51 b 717 126 706 122 713 126 b 731 104 726 126 731 119 l 731 8 b 488 -229 731 -143 643 -229 b 236 -57 364 -229 265 -164 l 79 -57 b 488 -349 124 -226 267 -349 z m 472 143 b 211 413 319 143 211 254 b 472 683 211 571 319 683 b 733 413 628 683 733 571 b 472 143 733 253 626 143 z m 729 929 l 729 1039 l 263 1039 l 263 929 z "},"ǥ":{"ha":1122,"x_min":0,"x_max":0,"o":"m 157 361 b 547 15 179 160 338 15 b 796 114 649 15 739 51 b 817 126 806 122 813 126 b 831 104 826 126 831 119 l 831 7 b 588 -231 831 -144 743 -231 b 336 -58 464 -231 365 -165 l 179 -58 b 588 -350 224 -228 367 -350 b 979 13 826 -350 979 -212 l 979 361 l 1101 361 l 1101 463 l 979 463 l 979 790 l 865 790 b 858 710 865 772 863 736 b 838 679 854 689 847 679 b 807 700 831 679 819 686 b 539 815 739 774 656 815 b 157 463 340 815 179 672 l 38 463 l 38 361 z m 574 685 b 833 463 713 685 813 597 l 313 463 b 574 685 333 596 433 685 z m 574 140 b 313 361 435 140 333 229 l 833 361 b 574 140 813 228 713 140 z "},"h":{"ha":936,"x_min":0,"x_max":0,"o":"m 260 0 l 260 332 b 324 589 260 443 281 529 b 508 681 367 650 428 681 b 688 465 624 681 688 604 l 688 0 l 840 0 l 840 483 b 546 817 840 696 731 817 b 299 699 433 817 354 772 b 274 679 286 682 281 679 b 260 701 264 679 260 686 l 260 1125 l 107 1125 l 107 0 z "},"ħ":{"ha":936,"x_min":0,"x_max":0,"o":"m 260 0 l 260 332 b 324 589 260 443 281 529 b 508 681 367 650 428 681 b 688 465 624 681 688 604 l 688 0 l 840 0 l 840 483 b 546 817 840 696 731 817 b 299 699 433 817 354 772 b 274 679 286 682 281 679 b 260 701 264 679 260 686 l 260 906 l 507 906 l 507 1007 l 260 1007 l 260 1125 l 107 1125 l 107 1007 l -22 1007 l -22 906 l 107 906 l 107 0 z "},"ḫ":{"ha":936,"x_min":0,"x_max":0,"o":"m 260 0 l 260 332 b 324 589 260 443 281 529 b 508 681 367 650 428 681 b 688 465 624 681 688 604 l 688 0 l 840 0 l 840 483 b 546 817 840 696 731 817 b 299 699 433 817 354 772 b 274 679 286 682 281 679 b 260 701 264 679 260 686 l 260 1125 l 107 1125 l 107 0 z m 479 -328 b 735 -99 628 -328 724 -239 l 632 -99 b 479 -224 615 -176 563 -224 b 326 -99 397 -224 343 -176 l 224 -99 b 479 -328 235 -239 331 -328 z "},"ȟ":{"ha":936,"x_min":0,"x_max":0,"o":"m 107 0 l 107 1125 l 260 1125 l 260 701 b 274 679 260 686 264 679 b 299 699 281 679 286 682 b 546 817 354 772 433 817 b 840 483 731 817 840 696 l 840 0 l 688 0 l 688 465 b 508 681 688 604 624 681 b 324 589 428 681 367 650 b 260 332 281 529 260 443 l 260 0 z m -93 1446 l 106 1207 l 258 1207 l 458 1446 l 331 1446 l 200 1319 b 182 1311 193 1314 188 1311 b 165 1319 178 1311 172 1314 l 35 1446 z "},"ḩ":{"ha":936,"x_min":0,"x_max":0,"o":"m 260 0 l 260 332 b 324 589 260 443 281 529 b 508 681 367 650 428 681 b 688 465 624 681 688 604 l 688 0 l 840 0 l 840 483 b 546 817 840 696 731 817 b 299 699 433 817 354 772 b 274 679 286 682 281 679 b 260 701 264 679 260 686 l 260 1125 l 107 1125 l 107 0 z m 208 -360 b 403 -190 331 -360 403 -289 b 247 0 403 -114 343 -40 l 122 0 b 296 -182 235 -57 296 -125 b 208 -262 296 -232 264 -262 b 100 -151 146 -262 107 -219 l -14 -151 b 208 -360 -7 -275 71 -360 z "},"ĥ":{"ha":936,"x_min":0,"x_max":0,"o":"m 260 0 l 260 332 b 324 589 260 443 281 529 b 508 681 367 650 428 681 b 688 465 624 681 688 604 l 688 0 l 840 0 l 840 483 b 546 817 840 696 731 817 b 299 699 433 817 354 772 b 274 679 286 682 281 679 b 260 701 264 679 260 686 l 260 1125 l 107 1125 l 107 0 z m 36 1207 l 167 1333 b 183 1342 174 1339 179 1342 b 201 1333 189 1342 194 1339 l 332 1207 l 460 1207 l 260 1446 l 107 1446 l -92 1207 z "},"ḧ":{"ha":936,"x_min":0,"x_max":0,"o":"m 260 0 l 260 332 b 324 589 260 443 281 529 b 508 681 367 650 428 681 b 688 465 624 681 688 604 l 688 0 l 840 0 l 840 483 b 546 817 840 696 731 817 b 299 699 433 817 354 772 b 274 679 286 682 281 679 b 260 701 264 679 260 686 l 260 1125 l 107 1125 l 107 0 z m 358 1239 b 454 1329 415 1239 454 1279 b 358 1421 454 1381 415 1421 b 264 1329 301 1421 264 1381 b 358 1239 264 1279 301 1239 z m 8 1239 b 103 1329 64 1239 103 1279 b 8 1421 103 1381 64 1421 b -87 1329 -49 1421 -87 1381 b 8 1239 -87 1279 -49 1239 z "},"ḣ":{"ha":936,"x_min":0,"x_max":0,"o":"m 260 0 l 260 332 b 324 589 260 443 281 529 b 508 681 367 650 428 681 b 688 465 624 681 688 604 l 688 0 l 840 0 l 840 483 b 546 817 840 696 731 817 b 299 699 433 817 354 772 b 274 679 286 682 281 679 b 260 701 264 679 260 686 l 260 1125 l 107 1125 l 107 0 z m 183 1226 b 278 1317 240 1226 278 1267 b 183 1408 278 1368 240 1408 b 88 1317 126 1408 88 1368 b 183 1226 88 1267 126 1226 z "},"ḥ":{"ha":936,"x_min":0,"x_max":0,"o":"m 260 0 l 260 332 b 324 589 260 443 281 529 b 508 681 367 650 428 681 b 688 465 624 681 688 604 l 688 0 l 840 0 l 840 483 b 546 817 840 696 731 817 b 299 699 433 817 354 772 b 274 679 286 682 281 679 b 260 701 264 679 260 686 l 260 1125 l 107 1125 l 107 0 z m 479 -307 b 575 -215 536 -307 575 -267 b 479 -124 575 -164 536 -124 b 383 -215 422 -124 383 -164 b 479 -307 383 -267 422 -307 z "},"ɧ":{"ha":938,"x_min":0,"x_max":0,"o":"m 569 -349 b 840 -74 749 -349 840 -253 l 840 483 b 546 817 840 696 731 817 b 299 700 433 817 356 772 b 274 681 286 683 283 681 b 260 703 264 681 260 688 l 260 861 b 414 1018 260 965 311 1018 b 556 989 468 1018 513 1007 l 556 1103 b 379 1144 511 1129 442 1144 b 107 868 197 1144 107 1050 l 107 0 l 260 0 l 260 331 b 325 590 260 443 282 529 b 510 681 368 650 431 681 b 688 465 622 681 688 604 l 688 -60 b 536 -224 688 -172 638 -224 b 393 -193 481 -224 436 -211 l 393 -308 b 569 -349 438 -332 504 -349 z "},"ɦ":{"ha":938,"x_min":0,"x_max":0,"o":"m 260 0 l 260 332 b 324 589 260 443 281 529 b 510 681 367 650 429 681 b 689 465 622 681 689 604 l 689 0 l 842 0 l 842 483 b 546 817 842 696 731 817 b 299 699 435 817 356 772 b 274 679 286 682 283 679 b 260 701 264 679 260 686 l 260 861 b 414 1019 260 967 311 1019 b 556 989 468 1019 513 1007 l 556 1103 b 379 1144 511 1129 442 1144 b 107 868 200 1144 107 1050 l 107 0 z "},"ẖ":{"ha":936,"x_min":0,"x_max":0,"o":"m 260 0 l 260 332 b 324 589 260 443 281 529 b 508 681 367 650 428 681 b 688 465 624 681 688 604 l 688 0 l 840 0 l 840 483 b 546 817 840 696 731 817 b 299 699 433 817 354 772 b 274 679 286 682 281 679 b 260 701 264 679 260 686 l 260 1125 l 107 1125 l 107 0 z m 713 -258 l 713 -149 l 246 -149 l 246 -258 z "},"ɥ":{"ha":936,"x_min":0,"x_max":0,"o":"m 676 790 l 676 458 b 613 201 676 347 656 261 b 428 110 569 140 508 110 b 249 325 313 110 249 186 l 249 790 l 96 790 l 96 307 b 390 -26 96 94 206 -26 b 638 92 503 -26 582 18 b 663 111 650 108 656 111 b 676 89 672 111 676 104 l 676 -335 l 829 -335 l 829 790 z "},"i":{"ha":369,"x_min":0,"x_max":0,"o":"m 185 926 b 288 1024 244 926 288 968 b 185 1119 288 1079 244 1119 b 83 1024 125 1119 83 1079 b 185 926 83 968 125 926 z m 261 0 l 261 790 l 108 790 l 108 0 z "},"ı":{"ha":369,"x_min":0,"x_max":0,"o":"m 261 0 l 261 790 l 108 790 l 108 0 z "},"í":{"ha":369,"x_min":0,"x_max":0,"o":"m 108 0 l 108 790 l 261 790 l 261 0 z m 244 890 l 396 1185 l 236 1185 l 129 890 z "},"ĭ":{"ha":383,"x_min":0,"x_max":0,"o":"m 275 0 l 275 790 l 122 790 l 122 0 z m 199 900 b 408 1129 338 900 410 996 l 317 1129 b 199 1000 311 1047 272 1000 b 81 1129 125 1000 86 1047 l -11 1129 b 199 900 -12 996 60 900 z "},"ǐ":{"ha":369,"x_min":0,"x_max":0,"o":"m 261 0 l 261 790 l 108 790 l 108 0 z m 243 890 l 413 1185 l 311 1185 l 213 1044 b 185 1022 203 1029 193 1022 b 157 1044 176 1022 167 1029 l 58 1185 l -43 1185 l 126 890 z "},"î":{"ha":382,"x_min":0,"x_max":0,"o":"m 121 0 l 121 790 l 274 790 l 274 0 z m 139 1185 l -31 890 l 71 890 l 169 1031 b 197 1053 179 1046 189 1053 b 225 1031 206 1053 215 1046 l 324 890 l 425 890 l 256 1185 z "},"ï":{"ha":369,"x_min":0,"x_max":0,"o":"m 261 0 l 261 790 l 108 790 l 108 0 z m 317 904 b 413 996 374 904 413 946 b 317 1088 413 1046 374 1088 b 221 996 260 1088 221 1046 b 317 904 221 946 260 904 z m 53 904 b 149 996 110 904 149 946 b 53 1088 149 1046 110 1088 b -43 996 -4 1088 -43 1046 b 53 904 -43 946 -4 904 z "},"ḯ":{"ha":369,"x_min":0,"x_max":0,"o":"m 108 0 l 108 790 l 261 790 l 261 0 z m 335 888 b 250 968 285 888 250 924 b 335 1049 250 1014 285 1049 b 421 968 386 1049 421 1014 b 335 888 421 924 386 888 z m 35 888 b -50 968 -17 888 -50 924 b 35 1049 -50 1014 -17 1049 b 121 968 85 1049 121 1014 b 35 888 121 924 85 888 z m 231 1106 l 394 1338 l 251 1338 l 131 1106 z "},"ị":{"ha":369,"x_min":0,"x_max":0,"o":"m 185 926 b 288 1024 244 926 288 968 b 185 1119 288 1079 244 1119 b 83 1024 125 1119 83 1079 b 185 926 83 968 125 926 z m 261 0 l 261 790 l 108 790 l 108 0 z m 185 -307 b 281 -215 242 -307 281 -267 b 185 -124 281 -164 242 -124 b 89 -215 128 -124 89 -164 b 185 -307 89 -267 128 -307 z "},"ì":{"ha":383,"x_min":0,"x_max":0,"o":"m 275 0 l 275 790 l 122 790 l 122 0 z m 254 890 l 147 1185 l -12 1185 l 139 890 z "},"ỉ":{"ha":369,"x_min":0,"x_max":0,"o":"m 261 0 l 261 790 l 108 790 l 108 0 z m 138 889 b 374 1081 281 904 374 975 b 196 1235 374 1181 306 1235 b 35 1188 139 1235 75 1215 l 35 1097 b 169 1133 79 1121 124 1133 b 258 1069 229 1133 258 1113 b 138 971 258 1021 218 989 z "},"ĳ":{"ha":739,"x_min":0,"x_max":0,"o":"m 185 926 b 288 1024 244 926 288 968 b 185 1119 288 1079 244 1119 b 83 1024 125 1119 83 1079 b 185 926 83 968 125 926 z m 261 0 l 261 790 l 108 790 l 108 0 z m 554 926 b 657 1024 614 926 657 968 b 554 1119 657 1079 614 1119 b 453 1024 494 1119 453 1079 b 554 926 453 968 494 926 z m 631 -331 l 631 790 l 478 790 l 478 -331 z "},"ī":{"ha":369,"x_min":0,"x_max":0,"o":"m 261 0 l 261 790 l 108 790 l 108 0 z m 356 929 l 356 1039 l 14 1039 l 14 929 z "},"į":{"ha":369,"x_min":0,"x_max":0,"o":"m 261 0 l 261 790 l 108 790 l 108 0 z m 183 908 b 279 1000 240 908 279 949 b 183 1092 279 1051 240 1092 b 88 1000 126 1092 88 1051 b 183 908 88 949 126 908 z m 203 -342 b 315 -317 246 -342 283 -333 l 315 -219 b 225 -239 286 -232 257 -239 b 139 -169 174 -239 139 -214 b 261 0 139 -119 176 -72 l 182 40 b 21 -190 69 -44 21 -114 b 203 -342 21 -285 93 -342 z "},"ɩ":{"ha":483,"x_min":0,"x_max":0,"o":"m 356 -10 b 486 10 401 -10 457 -1 l 486 129 b 389 115 456 119 424 115 b 249 279 288 115 249 163 l 249 790 l 97 790 l 97 265 b 356 -10 97 71 182 -10 z "},"ɨ":{"ha":447,"x_min":0,"x_max":0,"o":"m 224 926 b 325 1024 283 926 325 968 b 224 1119 325 1079 283 1119 b 121 1024 164 1119 121 1079 b 224 926 121 968 164 926 z m 300 0 l 300 363 l 422 363 l 422 463 l 300 463 l 300 790 l 146 790 l 146 463 l 24 463 l 24 363 l 146 363 l 146 0 z "},"ĩ":{"ha":382,"x_min":0,"x_max":0,"o":"m 274 0 l 274 790 l 121 790 l 121 0 z m 293 915 b 439 1096 381 915 432 994 l 346 1096 b 292 1021 339 1046 321 1021 b 101 1110 240 1021 192 1110 b -44 929 17 1110 -37 1031 l 49 929 b 103 1004 56 979 74 1004 b 293 915 154 1004 203 915 z "},"ḭ":{"ha":383,"x_min":0,"x_max":0,"o":"m 199 926 b 301 1024 258 926 301 968 b 199 1119 301 1079 258 1119 b 97 1024 139 1119 97 1079 b 199 926 97 968 139 926 z m 275 0 l 275 790 l 122 790 l 122 0 z m 296 -319 b 442 -139 383 -319 435 -240 l 349 -139 b 294 -214 342 -189 324 -214 b 104 -125 243 -214 194 -125 b -42 -306 19 -125 -35 -204 l 51 -306 b 106 -231 58 -256 76 -231 b 296 -319 157 -231 206 -319 z "},"j":{"ha":369,"x_min":0,"x_max":0,"o":"m 185 926 b 288 1024 244 926 288 968 b 185 1119 288 1079 244 1119 b 83 1024 125 1119 83 1079 b 185 926 83 968 125 926 z m 261 -331 l 261 790 l 108 790 l 108 -331 z "},"ȷ":{"ha":369,"x_min":0,"x_max":0,"o":"m 261 -331 l 261 790 l 108 790 l 108 -331 z "},"ǰ":{"ha":369,"x_min":0,"x_max":0,"o":"m 261 -331 l 261 790 l 108 790 l 108 -331 z m 243 890 l 413 1185 l 311 1185 l 213 1044 b 185 1022 203 1029 193 1022 b 157 1044 176 1022 167 1029 l 58 1185 l -43 1185 l 126 890 z "},"ĵ":{"ha":383,"x_min":0,"x_max":0,"o":"m 122 -331 l 122 790 l 275 790 l 275 -331 z m 140 1185 l -29 890 l 72 890 l 171 1031 b 199 1053 181 1046 190 1053 b 226 1031 207 1053 217 1046 l 325 890 l 426 890 l 257 1185 z "},"ʝ":{"ha":372,"x_min":0,"x_max":0,"o":"m 186 926 b 288 1024 246 926 288 968 b 186 1119 288 1079 246 1119 b 85 1024 126 1119 85 1079 b 186 926 85 968 126 926 z m 51 -349 b 261 -125 183 -349 254 -274 l 404 -125 l 404 -35 l 263 -35 l 263 790 l 110 790 l 110 -35 l 42 -35 b -142 -186 -68 -35 -142 -97 b 51 -349 -142 -287 -58 -349 z m 39 -256 b -33 -189 -4 -256 -33 -232 b 42 -125 -33 -151 -3 -125 l 115 -125 l 115 -150 b 39 -256 115 -221 90 -256 z "},"k":{"ha":814,"x_min":0,"x_max":0,"o":"m 260 0 l 260 385 l 624 0 l 831 0 l 442 404 l 810 790 l 617 790 l 260 407 l 260 1125 l 107 1125 l 107 0 z "},"ǩ":{"ha":814,"x_min":0,"x_max":0,"o":"m 107 0 l 107 1125 l 260 1125 l 260 407 l 617 790 l 810 790 l 442 404 l 831 0 l 624 0 l 260 385 l 260 0 z m -94 1446 l 104 1207 l 257 1207 l 457 1446 l 329 1446 l 199 1319 b 181 1311 192 1314 186 1311 b 164 1319 176 1311 171 1314 l 33 1446 z "},"ķ":{"ha":814,"x_min":0,"x_max":0,"o":"m 260 0 l 260 385 l 624 0 l 831 0 l 442 404 l 810 790 l 617 790 l 260 407 l 260 1125 l 107 1125 l 107 0 z m 407 -414 l 508 -104 l 365 -104 l 301 -414 z "},"ḳ":{"ha":814,"x_min":0,"x_max":0,"o":"m 260 0 l 260 385 l 624 0 l 831 0 l 442 404 l 810 790 l 617 790 l 260 407 l 260 1125 l 107 1125 l 107 0 z m 438 -307 b 533 -215 494 -307 533 -267 b 438 -124 533 -164 494 -124 b 342 -215 381 -124 342 -164 b 438 -307 342 -267 381 -307 z "},"ƙ":{"ha":814,"x_min":0,"x_max":0,"o":"m 260 0 l 260 385 l 624 0 l 829 0 l 442 404 l 810 790 l 617 790 l 260 407 l 260 858 b 413 1018 260 965 311 1018 b 554 989 468 1018 514 1007 l 554 1103 b 378 1144 510 1129 443 1144 b 107 868 199 1144 107 1050 l 107 0 z "},"ḵ":{"ha":814,"x_min":0,"x_max":0,"o":"m 260 0 l 260 385 l 624 0 l 831 0 l 442 404 l 810 790 l 617 790 l 260 407 l 260 1125 l 107 1125 l 107 0 z m 671 -258 l 671 -149 l 204 -149 l 204 -258 z "},"l":{"ha":369,"x_min":0,"x_max":0,"o":"m 261 0 l 261 1125 l 108 1125 l 108 0 z "},"ĺ":{"ha":369,"x_min":0,"x_max":0,"o":"m 261 0 l 261 1125 l 108 1125 l 108 0 z m 257 1207 l 457 1438 l 279 1438 l 114 1207 z "},"ľ":{"ha":442,"x_min":0,"x_max":0,"o":"m 261 0 l 261 1125 l 108 1125 l 108 0 z m 454 767 l 517 1125 l 369 1125 l 342 767 z "},"ḽ":{"ha":369,"x_min":0,"x_max":0,"o":"m 261 0 l 261 1125 l 108 1125 l 108 0 z m 25 4817 l 156 4943 b 172 4951 163 4949 168 4951 b 190 4943 178 4951 183 4949 l 321 4817 l 449 4817 l 249 5056 l 96 5056 l -103 4817 z "},"ļ":{"ha":369,"x_min":0,"x_max":0,"o":"m 261 0 l 261 1125 l 108 1125 l 108 0 z m 156 -414 l 257 -104 l 114 -104 l 50 -414 z "},"ŀ":{"ha":539,"x_min":0,"x_max":0,"o":"m 261 0 l 261 1125 l 108 1125 l 108 0 z m 451 467 b 551 563 511 467 551 508 b 451 658 551 617 511 658 b 351 563 390 658 351 617 b 451 467 351 508 390 467 z "},"ḷ":{"ha":369,"x_min":0,"x_max":0,"o":"m 261 0 l 261 1125 l 108 1125 l 108 0 z m 185 -307 b 281 -215 242 -307 281 -267 b 185 -124 281 -164 242 -124 b 89 -215 128 -124 89 -164 b 185 -307 89 -267 128 -307 z "},"ḻ":{"ha":369,"x_min":0,"x_max":0,"o":"m 261 0 l 261 1125 l 108 1125 l 108 0 z m 356 -258 l 356 -149 l 14 -149 l 14 -258 z "},"ł":{"ha":590,"x_min":0,"x_max":0,"o":"m 383 0 l 383 538 l 574 642 l 574 769 l 383 665 l 383 1125 l 231 1125 l 231 581 l 40 478 l 40 350 l 231 454 l 231 0 z "},"m":{"ha":1449,"x_min":0,"x_max":0,"o":"m 260 0 l 260 335 b 319 586 260 444 279 528 b 488 682 360 649 415 682 b 653 468 593 682 653 606 l 653 0 l 807 0 l 807 335 b 867 586 807 444 826 528 b 1033 682 907 649 961 682 b 1200 468 1139 682 1200 606 l 1200 0 l 1353 0 l 1353 492 b 1071 817 1353 696 1249 817 b 819 674 965 817 886 774 b 788 649 804 656 799 649 b 757 679 778 649 768 658 b 521 817 711 772 638 817 b 278 685 415 817 339 769 b 251 665 265 668 261 665 b 228 703 239 665 233 675 b 219 790 224 725 221 767 l 107 790 l 107 0 z "},"ḿ":{"ha":1449,"x_min":0,"x_max":0,"o":"m 107 0 l 107 790 l 219 790 b 228 703 221 767 224 725 b 251 665 233 675 239 665 b 278 685 261 665 265 668 b 521 817 339 769 415 817 b 757 679 638 817 711 772 b 788 649 768 658 778 649 b 819 674 799 649 804 656 b 1071 817 886 774 965 817 b 1353 492 1249 817 1353 696 l 1353 0 l 1200 0 l 1200 468 b 1033 682 1200 606 1139 682 b 867 586 961 682 907 649 b 807 335 826 528 807 444 l 807 0 l 653 0 l 653 468 b 488 682 653 606 593 682 b 319 586 415 682 360 649 b 260 335 279 528 260 444 l 260 0 z m 800 890 l 1006 1185 l 829 1185 l 672 890 z "},"ṁ":{"ha":1449,"x_min":0,"x_max":0,"o":"m 260 0 l 260 335 b 319 586 260 444 279 528 b 488 682 360 649 415 682 b 653 468 593 682 653 606 l 653 0 l 807 0 l 807 335 b 867 586 807 444 826 528 b 1033 682 907 649 961 682 b 1200 468 1139 682 1200 606 l 1200 0 l 1353 0 l 1353 492 b 1071 817 1353 696 1249 817 b 819 674 965 817 886 774 b 788 649 804 656 799 649 b 757 679 778 649 768 658 b 521 817 711 772 638 817 b 278 685 415 817 339 769 b 251 665 265 668 261 665 b 228 703 239 665 233 675 b 219 790 224 725 221 767 l 107 790 l 107 0 z m 735 908 b 831 1000 792 908 831 949 b 735 1092 831 1051 792 1092 b 639 1000 678 1092 639 1051 b 735 908 639 949 678 908 z "},"ṃ":{"ha":1449,"x_min":0,"x_max":0,"o":"m 260 0 l 260 335 b 319 586 260 444 279 528 b 488 682 360 649 415 682 b 653 468 593 682 653 606 l 653 0 l 807 0 l 807 335 b 867 586 807 444 826 528 b 1033 682 907 649 961 682 b 1200 468 1139 682 1200 606 l 1200 0 l 1353 0 l 1353 492 b 1071 817 1353 696 1249 817 b 819 674 965 817 886 774 b 788 649 804 656 799 649 b 757 679 778 649 768 658 b 521 817 711 772 638 817 b 278 685 415 817 339 769 b 251 665 265 668 261 665 b 228 703 239 665 233 675 b 219 790 224 725 221 767 l 107 790 l 107 0 z m 729 -307 b 825 -215 786 -307 825 -267 b 729 -124 825 -164 786 -124 b 633 -215 672 -124 633 -164 b 729 -307 633 -267 672 -307 z "},"n":{"ha":936,"x_min":0,"x_max":0,"o":"m 260 0 l 260 332 b 324 589 260 443 281 529 b 508 681 367 650 428 681 b 688 465 624 681 688 604 l 688 0 l 840 0 l 840 485 b 540 817 840 696 731 817 b 278 686 419 817 338 769 b 251 665 267 669 261 665 b 228 701 239 665 232 678 b 219 790 224 724 221 767 l 107 790 l 107 0 z "},"ń":{"ha":936,"x_min":0,"x_max":0,"o":"m 107 0 l 107 790 l 219 790 b 228 701 221 767 224 724 b 251 665 232 678 239 665 b 278 686 261 665 267 669 b 540 817 338 769 419 817 b 840 485 731 817 840 696 l 840 0 l 688 0 l 688 465 b 508 681 688 604 624 681 b 324 589 428 681 367 650 b 260 332 281 529 260 443 l 260 0 z m 538 890 l 743 1185 l 567 1185 l 410 890 z "},"ň":{"ha":936,"x_min":0,"x_max":0,"o":"m 107 0 l 107 790 l 219 790 b 228 701 221 767 224 724 b 251 665 232 678 239 665 b 278 686 261 665 267 669 b 540 817 338 769 419 817 b 840 485 731 817 840 696 l 840 0 l 688 0 l 688 465 b 508 681 688 604 624 681 b 324 589 428 681 367 650 b 260 332 281 529 260 443 l 260 0 z m 213 1185 l 414 890 l 533 890 l 735 1185 l 624 1185 l 503 1043 b 474 1025 492 1031 482 1025 b 444 1043 465 1025 456 1031 l 324 1185 z "},"ṋ":{"ha":936,"x_min":0,"x_max":0,"o":"m 260 0 l 260 332 b 324 589 260 443 281 529 b 508 681 367 650 428 681 b 688 465 624 681 688 604 l 688 0 l 840 0 l 840 485 b 540 817 840 696 731 817 b 278 686 419 817 338 769 b 251 665 267 669 261 665 b 228 701 239 665 232 678 b 219 790 224 724 221 767 l 107 790 l 107 0 z m 326 -426 l 447 -285 b 476 -267 458 -272 468 -267 b 506 -285 485 -267 494 -272 l 626 -426 l 738 -426 l 536 -132 l 417 -132 l 215 -426 z "},"ņ":{"ha":936,"x_min":0,"x_max":0,"o":"m 260 0 l 260 332 b 324 589 260 443 281 529 b 508 681 367 650 428 681 b 688 465 624 681 688 604 l 688 0 l 840 0 l 840 485 b 540 817 840 696 731 817 b 278 686 419 817 338 769 b 251 665 267 669 261 665 b 228 701 239 665 232 678 b 219 790 224 724 221 767 l 107 790 l 107 0 z m 447 -414 l 549 -104 l 406 -104 l 342 -414 z "},"ṅ":{"ha":936,"x_min":0,"x_max":0,"o":"m 260 0 l 260 332 b 324 589 260 443 281 529 b 508 681 367 650 428 681 b 688 465 624 681 688 604 l 688 0 l 840 0 l 840 485 b 540 817 840 696 731 817 b 278 686 419 817 338 769 b 251 665 267 669 261 665 b 228 701 239 665 232 678 b 219 790 224 724 221 767 l 107 790 l 107 0 z m 472 908 b 568 1000 529 908 568 949 b 472 1092 568 1051 529 1092 b 376 1000 415 1092 376 1051 b 472 908 376 949 415 908 z "},"ṇ":{"ha":936,"x_min":0,"x_max":0,"o":"m 260 0 l 260 332 b 324 589 260 443 281 529 b 508 681 367 650 428 681 b 688 465 624 681 688 604 l 688 0 l 840 0 l 840 485 b 540 817 840 696 731 817 b 278 686 419 817 338 769 b 251 665 267 669 261 665 b 228 701 239 665 232 678 b 219 790 224 724 221 767 l 107 790 l 107 0 z m 476 -307 b 572 -215 533 -307 572 -267 b 476 -124 572 -164 533 -124 b 381 -215 419 -124 381 -164 b 476 -307 381 -267 419 -307 z "},"ǹ":{"ha":936,"x_min":0,"x_max":0,"o":"m 260 0 l 260 332 b 324 589 260 443 281 529 b 508 681 367 650 428 681 b 688 465 624 681 688 604 l 688 0 l 840 0 l 840 485 b 540 817 840 696 731 817 b 278 686 419 817 338 769 b 251 665 267 669 261 665 b 228 701 239 665 232 678 b 219 790 224 724 221 767 l 107 790 l 107 0 z m 538 890 l 381 1185 l 204 1185 l 410 890 z "},"ŋ":{"ha":936,"x_min":0,"x_max":0,"o":"m 568 -349 b 840 -74 750 -349 840 -253 l 840 485 b 540 817 840 696 731 817 b 278 686 419 817 338 769 b 251 665 267 669 261 665 b 228 701 239 665 232 678 b 219 790 224 724 221 767 l 107 790 l 107 0 l 260 0 l 260 332 b 324 589 260 443 281 529 b 508 681 367 650 428 681 b 688 465 624 681 688 604 l 688 -65 b 533 -224 688 -171 636 -224 b 392 -193 479 -224 435 -211 l 392 -308 b 568 -349 436 -332 506 -349 z "},"ɲ":{"ha":938,"x_min":0,"x_max":0,"o":"m 46 -349 b 260 -108 192 -349 260 -262 l 260 331 b 324 590 260 443 281 531 b 510 681 367 650 429 681 b 688 465 622 681 688 604 l 688 0 l 840 0 l 840 483 b 540 817 840 696 731 817 b 279 688 422 817 339 769 b 251 667 267 671 263 667 b 229 703 239 667 232 679 b 221 790 225 724 221 767 l 107 790 l 107 -92 b -1 -225 107 -182 78 -225 b -82 -211 -29 -225 -56 -221 l -82 -322 b 46 -349 -50 -339 3 -349 z "},"ṉ":{"ha":936,"x_min":0,"x_max":0,"o":"m 260 0 l 260 332 b 324 589 260 443 281 529 b 508 681 367 650 428 681 b 688 465 624 681 688 604 l 688 0 l 840 0 l 840 485 b 540 817 840 696 731 817 b 278 686 419 817 338 769 b 251 665 267 669 261 665 b 228 701 239 665 232 678 b 219 790 224 724 221 767 l 107 790 l 107 0 z m 710 -258 l 710 -149 l 243 -149 l 243 -258 z "},"ñ":{"ha":936,"x_min":0,"x_max":0,"o":"m 260 0 l 260 332 b 324 589 260 443 281 529 b 508 681 367 650 428 681 b 688 465 624 681 688 604 l 688 0 l 840 0 l 840 485 b 540 817 840 696 731 817 b 278 686 419 817 338 769 b 251 665 267 669 261 665 b 228 701 239 665 232 678 b 219 790 224 724 221 767 l 107 790 l 107 0 z m 585 900 b 753 1092 678 900 736 976 l 657 1092 b 586 1010 647 1042 624 1010 b 356 1108 519 1010 465 1108 b 188 917 263 1108 204 1032 l 283 917 b 356 1000 294 967 317 1000 b 585 900 419 1000 475 900 z "},"o":{"ha":967,"x_min":0,"x_max":0,"o":"m 483 -26 b 917 396 733 -26 917 153 b 483 817 917 640 733 817 b 51 396 233 817 51 640 b 483 -26 51 153 233 -26 z m 483 107 b 208 396 321 107 208 226 b 483 685 208 565 321 685 b 758 396 647 685 758 565 b 483 107 758 226 647 107 z "},"ó":{"ha":967,"x_min":0,"x_max":0,"o":"m 483 -26 b 51 396 233 -26 51 153 b 483 817 51 640 233 817 b 917 396 733 817 917 640 b 483 -26 917 153 733 -26 z m 483 107 b 758 396 647 107 758 226 b 483 685 758 565 647 685 b 208 396 321 685 208 565 b 483 107 208 226 321 107 z m 547 890 l 753 1185 l 576 1185 l 419 890 z "},"ɵ":{"ha":967,"x_min":0,"x_max":0,"o":"m 483 -26 b 917 396 733 -26 917 153 b 483 817 917 640 733 817 b 51 396 233 817 51 640 b 483 -26 51 153 233 -26 z m 483 692 b 764 446 635 692 743 592 l 203 446 b 483 692 224 592 333 692 z m 483 100 b 203 346 333 100 225 197 l 764 346 b 672 167 754 272 724 213 b 483 100 622 122 560 100 z "},"ŏ":{"ha":967,"x_min":0,"x_max":0,"o":"m 483 -26 b 917 396 733 -26 917 153 b 483 817 917 640 733 817 b 51 396 233 817 51 640 b 483 -26 51 153 233 -26 z m 483 107 b 208 396 321 107 208 226 b 483 685 208 565 321 685 b 758 396 647 685 758 565 b 483 107 758 226 647 107 z m 483 900 b 739 1129 632 900 728 989 l 636 1129 b 483 1004 619 1051 567 1004 b 331 1129 401 1004 347 1051 l 228 1129 b 483 900 239 989 335 900 z "},"ǒ":{"ha":967,"x_min":0,"x_max":0,"o":"m 483 -26 b 51 396 233 -26 51 153 b 483 817 51 640 233 817 b 917 396 733 817 917 640 b 483 -26 917 153 733 -26 z m 483 107 b 758 396 647 107 758 226 b 483 685 758 565 647 685 b 208 396 321 685 208 565 b 483 107 208 226 321 107 z m 222 1185 l 424 890 l 543 890 l 744 1185 l 633 1185 l 513 1043 b 483 1025 501 1031 492 1025 b 454 1043 475 1025 465 1031 l 333 1185 z "},"ô":{"ha":967,"x_min":0,"x_max":0,"o":"m 483 -26 b 917 396 733 -26 917 153 b 483 817 917 640 733 817 b 51 396 233 817 51 640 b 483 -26 51 153 233 -26 z m 483 107 b 208 396 321 107 208 226 b 483 685 208 565 321 685 b 758 396 647 685 758 565 b 483 107 758 226 647 107 z m 333 890 l 454 1032 b 483 1050 465 1044 475 1050 b 513 1032 492 1050 501 1044 l 633 890 l 744 890 l 543 1185 l 424 1185 l 222 890 z "},"ố":{"ha":967,"x_min":0,"x_max":0,"o":"m 483 -26 b 51 396 233 -26 51 153 b 483 817 51 640 233 817 b 917 396 733 817 917 640 b 483 -26 917 153 733 -26 z m 483 107 b 758 396 647 107 758 226 b 483 685 758 565 647 685 b 208 396 321 685 208 565 b 483 107 208 226 321 107 z m 249 890 l 428 1144 l 542 1144 l 721 890 l 613 890 l 510 1007 b 485 1021 500 1017 492 1021 b 460 1007 478 1021 469 1017 l 357 890 z m 731 1108 l 894 1340 l 751 1340 l 631 1108 z "},"ộ":{"ha":967,"x_min":0,"x_max":0,"o":"m 483 -26 b 917 396 733 -26 917 153 b 483 817 917 640 733 817 b 51 396 233 817 51 640 b 483 -26 51 153 233 -26 z m 483 107 b 208 396 321 107 208 226 b 483 685 208 565 321 685 b 758 396 647 685 758 565 b 483 107 758 226 647 107 z m 483 -307 b 579 -215 540 -307 579 -267 b 483 -124 579 -164 540 -124 b 388 -215 426 -124 388 -164 b 483 -307 388 -267 426 -307 z m 333 890 l 454 1032 b 483 1050 465 1044 475 1050 b 513 1032 492 1050 501 1044 l 633 890 l 744 890 l 543 1185 l 424 1185 l 222 890 z "},"ồ":{"ha":967,"x_min":0,"x_max":0,"o":"m 483 -26 b 917 396 733 -26 917 153 b 483 817 917 640 733 817 b 51 396 233 817 51 640 b 483 -26 51 153 233 -26 z m 483 107 b 208 396 321 107 208 226 b 483 685 208 565 321 685 b 758 396 647 685 758 565 b 483 107 758 226 647 107 z m 357 890 l 460 1007 b 485 1021 469 1017 478 1021 b 510 1007 492 1021 500 1017 l 613 890 l 721 890 l 542 1144 l 428 1144 l 249 890 z m 751 1108 l 631 1340 l 488 1340 l 651 1108 z "},"ổ":{"ha":967,"x_min":0,"x_max":0,"o":"m 483 -26 b 917 396 733 -26 917 153 b 483 817 917 640 733 817 b 51 396 233 817 51 640 b 483 -26 51 153 233 -26 z m 483 107 b 208 396 321 107 208 226 b 483 685 208 565 321 685 b 758 396 647 685 758 565 b 483 107 758 226 647 107 z m 357 890 l 460 1007 b 485 1021 469 1017 478 1021 b 510 1007 492 1021 500 1017 l 613 890 l 721 890 l 542 1144 l 428 1144 l 249 890 z m 643 1094 b 851 1260 771 1106 851 1167 b 694 1393 851 1344 790 1393 b 553 1353 643 1393 586 1376 l 553 1271 b 671 1303 590 1293 633 1303 b 749 1249 722 1303 749 1285 b 643 1167 749 1208 714 1181 z "},"ỗ":{"ha":967,"x_min":0,"x_max":0,"o":"m 483 -26 b 917 396 733 -26 917 153 b 483 817 917 640 733 817 b 51 396 233 817 51 640 b 483 -26 51 153 233 -26 z m 483 107 b 208 396 321 107 208 226 b 483 685 208 565 321 685 b 758 396 647 685 758 565 b 483 107 758 226 647 107 z m 357 890 l 460 1007 b 485 1021 469 1017 478 1021 b 510 1007 492 1021 500 1017 l 613 890 l 721 890 l 542 1144 l 428 1144 l 249 890 z m 571 1196 b 719 1361 650 1196 704 1261 l 629 1361 b 569 1297 621 1318 601 1297 b 399 1371 518 1297 481 1371 b 251 1206 319 1371 264 1304 l 342 1206 b 400 1269 350 1249 369 1269 b 571 1196 453 1269 492 1196 z "},"ö":{"ha":967,"x_min":0,"x_max":0,"o":"m 483 -26 b 917 396 733 -26 917 153 b 483 817 917 640 733 817 b 51 396 233 817 51 640 b 483 -26 51 153 233 -26 z m 483 107 b 208 396 321 107 208 226 b 483 685 208 565 321 685 b 758 396 647 685 758 565 b 483 107 758 226 647 107 z m 653 906 b 747 996 708 906 747 946 b 653 1086 747 1047 708 1086 b 558 996 596 1086 558 1047 b 653 906 558 946 596 906 z m 313 906 b 408 996 372 906 408 946 b 313 1086 408 1047 372 1086 b 219 996 257 1086 219 1047 b 313 906 219 946 257 906 z "},"ȫ":{"ha":967,"x_min":0,"x_max":0,"o":"m 483 -26 b 917 396 733 -26 917 153 b 483 817 917 640 733 817 b 51 396 233 817 51 640 b 483 -26 51 153 233 -26 z m 483 107 b 208 396 321 107 208 226 b 483 685 208 565 321 685 b 758 396 647 685 758 565 b 483 107 758 226 647 107 z m 633 888 b 719 968 685 888 719 924 b 633 1049 719 1014 685 1049 b 549 968 583 1049 549 1014 b 633 888 549 924 583 888 z m 333 888 b 419 968 383 888 419 924 b 333 1049 419 1014 383 1049 b 249 968 282 1049 249 1014 b 333 888 249 924 282 888 z m 697 1129 l 697 1229 l 269 1229 l 269 1129 z "},"ȯ":{"ha":967,"x_min":0,"x_max":0,"o":"m 483 -26 b 917 396 733 -26 917 153 b 483 817 917 640 733 817 b 51 396 233 817 51 640 b 483 -26 51 153 233 -26 z m 483 107 b 208 396 321 107 208 226 b 483 685 208 565 321 685 b 758 396 647 685 758 565 b 483 107 758 226 647 107 z m 483 908 b 579 1000 540 908 579 949 b 483 1092 579 1051 540 1092 b 388 1000 426 1092 388 1051 b 483 908 388 949 426 908 z "},"ȱ":{"ha":967,"x_min":0,"x_max":0,"o":"m 483 -26 b 917 396 733 -26 917 153 b 483 817 917 640 733 817 b 51 396 233 817 51 640 b 483 -26 51 153 233 -26 z m 483 107 b 208 396 321 107 208 226 b 483 685 208 565 321 685 b 758 396 647 685 758 565 b 483 107 758 226 647 107 z m 483 888 b 572 972 538 888 572 924 b 483 1057 572 1021 538 1057 b 394 972 432 1057 394 1021 b 483 888 394 924 432 888 z m 697 1133 l 697 1233 l 269 1233 l 269 1133 z "},"ọ":{"ha":967,"x_min":0,"x_max":0,"o":"m 483 -26 b 917 396 733 -26 917 153 b 483 817 917 640 733 817 b 51 396 233 817 51 640 b 483 -26 51 153 233 -26 z m 483 107 b 208 396 321 107 208 226 b 483 685 208 565 321 685 b 758 396 647 685 758 565 b 483 107 758 226 647 107 z m 483 -307 b 579 -215 540 -307 579 -267 b 483 -124 579 -164 540 -124 b 388 -215 426 -124 388 -164 b 483 -307 388 -267 426 -307 z "},"ò":{"ha":967,"x_min":0,"x_max":0,"o":"m 483 -26 b 917 396 733 -26 917 153 b 483 817 917 640 733 817 b 51 396 233 817 51 640 b 483 -26 51 153 233 -26 z m 483 107 b 208 396 321 107 208 226 b 483 685 208 565 321 685 b 758 396 647 685 758 565 b 483 107 758 226 647 107 z m 547 890 l 390 1185 l 214 1185 l 419 890 z "},"ỏ":{"ha":967,"x_min":0,"x_max":0,"o":"m 483 -26 b 917 396 733 -26 917 153 b 483 817 917 640 733 817 b 51 396 233 817 51 640 b 483 -26 51 153 233 -26 z m 483 107 b 208 396 321 107 208 226 b 483 685 208 565 321 685 b 758 396 647 685 758 565 b 483 107 758 226 647 107 z m 436 889 b 672 1081 579 904 672 975 b 494 1235 672 1181 604 1235 b 333 1188 438 1235 374 1215 l 333 1097 b 468 1133 378 1121 422 1133 b 557 1069 528 1133 557 1113 b 436 971 557 1021 517 989 z "},"ơ":{"ha":1001,"x_min":0,"x_max":0,"o":"m 483 -26 b 917 396 733 -26 917 153 b 483 817 917 640 733 817 b 51 396 233 817 51 640 b 483 -26 51 153 233 -26 z m 483 107 b 208 396 321 107 208 226 b 483 685 208 565 321 685 b 758 396 647 685 758 565 b 483 107 758 226 647 107 z m 819 656 b 967 811 910 656 967 717 b 917 990 967 871 949 933 l 807 990 b 846 843 833 936 846 886 b 767 753 846 783 824 753 b 685 774 740 753 713 760 l 685 697 b 819 656 728 669 772 656 z "},"ớ":{"ha":1001,"x_min":0,"x_max":0,"o":"m 483 -26 b 51 396 233 -26 51 153 b 483 817 51 640 233 817 b 917 396 733 817 917 640 b 483 -26 917 153 733 -26 z m 483 107 b 758 396 647 107 758 226 b 483 685 758 565 647 685 b 208 396 321 685 208 565 b 483 107 208 226 321 107 z m 819 656 b 685 697 772 656 728 669 l 685 774 b 767 753 713 760 740 753 b 846 843 824 753 846 783 b 807 990 846 886 833 936 l 917 990 b 967 811 949 933 967 871 b 819 656 967 717 910 656 z m 547 890 l 753 1185 l 576 1185 l 419 890 z "},"ợ":{"ha":1001,"x_min":0,"x_max":0,"o":"m 483 -26 b 917 396 733 -26 917 153 b 483 817 917 640 733 817 b 51 396 233 817 51 640 b 483 -26 51 153 233 -26 z m 483 107 b 208 396 321 107 208 226 b 483 685 208 565 321 685 b 758 396 647 685 758 565 b 483 107 758 226 647 107 z m 819 656 b 967 811 910 656 967 717 b 917 990 967 871 949 933 l 807 990 b 846 843 833 936 846 886 b 767 753 846 783 824 753 b 685 774 740 753 713 760 l 685 697 b 819 656 728 669 772 656 z m 483 -307 b 579 -215 540 -307 579 -267 b 483 -124 579 -164 540 -124 b 388 -215 426 -124 388 -164 b 483 -307 388 -267 426 -307 z "},"ờ":{"ha":1001,"x_min":0,"x_max":0,"o":"m 483 -26 b 917 396 733 -26 917 153 b 483 817 917 640 733 817 b 51 396 233 817 51 640 b 483 -26 51 153 233 -26 z m 483 107 b 208 396 321 107 208 226 b 483 685 208 565 321 685 b 758 396 647 685 758 565 b 483 107 758 226 647 107 z m 819 656 b 967 811 910 656 967 717 b 917 990 967 871 949 933 l 807 990 b 846 843 833 936 846 886 b 767 753 846 783 824 753 b 685 774 740 753 713 760 l 685 697 b 819 656 728 669 772 656 z m 547 890 l 390 1185 l 214 1185 l 419 890 z "},"ở":{"ha":1001,"x_min":0,"x_max":0,"o":"m 483 -26 b 917 396 733 -26 917 153 b 483 817 917 640 733 817 b 51 396 233 817 51 640 b 483 -26 51 153 233 -26 z m 483 107 b 208 396 321 107 208 226 b 483 685 208 565 321 685 b 758 396 647 685 758 565 b 483 107 758 226 647 107 z m 819 656 b 967 811 910 656 967 717 b 917 990 967 871 949 933 l 807 990 b 846 843 833 936 846 886 b 767 753 846 783 824 753 b 685 774 740 753 713 760 l 685 697 b 819 656 728 669 772 656 z m 436 889 b 672 1081 579 904 672 975 b 494 1235 672 1181 604 1235 b 333 1188 438 1235 374 1215 l 333 1097 b 468 1133 378 1121 422 1133 b 557 1069 528 1133 557 1113 b 436 971 557 1021 517 989 z "},"ỡ":{"ha":1001,"x_min":0,"x_max":0,"o":"m 483 -26 b 917 396 733 -26 917 153 b 483 817 917 640 733 817 b 51 396 233 817 51 640 b 483 -26 51 153 233 -26 z m 483 107 b 208 396 321 107 208 226 b 483 685 208 565 321 685 b 758 396 647 685 758 565 b 483 107 758 226 647 107 z m 819 656 b 967 811 910 656 967 717 b 917 990 967 871 949 933 l 807 990 b 846 843 833 936 846 886 b 767 753 846 783 824 753 b 685 774 740 753 713 760 l 685 697 b 819 656 728 669 772 656 z m 594 900 b 763 1092 688 900 746 976 l 667 1092 b 596 1010 657 1042 633 1010 b 365 1108 529 1010 475 1108 b 197 917 272 1108 214 1032 l 293 917 b 365 1000 304 967 326 1000 b 594 900 429 1000 485 900 z "},"ő":{"ha":967,"x_min":0,"x_max":0,"o":"m 483 -26 b 917 396 733 -26 917 153 b 483 817 917 640 733 817 b 51 396 233 817 51 640 b 483 -26 51 153 233 -26 z m 483 107 b 208 396 321 107 208 226 b 483 685 208 565 321 685 b 758 396 647 685 758 565 b 483 107 758 226 647 107 z m 658 890 l 876 1185 l 713 1185 l 536 890 z m 393 890 l 586 1185 l 426 1185 l 268 890 z "},"ō":{"ha":967,"x_min":0,"x_max":0,"o":"m 483 -26 b 917 396 733 -26 917 153 b 483 817 917 640 733 817 b 51 396 233 817 51 640 b 483 -26 51 153 233 -26 z m 483 107 b 208 396 321 107 208 226 b 483 685 208 565 321 685 b 758 396 647 685 758 565 b 483 107 758 226 647 107 z m 717 929 l 717 1039 l 250 1039 l 250 929 z "},"ṓ":{"ha":967,"x_min":0,"x_max":0,"o":"m 483 -26 b 51 396 233 -26 51 153 b 483 817 51 640 233 817 b 917 396 733 817 917 640 b 483 -26 917 153 733 -26 z m 483 107 b 758 396 647 107 758 226 b 483 685 758 565 647 685 b 208 396 321 685 208 565 b 483 107 208 226 321 107 z m 269 914 l 269 1014 l 697 1014 l 697 914 z m 529 1097 l 693 1329 l 550 1329 l 429 1097 z "},"ṑ":{"ha":967,"x_min":0,"x_max":0,"o":"m 483 -26 b 917 396 733 -26 917 153 b 483 817 917 640 733 817 b 51 396 233 817 51 640 b 483 -26 51 153 233 -26 z m 483 107 b 208 396 321 107 208 226 b 483 685 208 565 321 685 b 758 396 647 685 758 565 b 483 107 758 226 647 107 z m 697 914 l 697 1014 l 269 1014 l 269 914 z m 538 1097 l 417 1329 l 274 1329 l 438 1097 z "},"ǫ":{"ha":967,"x_min":0,"x_max":0,"o":"m 483 -26 b 917 396 733 -26 917 153 b 483 817 917 640 733 817 b 51 396 233 817 51 640 b 483 -26 51 153 233 -26 z m 483 107 b 208 396 321 107 208 226 b 483 685 208 565 321 685 b 758 396 647 685 758 565 b 483 107 758 226 647 107 z m 651 -329 b 765 -306 693 -329 731 -321 l 765 -208 b 676 -225 736 -219 707 -225 b 589 -149 622 -225 589 -200 b 729 43 589 -86 636 -22 l 681 78 b 471 -178 531 -10 471 -85 b 651 -329 471 -274 544 -329 z "},"ǭ":{"ha":967,"x_min":0,"x_max":0,"o":"m 483 -26 b 917 396 733 -26 917 153 b 483 817 917 640 733 817 b 51 396 233 817 51 640 b 483 -26 51 153 233 -26 z m 483 107 b 208 396 321 107 208 226 b 483 685 208 565 321 685 b 758 396 647 685 758 565 b 483 107 758 226 647 107 z m 651 -329 b 765 -306 693 -329 731 -321 l 765 -208 b 676 -225 736 -219 707 -225 b 589 -149 622 -225 589 -200 b 729 43 589 -86 636 -22 l 681 78 b 471 -178 531 -10 471 -85 b 651 -329 471 -274 544 -329 z m 717 929 l 717 1039 l 250 1039 l 250 929 z "},"ɔ":{"ha":921,"x_min":0,"x_max":0,"o":"m 453 -26 b 868 396 694 -26 868 150 b 453 817 868 643 694 817 b 42 490 226 817 75 688 l 199 490 b 451 685 221 608 314 685 b 711 396 606 685 711 567 b 451 107 711 226 606 107 b 199 301 314 107 221 181 l 42 301 b 453 -26 75 104 228 -26 z "},"ø":{"ha":967,"x_min":0,"x_max":0,"o":"m 225 -68 l 285 17 b 483 -26 346 -12 413 -26 b 917 396 733 -26 917 153 b 782 708 917 524 865 632 l 892 860 l 743 860 l 682 775 b 483 817 621 803 554 817 b 51 396 233 817 51 640 b 183 83 51 268 100 160 l 75 -68 z m 200 396 b 483 692 200 571 317 692 b 611 664 531 692 574 682 l 271 190 b 200 396 226 242 200 313 z m 483 100 b 354 128 436 100 393 110 l 694 601 b 767 396 740 550 767 479 b 483 100 767 221 651 100 z "},"ǿ":{"ha":967,"x_min":0,"x_max":0,"o":"m 75 -68 l 183 83 b 51 396 100 160 51 268 b 483 817 51 640 233 817 b 682 775 554 817 621 803 l 743 860 l 892 860 l 782 708 b 917 396 865 632 917 524 b 483 -26 917 153 733 -26 b 285 17 413 -26 346 -12 l 225 -68 z m 200 396 b 271 190 200 313 226 242 l 611 664 b 483 692 574 682 531 692 b 200 396 317 692 200 571 z m 483 100 b 767 396 651 100 767 221 b 694 601 767 479 740 550 l 354 128 b 483 100 393 110 436 100 z m 547 890 l 753 1185 l 576 1185 l 419 890 z "},"õ":{"ha":967,"x_min":0,"x_max":0,"o":"m 483 -26 b 917 396 733 -26 917 153 b 483 817 917 640 733 817 b 51 396 233 817 51 640 b 483 -26 51 153 233 -26 z m 483 107 b 208 396 321 107 208 226 b 483 685 208 565 321 685 b 758 396 647 685 758 565 b 483 107 758 226 647 107 z m 594 900 b 763 1092 688 900 746 976 l 667 1092 b 596 1010 657 1042 633 1010 b 365 1108 529 1010 475 1108 b 197 917 272 1108 214 1032 l 293 917 b 365 1000 304 967 326 1000 b 594 900 429 1000 485 900 z "},"ṍ":{"ha":967,"x_min":0,"x_max":0,"o":"m 483 -26 b 51 396 233 -26 51 153 b 483 817 51 640 233 817 b 917 396 733 817 917 640 b 483 -26 917 153 733 -26 z m 483 107 b 758 396 647 107 758 226 b 483 685 758 565 647 685 b 208 396 321 685 208 565 b 483 107 208 226 321 107 z m 569 901 b 399 975 490 901 451 975 b 340 911 368 975 349 954 l 250 911 b 397 1076 263 1010 318 1076 b 568 1003 479 1076 517 1003 b 628 1067 600 1003 619 1024 l 718 1067 b 569 901 703 967 649 901 z m 529 1147 l 693 1379 l 550 1379 l 429 1147 z "},"ṏ":{"ha":967,"x_min":0,"x_max":0,"o":"m 483 -26 b 917 396 733 -26 917 153 b 483 817 917 640 733 817 b 51 396 233 817 51 640 b 483 -26 51 153 233 -26 z m 483 107 b 208 396 321 107 208 226 b 483 685 208 565 321 685 b 758 396 647 685 758 565 b 483 107 758 226 647 107 z m 569 901 b 718 1067 649 901 703 967 l 628 1067 b 568 1003 619 1024 600 1003 b 397 1076 517 1003 479 1076 b 250 911 318 1076 263 1010 l 340 911 b 399 975 349 954 368 975 b 569 901 451 975 490 901 z m 633 1144 b 719 1225 685 1144 719 1181 b 633 1306 719 1271 685 1306 b 549 1225 583 1306 549 1271 b 633 1144 549 1181 583 1144 z m 333 1144 b 419 1225 383 1144 419 1181 b 333 1306 419 1271 383 1306 b 249 1225 282 1306 249 1271 b 333 1144 249 1181 282 1144 z "},"ȭ":{"ha":967,"x_min":0,"x_max":0,"o":"m 483 -26 b 917 396 733 -26 917 153 b 483 817 917 640 733 817 b 51 396 233 817 51 640 b 483 -26 51 153 233 -26 z m 483 107 b 208 396 321 107 208 226 b 483 685 208 565 321 685 b 758 396 647 685 758 565 b 483 107 758 226 647 107 z m 569 901 b 718 1067 649 901 703 967 l 628 1067 b 568 1003 619 1024 600 1003 b 397 1076 517 1003 479 1076 b 250 911 318 1076 263 1010 l 340 911 b 399 975 349 954 368 975 b 569 901 451 975 490 901 z m 697 1171 l 697 1271 l 269 1271 l 269 1171 z "},"œ":{"ha":1581,"x_min":0,"x_max":0,"o":"m 474 -26 b 810 146 625 -26 747 42 b 1140 -25 869 40 986 -25 b 1385 46 1236 -25 1317 -1 b 1515 242 1453 94 1496 160 l 1360 242 b 1138 99 1333 154 1249 99 b 885 350 988 99 892 199 l 1524 350 b 1528 421 1525 363 1528 399 b 1139 817 1528 653 1372 817 b 811 640 996 817 874 750 b 474 817 750 747 628 817 b 51 396 228 817 51 639 b 474 -26 51 153 228 -26 z m 1136 694 b 1307 629 1207 694 1264 672 b 1376 457 1351 586 1375 528 l 886 458 b 1136 694 899 601 996 694 z m 479 107 b 208 396 319 107 208 226 b 479 685 208 565 319 685 b 750 396 642 685 750 565 b 479 107 750 226 642 107 z "},"p":{"ha":1010,"x_min":0,"x_max":0,"o":"m 557 815 b 281 696 435 815 346 772 b 249 672 268 681 257 672 b 229 703 239 672 232 682 b 221 790 225 731 222 768 l 107 790 l 107 -337 l 260 -337 l 260 71 b 274 93 260 86 264 93 b 290 83 279 93 285 90 b 553 -25 347 17 438 -25 b 958 396 786 -25 958 154 b 557 815 958 639 783 815 z m 526 683 b 800 396 688 683 800 564 b 526 108 800 225 688 108 b 254 396 367 108 254 225 b 526 683 254 564 367 683 z "},"ƥ":{"ha":1010,"x_min":0,"x_max":0,"o":"m 260 -333 l 260 71 b 274 93 260 86 264 93 b 290 83 279 93 285 90 b 553 -25 347 17 438 -25 b 958 396 786 -25 958 154 b 553 817 958 639 786 817 b 290 708 438 817 347 774 b 274 699 285 701 279 699 b 260 721 264 699 260 706 l 260 861 b 414 1019 260 967 311 1019 b 554 989 468 1019 514 1007 l 554 1103 b 378 1144 511 1129 443 1144 b 107 868 199 1144 107 1050 l 107 -333 z m 526 108 b 254 396 367 108 254 225 b 526 685 254 565 367 685 b 800 396 688 685 800 564 b 526 108 800 229 688 108 z "},"þ":{"ha":1010,"x_min":0,"x_max":0,"o":"m 260 -337 l 260 53 b 278 86 260 75 265 86 b 307 67 283 86 293 79 b 556 -25 371 6 454 -25 b 958 396 785 -25 958 153 b 556 817 958 640 785 817 b 307 724 454 817 371 786 b 278 706 293 711 283 706 b 260 739 265 706 260 717 l 260 1125 l 107 1125 l 107 -337 z m 526 108 b 254 396 364 108 254 225 b 526 685 254 567 364 685 b 800 396 688 685 800 565 b 526 108 800 225 688 108 z "},"q":{"ha":1010,"x_min":0,"x_max":0,"o":"m 453 815 b 51 396 228 815 51 639 b 457 -25 51 154 224 -25 b 719 83 572 -25 663 17 b 736 93 725 90 731 93 b 750 71 746 93 750 86 l 750 -337 l 903 -337 l 903 790 l 789 790 b 781 703 789 768 786 731 b 761 672 778 682 771 672 b 729 696 753 672 742 681 b 453 815 664 772 576 815 z m 483 683 b 756 396 643 683 756 564 b 483 108 756 225 643 108 b 210 396 322 108 210 225 b 483 683 210 564 322 683 z "},"ɋ":{"ha":1010,"x_min":0,"x_max":0,"o":"m 969 -349 b 1096 -322 1013 -349 1063 -339 l 1096 -211 b 1015 -225 1069 -221 1044 -225 b 903 -93 940 -225 903 -181 l 903 790 l 789 790 b 781 703 789 768 786 731 b 761 672 778 682 771 672 b 729 696 753 672 742 681 b 453 815 664 772 576 815 b 51 396 228 815 51 639 b 457 -25 51 154 224 -25 b 719 83 572 -25 663 17 b 736 93 725 90 731 93 b 750 71 746 93 750 86 l 750 -108 b 969 -349 750 -262 824 -349 z m 483 108 b 210 396 322 108 210 225 b 483 683 210 564 322 683 b 756 396 643 683 756 564 b 483 108 756 225 643 108 z "},"r":{"ha":693,"x_min":0,"x_max":0,"o":"m 260 0 l 260 386 b 292 579 260 464 269 531 b 431 681 322 647 368 681 b 538 551 501 681 538 629 b 536 531 538 544 536 536 l 675 531 b 676 558 676 542 676 551 b 465 810 678 715 599 810 b 276 708 386 810 319 771 b 249 688 264 692 258 688 b 228 718 238 688 231 697 b 218 790 224 740 219 774 l 107 790 l 107 0 z "},"ŕ":{"ha":693,"x_min":0,"x_max":0,"o":"m 107 0 l 107 790 l 218 790 b 228 718 219 774 224 740 b 249 688 231 697 238 688 b 276 708 258 688 264 692 b 465 810 319 771 386 810 b 676 558 599 810 678 715 b 675 531 676 551 676 542 l 536 531 b 538 551 536 536 538 544 b 431 681 538 629 501 681 b 292 579 368 681 322 647 b 260 386 269 531 260 464 l 260 0 z m 424 890 l 629 1185 l 453 1185 l 296 890 z "},"ř":{"ha":693,"x_min":0,"x_max":0,"o":"m 107 0 l 107 790 l 218 790 b 228 718 219 774 224 740 b 249 688 231 697 238 688 b 276 708 258 688 264 692 b 465 810 319 771 386 810 b 676 558 599 810 678 715 b 675 531 676 551 676 542 l 536 531 b 538 551 536 536 538 544 b 431 681 538 629 501 681 b 292 579 368 681 322 647 b 260 386 269 531 260 464 l 260 0 z m 99 1185 l 300 890 l 419 890 l 621 1185 l 510 1185 l 389 1043 b 360 1025 378 1031 368 1025 b 331 1043 351 1025 342 1031 l 210 1185 z "},"ŗ":{"ha":693,"x_min":0,"x_max":0,"o":"m 260 0 l 260 386 b 292 579 260 464 269 531 b 431 681 322 647 368 681 b 538 551 501 681 538 629 b 536 531 538 544 536 536 l 675 531 b 676 558 676 542 676 551 b 465 810 678 715 599 810 b 276 708 386 810 319 771 b 249 688 264 692 258 688 b 228 718 238 688 231 697 b 218 790 224 740 219 774 l 107 790 l 107 0 z m 157 -414 l 258 -104 l 115 -104 l 51 -414 z "},"ṙ":{"ha":693,"x_min":0,"x_max":0,"o":"m 260 0 l 260 386 b 292 579 260 464 269 531 b 431 681 322 647 368 681 b 538 551 501 681 538 629 b 536 531 538 544 536 536 l 675 531 b 676 558 676 542 676 551 b 465 810 678 715 599 810 b 276 708 386 810 319 771 b 249 688 264 692 258 688 b 228 718 238 688 231 697 b 218 790 224 740 219 774 l 107 790 l 107 0 z m 360 908 b 456 1000 417 908 456 949 b 360 1092 456 1051 417 1092 b 264 1000 303 1092 264 1051 b 360 908 264 949 303 908 z "},"ṛ":{"ha":693,"x_min":0,"x_max":0,"o":"m 260 0 l 260 386 b 292 579 260 464 269 531 b 431 681 322 647 368 681 b 538 551 501 681 538 629 b 536 531 538 544 536 536 l 675 531 b 676 558 676 542 676 551 b 465 810 678 715 599 810 b 276 708 386 810 319 771 b 249 688 264 692 258 688 b 228 718 238 688 231 697 b 218 790 224 740 219 774 l 107 790 l 107 0 z m 188 -307 b 283 -215 244 -307 283 -267 b 188 -124 283 -164 244 -124 b 92 -215 131 -124 92 -164 b 188 -307 92 -267 131 -307 z "},"ɾ":{"ha":496,"x_min":0,"x_max":0,"o":"m 356 800 b 97 525 182 800 97 719 l 97 0 l 249 0 l 249 511 b 389 675 249 628 288 675 b 486 663 421 675 454 671 l 486 782 b 356 800 457 792 401 800 z "},"ɽ":{"ha":693,"x_min":0,"x_max":0,"o":"m 379 -349 b 526 -319 433 -349 483 -339 l 526 -204 b 414 -224 490 -217 453 -224 b 260 -58 310 -224 260 -174 l 260 386 b 292 581 260 464 269 531 b 431 681 322 647 368 681 b 538 551 499 681 538 629 b 536 531 538 544 536 538 l 675 531 b 676 558 676 542 676 551 b 465 810 676 715 597 810 b 276 710 386 810 319 772 b 249 689 267 696 257 689 b 228 719 238 689 231 699 b 218 790 224 740 219 774 l 107 790 l 107 -74 b 379 -349 107 -253 197 -349 z "},"ṟ":{"ha":693,"x_min":0,"x_max":0,"o":"m 260 0 l 260 386 b 292 579 260 464 269 531 b 431 681 322 647 368 681 b 538 551 501 681 538 629 b 536 531 538 544 536 536 l 675 531 b 676 558 676 542 676 551 b 465 810 678 715 599 810 b 276 708 386 810 319 771 b 249 688 264 692 258 688 b 228 718 238 688 231 697 b 218 790 224 740 219 774 l 107 790 l 107 0 z m 358 -258 l 358 -149 l 17 -149 l 17 -258 z "},"ɍ":{"ha":732,"x_min":0,"x_max":0,"o":"m 297 0 l 297 300 l 499 300 l 499 403 l 297 403 b 331 579 299 475 310 533 b 468 681 361 647 407 681 b 576 551 539 681 576 629 b 575 531 576 544 575 536 l 714 531 b 715 558 715 542 715 551 b 504 810 715 715 638 810 b 315 708 425 810 358 771 b 288 688 303 692 297 688 b 265 718 278 688 269 697 b 257 790 261 740 258 774 l 144 790 l 144 403 l 22 403 l 22 300 l 144 300 l 144 0 z "}}}
